%TF.GenerationSoftware,KiCad,Pcbnew,8.0.8*%
%TF.CreationDate,2025-02-07T12:49:18+01:00*%
%TF.ProjectId,PGE_GPS_PCB,5047455f-4750-4535-9f50-43422e6b6963,rev?*%
%TF.SameCoordinates,Original*%
%TF.FileFunction,Soldermask,Top*%
%TF.FilePolarity,Negative*%
%FSLAX46Y46*%
G04 Gerber Fmt 4.6, Leading zero omitted, Abs format (unit mm)*
G04 Created by KiCad (PCBNEW 8.0.8) date 2025-02-07 12:49:18*
%MOMM*%
%LPD*%
G01*
G04 APERTURE LIST*
G04 Aperture macros list*
%AMRoundRect*
0 Rectangle with rounded corners*
0 $1 Rounding radius*
0 $2 $3 $4 $5 $6 $7 $8 $9 X,Y pos of 4 corners*
0 Add a 4 corners polygon primitive as box body*
4,1,4,$2,$3,$4,$5,$6,$7,$8,$9,$2,$3,0*
0 Add four circle primitives for the rounded corners*
1,1,$1+$1,$2,$3*
1,1,$1+$1,$4,$5*
1,1,$1+$1,$6,$7*
1,1,$1+$1,$8,$9*
0 Add four rect primitives between the rounded corners*
20,1,$1+$1,$2,$3,$4,$5,0*
20,1,$1+$1,$4,$5,$6,$7,0*
20,1,$1+$1,$6,$7,$8,$9,0*
20,1,$1+$1,$8,$9,$2,$3,0*%
%AMFreePoly0*
4,1,32,1.175354,2.110354,1.175500,2.110000,1.175500,1.179300,1.175354,1.178946,1.175216,1.178849,1.072307,1.129519,0.884240,1.000302,0.721729,0.840131,0.589799,0.653958,0.492537,0.447555,0.432946,0.227290,0.412876,0.000000,0.432946,-0.227290,0.492537,-0.447555,0.589799,-0.653958,0.721729,-0.840131,0.884240,-1.000302,1.072307,-1.129519,1.175216,-1.178849,1.175472,-1.179134,
1.175500,-1.179300,1.175500,-2.110000,1.175354,-2.110354,1.175000,-2.110500,-0.395000,-2.110500,-0.395354,-2.110354,-0.395500,-2.110000,-0.395500,2.110000,-0.395354,2.110354,-0.395000,2.110500,1.175000,2.110500,1.175354,2.110354,1.175354,2.110354,$1*%
%AMFreePoly1*
4,1,32,0.435354,2.110354,0.435500,2.110000,0.435500,-2.110000,0.435354,-2.110354,0.435000,-2.110500,-1.135000,-2.110500,-1.135354,-2.110354,-1.135500,-2.110000,-1.135500,-1.179300,-1.135354,-1.178946,-1.135216,-1.178849,-1.032307,-1.129519,-0.844240,-1.000302,-0.681729,-0.840131,-0.549799,-0.653958,-0.452537,-0.447555,-0.392946,-0.227290,-0.372876,0.000000,-0.392946,0.227290,-0.452537,0.447555,
-0.549799,0.653958,-0.681729,0.840131,-0.844240,1.000302,-1.032307,1.129519,-1.135216,1.178849,-1.135472,1.179134,-1.135500,1.179300,-1.135500,2.110000,-1.135354,2.110354,-1.135000,2.110500,0.435000,2.110500,0.435354,2.110354,0.435354,2.110354,$1*%
G04 Aperture macros list end*
%ADD10RoundRect,0.062500X-0.117500X-0.062500X0.117500X-0.062500X0.117500X0.062500X-0.117500X0.062500X0*%
%ADD11RoundRect,0.250000X0.450000X-0.262500X0.450000X0.262500X-0.450000X0.262500X-0.450000X-0.262500X0*%
%ADD12RoundRect,0.250000X-0.250000X-0.475000X0.250000X-0.475000X0.250000X0.475000X-0.250000X0.475000X0*%
%ADD13RoundRect,0.062500X0.117500X0.062500X-0.117500X0.062500X-0.117500X-0.062500X0.117500X-0.062500X0*%
%ADD14RoundRect,0.243750X-0.243750X-0.456250X0.243750X-0.456250X0.243750X0.456250X-0.243750X0.456250X0*%
%ADD15RoundRect,0.218750X0.218750X0.381250X-0.218750X0.381250X-0.218750X-0.381250X0.218750X-0.381250X0*%
%ADD16RoundRect,0.150000X-0.587500X-0.150000X0.587500X-0.150000X0.587500X0.150000X-0.587500X0.150000X0*%
%ADD17RoundRect,0.250000X0.475000X-0.250000X0.475000X0.250000X-0.475000X0.250000X-0.475000X-0.250000X0*%
%ADD18RoundRect,0.200000X-0.700000X-0.200000X0.700000X-0.200000X0.700000X0.200000X-0.700000X0.200000X0*%
%ADD19C,1.470000*%
%ADD20FreePoly0,0.000000*%
%ADD21FreePoly1,0.000000*%
%ADD22RoundRect,0.250000X-0.262500X-0.450000X0.262500X-0.450000X0.262500X0.450000X-0.262500X0.450000X0*%
%ADD23R,1.700000X1.700000*%
%ADD24O,1.700000X1.700000*%
%ADD25RoundRect,0.250000X-0.450000X0.262500X-0.450000X-0.262500X0.450000X-0.262500X0.450000X0.262500X0*%
G04 APERTURE END LIST*
D10*
%TO.C,D1*%
X156000000Y-90000000D03*
X155160000Y-90000000D03*
%TD*%
D11*
%TO.C,R5*%
X146000000Y-77912500D03*
X146000000Y-76087500D03*
%TD*%
D12*
%TO.C,C5*%
X135050000Y-72000000D03*
X136950000Y-72000000D03*
%TD*%
D13*
%TO.C,D3*%
X143000000Y-84000000D03*
X143840000Y-84000000D03*
%TD*%
D14*
%TO.C,D2*%
X148062500Y-95000000D03*
X149937500Y-95000000D03*
%TD*%
D12*
%TO.C,C8*%
X163100000Y-95000000D03*
X165000000Y-95000000D03*
%TD*%
%TO.C,C6*%
X163050000Y-91000000D03*
X164950000Y-91000000D03*
%TD*%
D15*
%TO.C,L1*%
X137000000Y-88000000D03*
X134875000Y-88000000D03*
%TD*%
D11*
%TO.C,R4*%
X150000000Y-75912500D03*
X150000000Y-74087500D03*
%TD*%
D16*
%TO.C,Q1*%
X147000000Y-87100000D03*
X147000000Y-89000000D03*
X148875000Y-88050000D03*
%TD*%
D12*
%TO.C,C1*%
X139000000Y-88000000D03*
X140900000Y-88000000D03*
%TD*%
%TO.C,C3*%
X135050000Y-80000000D03*
X136950000Y-80000000D03*
%TD*%
D17*
%TO.C,C2*%
X135000000Y-84950000D03*
X135000000Y-83050000D03*
%TD*%
D11*
%TO.C,R1*%
X135050000Y-76862500D03*
X135050000Y-75037500D03*
%TD*%
D18*
%TO.C,U1*%
X155150000Y-75600000D03*
X155150000Y-76700000D03*
X155150000Y-77800000D03*
X155150000Y-78900000D03*
X155150000Y-80000000D03*
X155150000Y-81100000D03*
X155150000Y-82200000D03*
X155150000Y-83300000D03*
X155150000Y-84400000D03*
X164850000Y-84400000D03*
X164850000Y-83300000D03*
X164850000Y-82200000D03*
X164850000Y-81100000D03*
X164850000Y-80000000D03*
X164850000Y-78900000D03*
X164850000Y-77800000D03*
X164850000Y-76700000D03*
X164850000Y-75600000D03*
%TD*%
D19*
%TO.C,J1*%
X137000000Y-94000000D03*
D20*
X135290000Y-94000000D03*
D21*
X138670000Y-94000000D03*
%TD*%
D22*
%TO.C,R3*%
X158175000Y-95000000D03*
X160000000Y-95000000D03*
%TD*%
D23*
%TO.C,J3*%
X142380000Y-69000000D03*
D24*
X144920000Y-69000000D03*
X147460000Y-69000000D03*
X150000000Y-69000000D03*
X152540000Y-69000000D03*
X155080000Y-69000000D03*
%TD*%
D13*
%TO.C,D4*%
X143160000Y-81000000D03*
X144000000Y-81000000D03*
%TD*%
D25*
%TO.C,R2*%
X154000000Y-93087500D03*
X154000000Y-94912500D03*
%TD*%
M02*
