%TF.GenerationSoftware,KiCad,Pcbnew,8.0.8*%
%TF.CreationDate,2025-02-07T12:49:18+01:00*%
%TF.ProjectId,PGE_GPS_PCB,5047455f-4750-4535-9f50-43422e6b6963,rev?*%
%TF.SameCoordinates,Original*%
%TF.FileFunction,Copper,L2,Bot*%
%TF.FilePolarity,Positive*%
%FSLAX46Y46*%
G04 Gerber Fmt 4.6, Leading zero omitted, Abs format (unit mm)*
G04 Created by KiCad (PCBNEW 8.0.8) date 2025-02-07 12:49:18*
%MOMM*%
%LPD*%
G01*
G04 APERTURE LIST*
G04 Aperture macros list*
%AMRoundRect*
0 Rectangle with rounded corners*
0 $1 Rounding radius*
0 $2 $3 $4 $5 $6 $7 $8 $9 X,Y pos of 4 corners*
0 Add a 4 corners polygon primitive as box body*
4,1,4,$2,$3,$4,$5,$6,$7,$8,$9,$2,$3,0*
0 Add four circle primitives for the rounded corners*
1,1,$1+$1,$2,$3*
1,1,$1+$1,$4,$5*
1,1,$1+$1,$6,$7*
1,1,$1+$1,$8,$9*
0 Add four rect primitives between the rounded corners*
20,1,$1+$1,$2,$3,$4,$5,0*
20,1,$1+$1,$4,$5,$6,$7,0*
20,1,$1+$1,$6,$7,$8,$9,0*
20,1,$1+$1,$8,$9,$2,$3,0*%
G04 Aperture macros list end*
%TA.AperFunction,ComponentPad*%
%ADD10R,1.700000X1.700000*%
%TD*%
%TA.AperFunction,ComponentPad*%
%ADD11O,1.700000X1.700000*%
%TD*%
%TA.AperFunction,SMDPad,CuDef*%
%ADD12RoundRect,0.250000X0.250000X0.475000X-0.250000X0.475000X-0.250000X-0.475000X0.250000X-0.475000X0*%
%TD*%
%TA.AperFunction,ViaPad*%
%ADD13C,0.600000*%
%TD*%
%TA.AperFunction,Conductor*%
%ADD14C,0.200000*%
%TD*%
G04 APERTURE END LIST*
D10*
%TO.P,J3,1,Pin_1*%
%TO.N,GPS_reset*%
X142380000Y-69000000D03*
D11*
%TO.P,J3,2,Pin_2*%
%TO.N,standby*%
X144920000Y-69000000D03*
%TO.P,J3,3,Pin_3*%
%TO.N,GPS_RX*%
X147460000Y-69000000D03*
%TO.P,J3,4,Pin_4*%
%TO.N,GPS_TX*%
X150000000Y-69000000D03*
%TO.P,J3,5,Pin_5*%
%TO.N,VDD_3.3V*%
X152540000Y-69000000D03*
%TO.P,J3,6,Pin_6*%
%TO.N,GND*%
X155080000Y-69000000D03*
%TD*%
D12*
%TO.P,C7,1*%
%TO.N,VDD_3.3V*%
X150000000Y-81000000D03*
%TO.P,C7,2*%
%TO.N,GND*%
X148100000Y-81000000D03*
%TD*%
%TO.P,C4,1*%
%TO.N,VDD_3.3V*%
X150050000Y-78000000D03*
%TO.P,C4,2*%
%TO.N,GND*%
X148150000Y-78000000D03*
%TD*%
D13*
%TO.N,VCC_RF*%
X144531100Y-89027700D03*
X159186200Y-78478400D03*
%TO.N,VDD_3.3V*%
X151582000Y-90000000D03*
%TO.N,RF_IN*%
X159800500Y-82000000D03*
X159800500Y-67786700D03*
%TO.N,standby*%
X144104365Y-80055636D03*
%TO.N,GPS_reset*%
X142380000Y-83490400D03*
%TD*%
D14*
%TO.N,VCC_RF*%
X159186200Y-78478400D02*
X158000000Y-79664600D01*
X147503400Y-92000000D02*
X144531100Y-89027700D01*
X158000000Y-79664600D02*
X158000000Y-86215800D01*
X152215800Y-92000000D02*
X147503400Y-92000000D01*
X158000000Y-86215800D02*
X152215800Y-92000000D01*
%TO.N,GND*%
X148100000Y-78050000D02*
X148150000Y-78000000D01*
X148100000Y-81000000D02*
X148100000Y-78050000D01*
%TO.N,VDD_3.3V*%
X151582000Y-82582000D02*
X150000000Y-81000000D01*
X151582000Y-90000000D02*
X151582000Y-82582000D01*
X150050000Y-80950000D02*
X150050000Y-78000000D01*
X150050000Y-78000000D02*
X150050000Y-72641700D01*
X152540000Y-69000000D02*
X152540000Y-70151700D01*
X150050000Y-72641700D02*
X152540000Y-70151700D01*
X150000000Y-81000000D02*
X150050000Y-80950000D01*
%TO.N,RF_IN*%
X159800500Y-82000000D02*
X159836200Y-81964300D01*
X159836200Y-81964300D02*
X159836200Y-67822400D01*
X159836200Y-67822400D02*
X159800500Y-67786700D01*
%TO.N,standby*%
X144104365Y-80055636D02*
X144920000Y-79240001D01*
X144920000Y-79240001D02*
X144920000Y-69000000D01*
%TO.N,GPS_reset*%
X142380000Y-69000000D02*
X142380000Y-83490400D01*
%TD*%
%TA.AperFunction,Conductor*%
%TO.N,GND*%
G36*
X169442539Y-64520185D02*
G01*
X169488294Y-64572989D01*
X169499500Y-64624500D01*
X169499500Y-99375500D01*
X169479815Y-99442539D01*
X169427011Y-99488294D01*
X169375500Y-99499500D01*
X129624500Y-99499500D01*
X129557461Y-99479815D01*
X129511706Y-99427011D01*
X129500500Y-99375500D01*
X129500500Y-89027696D01*
X143725535Y-89027696D01*
X143725535Y-89027703D01*
X143745730Y-89206949D01*
X143745731Y-89206954D01*
X143805311Y-89377223D01*
X143881034Y-89497734D01*
X143901284Y-89529962D01*
X144028838Y-89657516D01*
X144181578Y-89753489D01*
X144351845Y-89813068D01*
X144438769Y-89822861D01*
X144503180Y-89849926D01*
X144512565Y-89858400D01*
X147018539Y-92364374D01*
X147018549Y-92364385D01*
X147022879Y-92368715D01*
X147022880Y-92368716D01*
X147134684Y-92480520D01*
X147221495Y-92530639D01*
X147221497Y-92530641D01*
X147259551Y-92552611D01*
X147271615Y-92559577D01*
X147424343Y-92600501D01*
X147424346Y-92600501D01*
X147590053Y-92600501D01*
X147590069Y-92600500D01*
X152129131Y-92600500D01*
X152129147Y-92600501D01*
X152136743Y-92600501D01*
X152294854Y-92600501D01*
X152294857Y-92600501D01*
X152447585Y-92559577D01*
X152497704Y-92530639D01*
X152584516Y-92480520D01*
X152696320Y-92368716D01*
X152696320Y-92368714D01*
X152706528Y-92358507D01*
X152706530Y-92358504D01*
X158368713Y-86696321D01*
X158368716Y-86696320D01*
X158480520Y-86584516D01*
X158530639Y-86497704D01*
X158559577Y-86447585D01*
X158600500Y-86294857D01*
X158600500Y-86136743D01*
X158600500Y-79964696D01*
X158620185Y-79897657D01*
X158636815Y-79877019D01*
X159024019Y-79489814D01*
X159085342Y-79456330D01*
X159155034Y-79461314D01*
X159210967Y-79503186D01*
X159235384Y-79568650D01*
X159235700Y-79577496D01*
X159235700Y-81381360D01*
X159216015Y-81448399D01*
X159199381Y-81469041D01*
X159170684Y-81497737D01*
X159074711Y-81650476D01*
X159015131Y-81820745D01*
X159015130Y-81820750D01*
X158994935Y-81999996D01*
X158994935Y-82000003D01*
X159015130Y-82179249D01*
X159015131Y-82179254D01*
X159074711Y-82349523D01*
X159075145Y-82350213D01*
X159170684Y-82502262D01*
X159298238Y-82629816D01*
X159450978Y-82725789D01*
X159621245Y-82785368D01*
X159621250Y-82785369D01*
X159800496Y-82805565D01*
X159800500Y-82805565D01*
X159800504Y-82805565D01*
X159979749Y-82785369D01*
X159979752Y-82785368D01*
X159979755Y-82785368D01*
X160150022Y-82725789D01*
X160302762Y-82629816D01*
X160430316Y-82502262D01*
X160526289Y-82349522D01*
X160585868Y-82179255D01*
X160585869Y-82179249D01*
X160606065Y-82000003D01*
X160606065Y-81999996D01*
X160585869Y-81820750D01*
X160585868Y-81820745D01*
X160526288Y-81650476D01*
X160455706Y-81538145D01*
X160436700Y-81472173D01*
X160436700Y-68314525D01*
X160455707Y-68248552D01*
X160526288Y-68136224D01*
X160534789Y-68111930D01*
X160585868Y-67965955D01*
X160586326Y-67961891D01*
X160606065Y-67786703D01*
X160606065Y-67786696D01*
X160585869Y-67607450D01*
X160585868Y-67607445D01*
X160526288Y-67437176D01*
X160430315Y-67284437D01*
X160302762Y-67156884D01*
X160150023Y-67060911D01*
X159979754Y-67001331D01*
X159979749Y-67001330D01*
X159800504Y-66981135D01*
X159800496Y-66981135D01*
X159621250Y-67001330D01*
X159621245Y-67001331D01*
X159450976Y-67060911D01*
X159298237Y-67156884D01*
X159170684Y-67284437D01*
X159074711Y-67437176D01*
X159015131Y-67607445D01*
X159015130Y-67607450D01*
X158994935Y-67786696D01*
X158994935Y-67786703D01*
X159015130Y-67965949D01*
X159015131Y-67965954D01*
X159074711Y-68136223D01*
X159170684Y-68288962D01*
X159199381Y-68317659D01*
X159232866Y-68378982D01*
X159235700Y-68405340D01*
X159235700Y-77556444D01*
X159216015Y-77623483D01*
X159163211Y-77669238D01*
X159125584Y-77679664D01*
X159006949Y-77693030D01*
X159006945Y-77693031D01*
X158836676Y-77752611D01*
X158683937Y-77848584D01*
X158556384Y-77976137D01*
X158460410Y-78128878D01*
X158400830Y-78299150D01*
X158391037Y-78386068D01*
X158363970Y-78450482D01*
X158355498Y-78459865D01*
X157932968Y-78882396D01*
X157631286Y-79184078D01*
X157631284Y-79184080D01*
X157600859Y-79214505D01*
X157519481Y-79295882D01*
X157519480Y-79295884D01*
X157506101Y-79319058D01*
X157499873Y-79329846D01*
X157444462Y-79425820D01*
X157440423Y-79432815D01*
X157399499Y-79585543D01*
X157399499Y-79585545D01*
X157399499Y-79753646D01*
X157399500Y-79753659D01*
X157399500Y-85915703D01*
X157379815Y-85982742D01*
X157363181Y-86003384D01*
X152003384Y-91363181D01*
X151942061Y-91396666D01*
X151915703Y-91399500D01*
X147803497Y-91399500D01*
X147736458Y-91379815D01*
X147715816Y-91363181D01*
X145361800Y-89009165D01*
X145328315Y-88947842D01*
X145326263Y-88935386D01*
X145316468Y-88848445D01*
X145256889Y-88678178D01*
X145160916Y-88525438D01*
X145033362Y-88397884D01*
X144880623Y-88301911D01*
X144710354Y-88242331D01*
X144710349Y-88242330D01*
X144531104Y-88222135D01*
X144531096Y-88222135D01*
X144351850Y-88242330D01*
X144351845Y-88242331D01*
X144181576Y-88301911D01*
X144028837Y-88397884D01*
X143901284Y-88525437D01*
X143805311Y-88678176D01*
X143745731Y-88848445D01*
X143745730Y-88848450D01*
X143725535Y-89027696D01*
X129500500Y-89027696D01*
X129500500Y-68102135D01*
X141029500Y-68102135D01*
X141029500Y-69897870D01*
X141029501Y-69897876D01*
X141035908Y-69957483D01*
X141086202Y-70092328D01*
X141086206Y-70092335D01*
X141172452Y-70207544D01*
X141172455Y-70207547D01*
X141287664Y-70293793D01*
X141287671Y-70293797D01*
X141332618Y-70310561D01*
X141422517Y-70344091D01*
X141482127Y-70350500D01*
X141655500Y-70350499D01*
X141722539Y-70370183D01*
X141768294Y-70422987D01*
X141779500Y-70474499D01*
X141779500Y-82907987D01*
X141759815Y-82975026D01*
X141752450Y-82985296D01*
X141750186Y-82988134D01*
X141654211Y-83140876D01*
X141594631Y-83311145D01*
X141594630Y-83311150D01*
X141574435Y-83490396D01*
X141574435Y-83490403D01*
X141594630Y-83669649D01*
X141594631Y-83669654D01*
X141654211Y-83839923D01*
X141750184Y-83992662D01*
X141877738Y-84120216D01*
X142030478Y-84216189D01*
X142200745Y-84275768D01*
X142200750Y-84275769D01*
X142379996Y-84295965D01*
X142380000Y-84295965D01*
X142380004Y-84295965D01*
X142559249Y-84275769D01*
X142559252Y-84275768D01*
X142559255Y-84275768D01*
X142729522Y-84216189D01*
X142882262Y-84120216D01*
X143009816Y-83992662D01*
X143105789Y-83839922D01*
X143165368Y-83669655D01*
X143185565Y-83490400D01*
X143165368Y-83311145D01*
X143105789Y-83140878D01*
X143009816Y-82988138D01*
X143009814Y-82988136D01*
X143009813Y-82988134D01*
X143007550Y-82985296D01*
X143006659Y-82983115D01*
X143006111Y-82982242D01*
X143006264Y-82982145D01*
X142981144Y-82920609D01*
X142980500Y-82907987D01*
X142980500Y-81524986D01*
X147100001Y-81524986D01*
X147110494Y-81627697D01*
X147165641Y-81794119D01*
X147165643Y-81794124D01*
X147257684Y-81943345D01*
X147381654Y-82067315D01*
X147530875Y-82159356D01*
X147530880Y-82159358D01*
X147697302Y-82214505D01*
X147697309Y-82214506D01*
X147800019Y-82224999D01*
X147849999Y-82224998D01*
X147850000Y-82224998D01*
X147850000Y-81250000D01*
X147100001Y-81250000D01*
X147100001Y-81524986D01*
X142980500Y-81524986D01*
X142980500Y-70474499D01*
X143000185Y-70407460D01*
X143052989Y-70361705D01*
X143104500Y-70350499D01*
X143277871Y-70350499D01*
X143277872Y-70350499D01*
X143337483Y-70344091D01*
X143472331Y-70293796D01*
X143587546Y-70207546D01*
X143673796Y-70092331D01*
X143722810Y-69960916D01*
X143764681Y-69904984D01*
X143830145Y-69880566D01*
X143898418Y-69895417D01*
X143926673Y-69916569D01*
X144048599Y-70038495D01*
X144128218Y-70094245D01*
X144242165Y-70174032D01*
X144242167Y-70174033D01*
X144242170Y-70174035D01*
X144247898Y-70176706D01*
X144300339Y-70222872D01*
X144319500Y-70289090D01*
X144319500Y-78939903D01*
X144299815Y-79006942D01*
X144283181Y-79027584D01*
X144085830Y-79224934D01*
X144024507Y-79258419D01*
X144012033Y-79260473D01*
X143925115Y-79270266D01*
X143754843Y-79329846D01*
X143602102Y-79425820D01*
X143474549Y-79553373D01*
X143378576Y-79706112D01*
X143318996Y-79876381D01*
X143318995Y-79876386D01*
X143298800Y-80055632D01*
X143298800Y-80055639D01*
X143318995Y-80234885D01*
X143318996Y-80234890D01*
X143378576Y-80405159D01*
X143422459Y-80474998D01*
X143474549Y-80557898D01*
X143602103Y-80685452D01*
X143754843Y-80781425D01*
X143925110Y-80841004D01*
X143925115Y-80841005D01*
X144104361Y-80861201D01*
X144104365Y-80861201D01*
X144104369Y-80861201D01*
X144283614Y-80841005D01*
X144283617Y-80841004D01*
X144283620Y-80841004D01*
X144453887Y-80781425D01*
X144606627Y-80685452D01*
X144734181Y-80557898D01*
X144786261Y-80475013D01*
X147100000Y-80475013D01*
X147100000Y-80750000D01*
X147850000Y-80750000D01*
X147850000Y-79775000D01*
X147849999Y-79774999D01*
X147800029Y-79775000D01*
X147800011Y-79775001D01*
X147697302Y-79785494D01*
X147530880Y-79840641D01*
X147530875Y-79840643D01*
X147381654Y-79932684D01*
X147257684Y-80056654D01*
X147165643Y-80205875D01*
X147165641Y-80205880D01*
X147110494Y-80372302D01*
X147110493Y-80372309D01*
X147100000Y-80475013D01*
X144786261Y-80475013D01*
X144830154Y-80405158D01*
X144889733Y-80234891D01*
X144899526Y-80147965D01*
X144926591Y-80083554D01*
X144935055Y-80074179D01*
X145278506Y-79730729D01*
X145278511Y-79730725D01*
X145288714Y-79720521D01*
X145288716Y-79720521D01*
X145400520Y-79608717D01*
X145453846Y-79516353D01*
X145479577Y-79471786D01*
X145520500Y-79319058D01*
X145520500Y-79160944D01*
X145520500Y-78524986D01*
X147150001Y-78524986D01*
X147160494Y-78627697D01*
X147215641Y-78794119D01*
X147215643Y-78794124D01*
X147307684Y-78943345D01*
X147431654Y-79067315D01*
X147580875Y-79159356D01*
X147580880Y-79159358D01*
X147747302Y-79214505D01*
X147747309Y-79214506D01*
X147850019Y-79224999D01*
X147899999Y-79224998D01*
X147900000Y-79224998D01*
X147900000Y-78250000D01*
X147150001Y-78250000D01*
X147150001Y-78524986D01*
X145520500Y-78524986D01*
X145520500Y-77475013D01*
X147150000Y-77475013D01*
X147150000Y-77750000D01*
X147900000Y-77750000D01*
X147900000Y-76775000D01*
X147899999Y-76774999D01*
X147850029Y-76775000D01*
X147850011Y-76775001D01*
X147747302Y-76785494D01*
X147580880Y-76840641D01*
X147580875Y-76840643D01*
X147431654Y-76932684D01*
X147307684Y-77056654D01*
X147215643Y-77205875D01*
X147215641Y-77205880D01*
X147160494Y-77372302D01*
X147160493Y-77372309D01*
X147150000Y-77475013D01*
X145520500Y-77475013D01*
X145520500Y-70289090D01*
X145540185Y-70222051D01*
X145592101Y-70176706D01*
X145597830Y-70174035D01*
X145791401Y-70038495D01*
X145958495Y-69871401D01*
X146088425Y-69685842D01*
X146143002Y-69642217D01*
X146212500Y-69635023D01*
X146274855Y-69666546D01*
X146291575Y-69685842D01*
X146421281Y-69871082D01*
X146421505Y-69871401D01*
X146588599Y-70038495D01*
X146668218Y-70094245D01*
X146782165Y-70174032D01*
X146782167Y-70174033D01*
X146782170Y-70174035D01*
X146996337Y-70273903D01*
X147224592Y-70335063D01*
X147401034Y-70350500D01*
X147459999Y-70355659D01*
X147460000Y-70355659D01*
X147460001Y-70355659D01*
X147518966Y-70350500D01*
X147695408Y-70335063D01*
X147923663Y-70273903D01*
X148137830Y-70174035D01*
X148331401Y-70038495D01*
X148498495Y-69871401D01*
X148628425Y-69685842D01*
X148683002Y-69642217D01*
X148752500Y-69635023D01*
X148814855Y-69666546D01*
X148831575Y-69685842D01*
X148961281Y-69871082D01*
X148961505Y-69871401D01*
X149128599Y-70038495D01*
X149208218Y-70094245D01*
X149322165Y-70174032D01*
X149322167Y-70174033D01*
X149322170Y-70174035D01*
X149536337Y-70273903D01*
X149764592Y-70335063D01*
X149941034Y-70350500D01*
X149999999Y-70355659D01*
X150000000Y-70355659D01*
X150000001Y-70355659D01*
X150058966Y-70350500D01*
X150235408Y-70335063D01*
X150463663Y-70273903D01*
X150677830Y-70174035D01*
X150871401Y-70038495D01*
X151038495Y-69871401D01*
X151168425Y-69685842D01*
X151223002Y-69642217D01*
X151292500Y-69635023D01*
X151354855Y-69666546D01*
X151371575Y-69685842D01*
X151501501Y-69871396D01*
X151501506Y-69871402D01*
X151648602Y-70018498D01*
X151682087Y-70079821D01*
X151677103Y-70149513D01*
X151648602Y-70193860D01*
X149681286Y-72161178D01*
X149569481Y-72272982D01*
X149569479Y-72272985D01*
X149519361Y-72359794D01*
X149519359Y-72359796D01*
X149490425Y-72409909D01*
X149490424Y-72409910D01*
X149490423Y-72409915D01*
X149449499Y-72562643D01*
X149449499Y-72562645D01*
X149449499Y-72730746D01*
X149449500Y-72730759D01*
X149449500Y-76790201D01*
X149429815Y-76857240D01*
X149390598Y-76895739D01*
X149331344Y-76932287D01*
X149207288Y-77056343D01*
X149207283Y-77056349D01*
X149205241Y-77059661D01*
X149203247Y-77061453D01*
X149202807Y-77062011D01*
X149202711Y-77061935D01*
X149153291Y-77106383D01*
X149084328Y-77117602D01*
X149020247Y-77089755D01*
X148994168Y-77059656D01*
X148992319Y-77056659D01*
X148992316Y-77056655D01*
X148868345Y-76932684D01*
X148719124Y-76840643D01*
X148719119Y-76840641D01*
X148552697Y-76785494D01*
X148552690Y-76785493D01*
X148449986Y-76775000D01*
X148400000Y-76775000D01*
X148400000Y-79224999D01*
X148449972Y-79224999D01*
X148449986Y-79224998D01*
X148552697Y-79214505D01*
X148719119Y-79159358D01*
X148719124Y-79159356D01*
X148868345Y-79067315D01*
X148992318Y-78943342D01*
X148994165Y-78940348D01*
X148995969Y-78938724D01*
X148996798Y-78937677D01*
X148996976Y-78937818D01*
X149046110Y-78893621D01*
X149115073Y-78882396D01*
X149179156Y-78910236D01*
X149205243Y-78940341D01*
X149207288Y-78943656D01*
X149331344Y-79067712D01*
X149390596Y-79104258D01*
X149437321Y-79156204D01*
X149449500Y-79209797D01*
X149449500Y-79759362D01*
X149429815Y-79826401D01*
X149390598Y-79864899D01*
X149337490Y-79897657D01*
X149281342Y-79932289D01*
X149157288Y-80056343D01*
X149157283Y-80056349D01*
X149155241Y-80059661D01*
X149153247Y-80061453D01*
X149152807Y-80062011D01*
X149152711Y-80061935D01*
X149103291Y-80106383D01*
X149034328Y-80117602D01*
X148970247Y-80089755D01*
X148944168Y-80059656D01*
X148942319Y-80056659D01*
X148942316Y-80056655D01*
X148818345Y-79932684D01*
X148669124Y-79840643D01*
X148669119Y-79840641D01*
X148502697Y-79785494D01*
X148502690Y-79785493D01*
X148399986Y-79775000D01*
X148350000Y-79775000D01*
X148350000Y-82224999D01*
X148399972Y-82224999D01*
X148399986Y-82224998D01*
X148502697Y-82214505D01*
X148669119Y-82159358D01*
X148669124Y-82159356D01*
X148818345Y-82067315D01*
X148942318Y-81943342D01*
X148944165Y-81940348D01*
X148945969Y-81938724D01*
X148946798Y-81937677D01*
X148946976Y-81937818D01*
X148996110Y-81893621D01*
X149065073Y-81882396D01*
X149129156Y-81910236D01*
X149155243Y-81940341D01*
X149157288Y-81943656D01*
X149281344Y-82067712D01*
X149430666Y-82159814D01*
X149597203Y-82214999D01*
X149699991Y-82225500D01*
X150300008Y-82225499D01*
X150310576Y-82224419D01*
X150379268Y-82237187D01*
X150410861Y-82260096D01*
X150945181Y-82794416D01*
X150978666Y-82855739D01*
X150981500Y-82882097D01*
X150981500Y-89417587D01*
X150961815Y-89484626D01*
X150954450Y-89494896D01*
X150952186Y-89497734D01*
X150856211Y-89650476D01*
X150796631Y-89820745D01*
X150796630Y-89820750D01*
X150776435Y-89999996D01*
X150776435Y-90000003D01*
X150796630Y-90179249D01*
X150796631Y-90179254D01*
X150856211Y-90349523D01*
X150952184Y-90502262D01*
X151079738Y-90629816D01*
X151232478Y-90725789D01*
X151402745Y-90785368D01*
X151402750Y-90785369D01*
X151581996Y-90805565D01*
X151582000Y-90805565D01*
X151582004Y-90805565D01*
X151761249Y-90785369D01*
X151761252Y-90785368D01*
X151761255Y-90785368D01*
X151931522Y-90725789D01*
X152084262Y-90629816D01*
X152211816Y-90502262D01*
X152307789Y-90349522D01*
X152367368Y-90179255D01*
X152387565Y-90000000D01*
X152367606Y-89822860D01*
X152367369Y-89820750D01*
X152367368Y-89820745D01*
X152343834Y-89753489D01*
X152307789Y-89650478D01*
X152211816Y-89497738D01*
X152211814Y-89497736D01*
X152211813Y-89497734D01*
X152209550Y-89494896D01*
X152208659Y-89492715D01*
X152208111Y-89491842D01*
X152208264Y-89491745D01*
X152183144Y-89430209D01*
X152182500Y-89417587D01*
X152182500Y-82671059D01*
X152182501Y-82671046D01*
X152182501Y-82502945D01*
X152182501Y-82502943D01*
X152141577Y-82350215D01*
X152073201Y-82231785D01*
X152073200Y-82231782D01*
X152062522Y-82213286D01*
X152062518Y-82213281D01*
X151946397Y-82097160D01*
X151946374Y-82097139D01*
X151036818Y-81187583D01*
X151003333Y-81126260D01*
X151000499Y-81099902D01*
X151000499Y-80474998D01*
X151000498Y-80474981D01*
X150989999Y-80372203D01*
X150989998Y-80372200D01*
X150944498Y-80234891D01*
X150934814Y-80205666D01*
X150842712Y-80056344D01*
X150718656Y-79932288D01*
X150718655Y-79932287D01*
X150709402Y-79926580D01*
X150662678Y-79874632D01*
X150650500Y-79821042D01*
X150650500Y-79209797D01*
X150670185Y-79142758D01*
X150709403Y-79104258D01*
X150768656Y-79067712D01*
X150892712Y-78943656D01*
X150984814Y-78794334D01*
X151039999Y-78627797D01*
X151050500Y-78525009D01*
X151050499Y-77474992D01*
X151039999Y-77372203D01*
X150984814Y-77205666D01*
X150892712Y-77056344D01*
X150768656Y-76932288D01*
X150768655Y-76932287D01*
X150709402Y-76895739D01*
X150662678Y-76843791D01*
X150650500Y-76790201D01*
X150650500Y-72941797D01*
X150670185Y-72874758D01*
X150686819Y-72854116D01*
X151379757Y-72161178D01*
X153020520Y-70520416D01*
X153099577Y-70383484D01*
X153131863Y-70262993D01*
X153168228Y-70203335D01*
X153199233Y-70182707D01*
X153201188Y-70181794D01*
X153217830Y-70174035D01*
X153411401Y-70038495D01*
X153578495Y-69871401D01*
X153708730Y-69685405D01*
X153763307Y-69641781D01*
X153832805Y-69634587D01*
X153895160Y-69666110D01*
X153911879Y-69685405D01*
X154041890Y-69871078D01*
X154208917Y-70038105D01*
X154402421Y-70173600D01*
X154616507Y-70273429D01*
X154616516Y-70273433D01*
X154830000Y-70330634D01*
X154830000Y-69433012D01*
X154887007Y-69465925D01*
X155014174Y-69500000D01*
X155145826Y-69500000D01*
X155272993Y-69465925D01*
X155330000Y-69433012D01*
X155330000Y-70330633D01*
X155543483Y-70273433D01*
X155543492Y-70273429D01*
X155757578Y-70173600D01*
X155951082Y-70038105D01*
X156118105Y-69871082D01*
X156253600Y-69677578D01*
X156353429Y-69463492D01*
X156353432Y-69463486D01*
X156410636Y-69250000D01*
X155513012Y-69250000D01*
X155545925Y-69192993D01*
X155580000Y-69065826D01*
X155580000Y-68934174D01*
X155545925Y-68807007D01*
X155513012Y-68750000D01*
X156410636Y-68750000D01*
X156410635Y-68749999D01*
X156353432Y-68536513D01*
X156353429Y-68536507D01*
X156253600Y-68322422D01*
X156253599Y-68322420D01*
X156118113Y-68128926D01*
X156118108Y-68128920D01*
X155951082Y-67961894D01*
X155757578Y-67826399D01*
X155543492Y-67726570D01*
X155543486Y-67726567D01*
X155330000Y-67669364D01*
X155330000Y-68566988D01*
X155272993Y-68534075D01*
X155145826Y-68500000D01*
X155014174Y-68500000D01*
X154887007Y-68534075D01*
X154830000Y-68566988D01*
X154830000Y-67669364D01*
X154829999Y-67669364D01*
X154616513Y-67726567D01*
X154616507Y-67726570D01*
X154402422Y-67826399D01*
X154402420Y-67826400D01*
X154208926Y-67961886D01*
X154208920Y-67961891D01*
X154041891Y-68128920D01*
X154041890Y-68128922D01*
X153911880Y-68314595D01*
X153857303Y-68358219D01*
X153787804Y-68365412D01*
X153725450Y-68333890D01*
X153708730Y-68314594D01*
X153578494Y-68128597D01*
X153411402Y-67961506D01*
X153411395Y-67961501D01*
X153217834Y-67825967D01*
X153217830Y-67825965D01*
X153217828Y-67825964D01*
X153003663Y-67726097D01*
X153003659Y-67726096D01*
X153003655Y-67726094D01*
X152775413Y-67664938D01*
X152775403Y-67664936D01*
X152540001Y-67644341D01*
X152539999Y-67644341D01*
X152304596Y-67664936D01*
X152304586Y-67664938D01*
X152076344Y-67726094D01*
X152076335Y-67726098D01*
X151862171Y-67825964D01*
X151862169Y-67825965D01*
X151668597Y-67961505D01*
X151501505Y-68128597D01*
X151371575Y-68314158D01*
X151316998Y-68357783D01*
X151247500Y-68364977D01*
X151185145Y-68333454D01*
X151168425Y-68314158D01*
X151038494Y-68128597D01*
X150871402Y-67961506D01*
X150871395Y-67961501D01*
X150677834Y-67825967D01*
X150677830Y-67825965D01*
X150677828Y-67825964D01*
X150463663Y-67726097D01*
X150463659Y-67726096D01*
X150463655Y-67726094D01*
X150235413Y-67664938D01*
X150235403Y-67664936D01*
X150000001Y-67644341D01*
X149999999Y-67644341D01*
X149764596Y-67664936D01*
X149764586Y-67664938D01*
X149536344Y-67726094D01*
X149536335Y-67726098D01*
X149322171Y-67825964D01*
X149322169Y-67825965D01*
X149128597Y-67961505D01*
X148961505Y-68128597D01*
X148831575Y-68314158D01*
X148776998Y-68357783D01*
X148707500Y-68364977D01*
X148645145Y-68333454D01*
X148628425Y-68314158D01*
X148498494Y-68128597D01*
X148331402Y-67961506D01*
X148331395Y-67961501D01*
X148137834Y-67825967D01*
X148137830Y-67825965D01*
X148137828Y-67825964D01*
X147923663Y-67726097D01*
X147923659Y-67726096D01*
X147923655Y-67726094D01*
X147695413Y-67664938D01*
X147695403Y-67664936D01*
X147460001Y-67644341D01*
X147459999Y-67644341D01*
X147224596Y-67664936D01*
X147224586Y-67664938D01*
X146996344Y-67726094D01*
X146996335Y-67726098D01*
X146782171Y-67825964D01*
X146782169Y-67825965D01*
X146588597Y-67961505D01*
X146421505Y-68128597D01*
X146291575Y-68314158D01*
X146236998Y-68357783D01*
X146167500Y-68364977D01*
X146105145Y-68333454D01*
X146088425Y-68314158D01*
X145958494Y-68128597D01*
X145791402Y-67961506D01*
X145791395Y-67961501D01*
X145597834Y-67825967D01*
X145597830Y-67825965D01*
X145597828Y-67825964D01*
X145383663Y-67726097D01*
X145383659Y-67726096D01*
X145383655Y-67726094D01*
X145155413Y-67664938D01*
X145155403Y-67664936D01*
X144920001Y-67644341D01*
X144919999Y-67644341D01*
X144684596Y-67664936D01*
X144684586Y-67664938D01*
X144456344Y-67726094D01*
X144456335Y-67726098D01*
X144242171Y-67825964D01*
X144242169Y-67825965D01*
X144048600Y-67961503D01*
X143926673Y-68083430D01*
X143865350Y-68116914D01*
X143795658Y-68111930D01*
X143739725Y-68070058D01*
X143722810Y-68039081D01*
X143673797Y-67907671D01*
X143673793Y-67907664D01*
X143587547Y-67792455D01*
X143587544Y-67792452D01*
X143472335Y-67706206D01*
X143472328Y-67706202D01*
X143337482Y-67655908D01*
X143337483Y-67655908D01*
X143277883Y-67649501D01*
X143277881Y-67649500D01*
X143277873Y-67649500D01*
X143277864Y-67649500D01*
X141482129Y-67649500D01*
X141482123Y-67649501D01*
X141422516Y-67655908D01*
X141287671Y-67706202D01*
X141287664Y-67706206D01*
X141172455Y-67792452D01*
X141172452Y-67792455D01*
X141086206Y-67907664D01*
X141086202Y-67907671D01*
X141035908Y-68042517D01*
X141029501Y-68102116D01*
X141029500Y-68102135D01*
X129500500Y-68102135D01*
X129500500Y-64624500D01*
X129520185Y-64557461D01*
X129572989Y-64511706D01*
X129624500Y-64500500D01*
X169375500Y-64500500D01*
X169442539Y-64520185D01*
G37*
%TD.AperFunction*%
%TD*%
M02*
