%TF.GenerationSoftware,KiCad,Pcbnew,8.0.8*%
%TF.CreationDate,2025-02-07T12:49:18+01:00*%
%TF.ProjectId,PGE_GPS_PCB,5047455f-4750-4535-9f50-43422e6b6963,rev?*%
%TF.SameCoordinates,Original*%
%TF.FileFunction,Paste,Top*%
%TF.FilePolarity,Positive*%
%FSLAX46Y46*%
G04 Gerber Fmt 4.6, Leading zero omitted, Abs format (unit mm)*
G04 Created by KiCad (PCBNEW 8.0.8) date 2025-02-07 12:49:18*
%MOMM*%
%LPD*%
G01*
G04 APERTURE LIST*
G04 Aperture macros list*
%AMRoundRect*
0 Rectangle with rounded corners*
0 $1 Rounding radius*
0 $2 $3 $4 $5 $6 $7 $8 $9 X,Y pos of 4 corners*
0 Add a 4 corners polygon primitive as box body*
4,1,4,$2,$3,$4,$5,$6,$7,$8,$9,$2,$3,0*
0 Add four circle primitives for the rounded corners*
1,1,$1+$1,$2,$3*
1,1,$1+$1,$4,$5*
1,1,$1+$1,$6,$7*
1,1,$1+$1,$8,$9*
0 Add four rect primitives between the rounded corners*
20,1,$1+$1,$2,$3,$4,$5,0*
20,1,$1+$1,$4,$5,$6,$7,0*
20,1,$1+$1,$6,$7,$8,$9,0*
20,1,$1+$1,$8,$9,$2,$3,0*%
G04 Aperture macros list end*
%ADD10C,0.001000*%
%ADD11RoundRect,0.062500X-0.117500X-0.062500X0.117500X-0.062500X0.117500X0.062500X-0.117500X0.062500X0*%
%ADD12RoundRect,0.250000X0.450000X-0.262500X0.450000X0.262500X-0.450000X0.262500X-0.450000X-0.262500X0*%
%ADD13RoundRect,0.250000X-0.250000X-0.475000X0.250000X-0.475000X0.250000X0.475000X-0.250000X0.475000X0*%
%ADD14RoundRect,0.062500X0.117500X0.062500X-0.117500X0.062500X-0.117500X-0.062500X0.117500X-0.062500X0*%
%ADD15RoundRect,0.243750X-0.243750X-0.456250X0.243750X-0.456250X0.243750X0.456250X-0.243750X0.456250X0*%
%ADD16RoundRect,0.218750X0.218750X0.381250X-0.218750X0.381250X-0.218750X-0.381250X0.218750X-0.381250X0*%
%ADD17RoundRect,0.150000X-0.587500X-0.150000X0.587500X-0.150000X0.587500X0.150000X-0.587500X0.150000X0*%
%ADD18RoundRect,0.250000X0.475000X-0.250000X0.475000X0.250000X-0.475000X0.250000X-0.475000X-0.250000X0*%
%ADD19RoundRect,0.200000X-0.700000X-0.200000X0.700000X-0.200000X0.700000X0.200000X-0.700000X0.200000X0*%
%ADD20C,1.470000*%
%ADD21RoundRect,0.250000X-0.262500X-0.450000X0.262500X-0.450000X0.262500X0.450000X-0.262500X0.450000X0*%
%ADD22RoundRect,0.250000X-0.450000X0.262500X-0.450000X-0.262500X0.450000X-0.262500X0.450000X0.262500X0*%
G04 APERTURE END LIST*
D10*
%TO.C,J1*%
X136465000Y-92820700D02*
X136359942Y-92871065D01*
X136168416Y-93003687D01*
X136003687Y-93168416D01*
X135871065Y-93359942D01*
X135820700Y-93465000D01*
X134895000Y-93465000D01*
X134895000Y-91890000D01*
X136465000Y-91890000D01*
X136465000Y-92820700D01*
G36*
X136465000Y-92820700D02*
G01*
X136359942Y-92871065D01*
X136168416Y-93003687D01*
X136003687Y-93168416D01*
X135871065Y-93359942D01*
X135820700Y-93465000D01*
X134895000Y-93465000D01*
X134895000Y-91890000D01*
X136465000Y-91890000D01*
X136465000Y-92820700D01*
G37*
X135871065Y-94640058D02*
X136003687Y-94831584D01*
X136168416Y-94996313D01*
X136359942Y-95128935D01*
X136465000Y-95179300D01*
X136465000Y-96110000D01*
X134895000Y-96110000D01*
X134895000Y-94535000D01*
X135820700Y-94535000D01*
X135871065Y-94640058D01*
G36*
X135871065Y-94640058D02*
G01*
X136003687Y-94831584D01*
X136168416Y-94996313D01*
X136359942Y-95128935D01*
X136465000Y-95179300D01*
X136465000Y-96110000D01*
X134895000Y-96110000D01*
X134895000Y-94535000D01*
X135820700Y-94535000D01*
X135871065Y-94640058D01*
G37*
X139105000Y-93465000D02*
X138179300Y-93465000D01*
X138128935Y-93359942D01*
X137996313Y-93168415D01*
X137831585Y-93003687D01*
X137640058Y-92871065D01*
X137535000Y-92820700D01*
X137535000Y-91890000D01*
X139105000Y-91890000D01*
X139105000Y-93465000D01*
G36*
X139105000Y-93465000D02*
G01*
X138179300Y-93465000D01*
X138128935Y-93359942D01*
X137996313Y-93168415D01*
X137831585Y-93003687D01*
X137640058Y-92871065D01*
X137535000Y-92820700D01*
X137535000Y-91890000D01*
X139105000Y-91890000D01*
X139105000Y-93465000D01*
G37*
X139105000Y-96110000D02*
X137535000Y-96110000D01*
X137535000Y-95179300D01*
X137640058Y-95128935D01*
X137831584Y-94996313D01*
X137996313Y-94831584D01*
X138128935Y-94640058D01*
X138179300Y-94535000D01*
X139105000Y-94535000D01*
X139105000Y-96110000D01*
G36*
X139105000Y-96110000D02*
G01*
X137535000Y-96110000D01*
X137535000Y-95179300D01*
X137640058Y-95128935D01*
X137831584Y-94996313D01*
X137996313Y-94831584D01*
X138128935Y-94640058D01*
X138179300Y-94535000D01*
X139105000Y-94535000D01*
X139105000Y-96110000D01*
G37*
%TD*%
D11*
%TO.C,D1*%
X156000000Y-90000000D03*
X155160000Y-90000000D03*
%TD*%
D12*
%TO.C,R5*%
X146000000Y-77912500D03*
X146000000Y-76087500D03*
%TD*%
D13*
%TO.C,C5*%
X135050000Y-72000000D03*
X136950000Y-72000000D03*
%TD*%
D14*
%TO.C,D3*%
X143000000Y-84000000D03*
X143840000Y-84000000D03*
%TD*%
D15*
%TO.C,D2*%
X148062500Y-95000000D03*
X149937500Y-95000000D03*
%TD*%
D13*
%TO.C,C8*%
X163100000Y-95000000D03*
X165000000Y-95000000D03*
%TD*%
%TO.C,C6*%
X163050000Y-91000000D03*
X164950000Y-91000000D03*
%TD*%
D16*
%TO.C,L1*%
X137000000Y-88000000D03*
X134875000Y-88000000D03*
%TD*%
D12*
%TO.C,R4*%
X150000000Y-75912500D03*
X150000000Y-74087500D03*
%TD*%
D17*
%TO.C,Q1*%
X147000000Y-87100000D03*
X147000000Y-89000000D03*
X148875000Y-88050000D03*
%TD*%
D13*
%TO.C,C1*%
X139000000Y-88000000D03*
X140900000Y-88000000D03*
%TD*%
%TO.C,C3*%
X135050000Y-80000000D03*
X136950000Y-80000000D03*
%TD*%
D18*
%TO.C,C2*%
X135000000Y-84950000D03*
X135000000Y-83050000D03*
%TD*%
D12*
%TO.C,R1*%
X135050000Y-76862500D03*
X135050000Y-75037500D03*
%TD*%
D19*
%TO.C,U1*%
X155150000Y-75600000D03*
X155150000Y-76700000D03*
X155150000Y-77800000D03*
X155150000Y-78900000D03*
X155150000Y-80000000D03*
X155150000Y-81100000D03*
X155150000Y-82200000D03*
X155150000Y-83300000D03*
X155150000Y-84400000D03*
X164850000Y-84400000D03*
X164850000Y-83300000D03*
X164850000Y-82200000D03*
X164850000Y-81100000D03*
X164850000Y-80000000D03*
X164850000Y-78900000D03*
X164850000Y-77800000D03*
X164850000Y-76700000D03*
X164850000Y-75600000D03*
%TD*%
D20*
%TO.C,J1*%
X137000000Y-94000000D03*
%TD*%
D21*
%TO.C,R3*%
X158175000Y-95000000D03*
X160000000Y-95000000D03*
%TD*%
D14*
%TO.C,D4*%
X143160000Y-81000000D03*
X144000000Y-81000000D03*
%TD*%
D22*
%TO.C,R2*%
X154000000Y-93087500D03*
X154000000Y-94912500D03*
%TD*%
M02*
