%TF.GenerationSoftware,KiCad,Pcbnew,8.0.8*%
%TF.CreationDate,2025-02-07T12:49:18+01:00*%
%TF.ProjectId,PGE_GPS_PCB,5047455f-4750-4535-9f50-43422e6b6963,rev?*%
%TF.SameCoordinates,Original*%
%TF.FileFunction,Legend,Top*%
%TF.FilePolarity,Positive*%
%FSLAX46Y46*%
G04 Gerber Fmt 4.6, Leading zero omitted, Abs format (unit mm)*
G04 Created by KiCad (PCBNEW 8.0.8) date 2025-02-07 12:49:18*
%MOMM*%
%LPD*%
G01*
G04 APERTURE LIST*
%ADD10C,0.150000*%
%ADD11C,0.120000*%
G04 APERTURE END LIST*
D10*
X154841905Y-91654819D02*
X154841905Y-90654819D01*
X154841905Y-90654819D02*
X155080000Y-90654819D01*
X155080000Y-90654819D02*
X155222857Y-90702438D01*
X155222857Y-90702438D02*
X155318095Y-90797676D01*
X155318095Y-90797676D02*
X155365714Y-90892914D01*
X155365714Y-90892914D02*
X155413333Y-91083390D01*
X155413333Y-91083390D02*
X155413333Y-91226247D01*
X155413333Y-91226247D02*
X155365714Y-91416723D01*
X155365714Y-91416723D02*
X155318095Y-91511961D01*
X155318095Y-91511961D02*
X155222857Y-91607200D01*
X155222857Y-91607200D02*
X155080000Y-91654819D01*
X155080000Y-91654819D02*
X154841905Y-91654819D01*
X156365714Y-91654819D02*
X155794286Y-91654819D01*
X156080000Y-91654819D02*
X156080000Y-90654819D01*
X156080000Y-90654819D02*
X155984762Y-90797676D01*
X155984762Y-90797676D02*
X155889524Y-90892914D01*
X155889524Y-90892914D02*
X155794286Y-90940533D01*
X144804819Y-77166666D02*
X144328628Y-77499999D01*
X144804819Y-77738094D02*
X143804819Y-77738094D01*
X143804819Y-77738094D02*
X143804819Y-77357142D01*
X143804819Y-77357142D02*
X143852438Y-77261904D01*
X143852438Y-77261904D02*
X143900057Y-77214285D01*
X143900057Y-77214285D02*
X143995295Y-77166666D01*
X143995295Y-77166666D02*
X144138152Y-77166666D01*
X144138152Y-77166666D02*
X144233390Y-77214285D01*
X144233390Y-77214285D02*
X144281009Y-77261904D01*
X144281009Y-77261904D02*
X144328628Y-77357142D01*
X144328628Y-77357142D02*
X144328628Y-77738094D01*
X143804819Y-76261904D02*
X143804819Y-76738094D01*
X143804819Y-76738094D02*
X144281009Y-76785713D01*
X144281009Y-76785713D02*
X144233390Y-76738094D01*
X144233390Y-76738094D02*
X144185771Y-76642856D01*
X144185771Y-76642856D02*
X144185771Y-76404761D01*
X144185771Y-76404761D02*
X144233390Y-76309523D01*
X144233390Y-76309523D02*
X144281009Y-76261904D01*
X144281009Y-76261904D02*
X144376247Y-76214285D01*
X144376247Y-76214285D02*
X144614342Y-76214285D01*
X144614342Y-76214285D02*
X144709580Y-76261904D01*
X144709580Y-76261904D02*
X144757200Y-76309523D01*
X144757200Y-76309523D02*
X144804819Y-76404761D01*
X144804819Y-76404761D02*
X144804819Y-76642856D01*
X144804819Y-76642856D02*
X144757200Y-76738094D01*
X144757200Y-76738094D02*
X144709580Y-76785713D01*
X135833333Y-70679580D02*
X135785714Y-70727200D01*
X135785714Y-70727200D02*
X135642857Y-70774819D01*
X135642857Y-70774819D02*
X135547619Y-70774819D01*
X135547619Y-70774819D02*
X135404762Y-70727200D01*
X135404762Y-70727200D02*
X135309524Y-70631961D01*
X135309524Y-70631961D02*
X135261905Y-70536723D01*
X135261905Y-70536723D02*
X135214286Y-70346247D01*
X135214286Y-70346247D02*
X135214286Y-70203390D01*
X135214286Y-70203390D02*
X135261905Y-70012914D01*
X135261905Y-70012914D02*
X135309524Y-69917676D01*
X135309524Y-69917676D02*
X135404762Y-69822438D01*
X135404762Y-69822438D02*
X135547619Y-69774819D01*
X135547619Y-69774819D02*
X135642857Y-69774819D01*
X135642857Y-69774819D02*
X135785714Y-69822438D01*
X135785714Y-69822438D02*
X135833333Y-69870057D01*
X136738095Y-69774819D02*
X136261905Y-69774819D01*
X136261905Y-69774819D02*
X136214286Y-70251009D01*
X136214286Y-70251009D02*
X136261905Y-70203390D01*
X136261905Y-70203390D02*
X136357143Y-70155771D01*
X136357143Y-70155771D02*
X136595238Y-70155771D01*
X136595238Y-70155771D02*
X136690476Y-70203390D01*
X136690476Y-70203390D02*
X136738095Y-70251009D01*
X136738095Y-70251009D02*
X136785714Y-70346247D01*
X136785714Y-70346247D02*
X136785714Y-70584342D01*
X136785714Y-70584342D02*
X136738095Y-70679580D01*
X136738095Y-70679580D02*
X136690476Y-70727200D01*
X136690476Y-70727200D02*
X136595238Y-70774819D01*
X136595238Y-70774819D02*
X136357143Y-70774819D01*
X136357143Y-70774819D02*
X136261905Y-70727200D01*
X136261905Y-70727200D02*
X136214286Y-70679580D01*
X142681905Y-83254819D02*
X142681905Y-82254819D01*
X142681905Y-82254819D02*
X142920000Y-82254819D01*
X142920000Y-82254819D02*
X143062857Y-82302438D01*
X143062857Y-82302438D02*
X143158095Y-82397676D01*
X143158095Y-82397676D02*
X143205714Y-82492914D01*
X143205714Y-82492914D02*
X143253333Y-82683390D01*
X143253333Y-82683390D02*
X143253333Y-82826247D01*
X143253333Y-82826247D02*
X143205714Y-83016723D01*
X143205714Y-83016723D02*
X143158095Y-83111961D01*
X143158095Y-83111961D02*
X143062857Y-83207200D01*
X143062857Y-83207200D02*
X142920000Y-83254819D01*
X142920000Y-83254819D02*
X142681905Y-83254819D01*
X143586667Y-82254819D02*
X144205714Y-82254819D01*
X144205714Y-82254819D02*
X143872381Y-82635771D01*
X143872381Y-82635771D02*
X144015238Y-82635771D01*
X144015238Y-82635771D02*
X144110476Y-82683390D01*
X144110476Y-82683390D02*
X144158095Y-82731009D01*
X144158095Y-82731009D02*
X144205714Y-82826247D01*
X144205714Y-82826247D02*
X144205714Y-83064342D01*
X144205714Y-83064342D02*
X144158095Y-83159580D01*
X144158095Y-83159580D02*
X144110476Y-83207200D01*
X144110476Y-83207200D02*
X144015238Y-83254819D01*
X144015238Y-83254819D02*
X143729524Y-83254819D01*
X143729524Y-83254819D02*
X143634286Y-83207200D01*
X143634286Y-83207200D02*
X143586667Y-83159580D01*
X148261905Y-93804819D02*
X148261905Y-92804819D01*
X148261905Y-92804819D02*
X148500000Y-92804819D01*
X148500000Y-92804819D02*
X148642857Y-92852438D01*
X148642857Y-92852438D02*
X148738095Y-92947676D01*
X148738095Y-92947676D02*
X148785714Y-93042914D01*
X148785714Y-93042914D02*
X148833333Y-93233390D01*
X148833333Y-93233390D02*
X148833333Y-93376247D01*
X148833333Y-93376247D02*
X148785714Y-93566723D01*
X148785714Y-93566723D02*
X148738095Y-93661961D01*
X148738095Y-93661961D02*
X148642857Y-93757200D01*
X148642857Y-93757200D02*
X148500000Y-93804819D01*
X148500000Y-93804819D02*
X148261905Y-93804819D01*
X149214286Y-92900057D02*
X149261905Y-92852438D01*
X149261905Y-92852438D02*
X149357143Y-92804819D01*
X149357143Y-92804819D02*
X149595238Y-92804819D01*
X149595238Y-92804819D02*
X149690476Y-92852438D01*
X149690476Y-92852438D02*
X149738095Y-92900057D01*
X149738095Y-92900057D02*
X149785714Y-92995295D01*
X149785714Y-92995295D02*
X149785714Y-93090533D01*
X149785714Y-93090533D02*
X149738095Y-93233390D01*
X149738095Y-93233390D02*
X149166667Y-93804819D01*
X149166667Y-93804819D02*
X149785714Y-93804819D01*
X163883333Y-93679580D02*
X163835714Y-93727200D01*
X163835714Y-93727200D02*
X163692857Y-93774819D01*
X163692857Y-93774819D02*
X163597619Y-93774819D01*
X163597619Y-93774819D02*
X163454762Y-93727200D01*
X163454762Y-93727200D02*
X163359524Y-93631961D01*
X163359524Y-93631961D02*
X163311905Y-93536723D01*
X163311905Y-93536723D02*
X163264286Y-93346247D01*
X163264286Y-93346247D02*
X163264286Y-93203390D01*
X163264286Y-93203390D02*
X163311905Y-93012914D01*
X163311905Y-93012914D02*
X163359524Y-92917676D01*
X163359524Y-92917676D02*
X163454762Y-92822438D01*
X163454762Y-92822438D02*
X163597619Y-92774819D01*
X163597619Y-92774819D02*
X163692857Y-92774819D01*
X163692857Y-92774819D02*
X163835714Y-92822438D01*
X163835714Y-92822438D02*
X163883333Y-92870057D01*
X164454762Y-93203390D02*
X164359524Y-93155771D01*
X164359524Y-93155771D02*
X164311905Y-93108152D01*
X164311905Y-93108152D02*
X164264286Y-93012914D01*
X164264286Y-93012914D02*
X164264286Y-92965295D01*
X164264286Y-92965295D02*
X164311905Y-92870057D01*
X164311905Y-92870057D02*
X164359524Y-92822438D01*
X164359524Y-92822438D02*
X164454762Y-92774819D01*
X164454762Y-92774819D02*
X164645238Y-92774819D01*
X164645238Y-92774819D02*
X164740476Y-92822438D01*
X164740476Y-92822438D02*
X164788095Y-92870057D01*
X164788095Y-92870057D02*
X164835714Y-92965295D01*
X164835714Y-92965295D02*
X164835714Y-93012914D01*
X164835714Y-93012914D02*
X164788095Y-93108152D01*
X164788095Y-93108152D02*
X164740476Y-93155771D01*
X164740476Y-93155771D02*
X164645238Y-93203390D01*
X164645238Y-93203390D02*
X164454762Y-93203390D01*
X164454762Y-93203390D02*
X164359524Y-93251009D01*
X164359524Y-93251009D02*
X164311905Y-93298628D01*
X164311905Y-93298628D02*
X164264286Y-93393866D01*
X164264286Y-93393866D02*
X164264286Y-93584342D01*
X164264286Y-93584342D02*
X164311905Y-93679580D01*
X164311905Y-93679580D02*
X164359524Y-93727200D01*
X164359524Y-93727200D02*
X164454762Y-93774819D01*
X164454762Y-93774819D02*
X164645238Y-93774819D01*
X164645238Y-93774819D02*
X164740476Y-93727200D01*
X164740476Y-93727200D02*
X164788095Y-93679580D01*
X164788095Y-93679580D02*
X164835714Y-93584342D01*
X164835714Y-93584342D02*
X164835714Y-93393866D01*
X164835714Y-93393866D02*
X164788095Y-93298628D01*
X164788095Y-93298628D02*
X164740476Y-93251009D01*
X164740476Y-93251009D02*
X164645238Y-93203390D01*
X163833333Y-89679580D02*
X163785714Y-89727200D01*
X163785714Y-89727200D02*
X163642857Y-89774819D01*
X163642857Y-89774819D02*
X163547619Y-89774819D01*
X163547619Y-89774819D02*
X163404762Y-89727200D01*
X163404762Y-89727200D02*
X163309524Y-89631961D01*
X163309524Y-89631961D02*
X163261905Y-89536723D01*
X163261905Y-89536723D02*
X163214286Y-89346247D01*
X163214286Y-89346247D02*
X163214286Y-89203390D01*
X163214286Y-89203390D02*
X163261905Y-89012914D01*
X163261905Y-89012914D02*
X163309524Y-88917676D01*
X163309524Y-88917676D02*
X163404762Y-88822438D01*
X163404762Y-88822438D02*
X163547619Y-88774819D01*
X163547619Y-88774819D02*
X163642857Y-88774819D01*
X163642857Y-88774819D02*
X163785714Y-88822438D01*
X163785714Y-88822438D02*
X163833333Y-88870057D01*
X164690476Y-88774819D02*
X164500000Y-88774819D01*
X164500000Y-88774819D02*
X164404762Y-88822438D01*
X164404762Y-88822438D02*
X164357143Y-88870057D01*
X164357143Y-88870057D02*
X164261905Y-89012914D01*
X164261905Y-89012914D02*
X164214286Y-89203390D01*
X164214286Y-89203390D02*
X164214286Y-89584342D01*
X164214286Y-89584342D02*
X164261905Y-89679580D01*
X164261905Y-89679580D02*
X164309524Y-89727200D01*
X164309524Y-89727200D02*
X164404762Y-89774819D01*
X164404762Y-89774819D02*
X164595238Y-89774819D01*
X164595238Y-89774819D02*
X164690476Y-89727200D01*
X164690476Y-89727200D02*
X164738095Y-89679580D01*
X164738095Y-89679580D02*
X164785714Y-89584342D01*
X164785714Y-89584342D02*
X164785714Y-89346247D01*
X164785714Y-89346247D02*
X164738095Y-89251009D01*
X164738095Y-89251009D02*
X164690476Y-89203390D01*
X164690476Y-89203390D02*
X164595238Y-89155771D01*
X164595238Y-89155771D02*
X164404762Y-89155771D01*
X164404762Y-89155771D02*
X164309524Y-89203390D01*
X164309524Y-89203390D02*
X164261905Y-89251009D01*
X164261905Y-89251009D02*
X164214286Y-89346247D01*
X135770833Y-90004819D02*
X135294643Y-90004819D01*
X135294643Y-90004819D02*
X135294643Y-89004819D01*
X136627976Y-90004819D02*
X136056548Y-90004819D01*
X136342262Y-90004819D02*
X136342262Y-89004819D01*
X136342262Y-89004819D02*
X136247024Y-89147676D01*
X136247024Y-89147676D02*
X136151786Y-89242914D01*
X136151786Y-89242914D02*
X136056548Y-89290533D01*
X148804819Y-75166666D02*
X148328628Y-75499999D01*
X148804819Y-75738094D02*
X147804819Y-75738094D01*
X147804819Y-75738094D02*
X147804819Y-75357142D01*
X147804819Y-75357142D02*
X147852438Y-75261904D01*
X147852438Y-75261904D02*
X147900057Y-75214285D01*
X147900057Y-75214285D02*
X147995295Y-75166666D01*
X147995295Y-75166666D02*
X148138152Y-75166666D01*
X148138152Y-75166666D02*
X148233390Y-75214285D01*
X148233390Y-75214285D02*
X148281009Y-75261904D01*
X148281009Y-75261904D02*
X148328628Y-75357142D01*
X148328628Y-75357142D02*
X148328628Y-75738094D01*
X148138152Y-74309523D02*
X148804819Y-74309523D01*
X147757200Y-74547618D02*
X148471485Y-74785713D01*
X148471485Y-74785713D02*
X148471485Y-74166666D01*
X147842261Y-86200057D02*
X147747023Y-86152438D01*
X147747023Y-86152438D02*
X147651785Y-86057200D01*
X147651785Y-86057200D02*
X147508928Y-85914342D01*
X147508928Y-85914342D02*
X147413690Y-85866723D01*
X147413690Y-85866723D02*
X147318452Y-85866723D01*
X147366071Y-86104819D02*
X147270833Y-86057200D01*
X147270833Y-86057200D02*
X147175595Y-85961961D01*
X147175595Y-85961961D02*
X147127976Y-85771485D01*
X147127976Y-85771485D02*
X147127976Y-85438152D01*
X147127976Y-85438152D02*
X147175595Y-85247676D01*
X147175595Y-85247676D02*
X147270833Y-85152438D01*
X147270833Y-85152438D02*
X147366071Y-85104819D01*
X147366071Y-85104819D02*
X147556547Y-85104819D01*
X147556547Y-85104819D02*
X147651785Y-85152438D01*
X147651785Y-85152438D02*
X147747023Y-85247676D01*
X147747023Y-85247676D02*
X147794642Y-85438152D01*
X147794642Y-85438152D02*
X147794642Y-85771485D01*
X147794642Y-85771485D02*
X147747023Y-85961961D01*
X147747023Y-85961961D02*
X147651785Y-86057200D01*
X147651785Y-86057200D02*
X147556547Y-86104819D01*
X147556547Y-86104819D02*
X147366071Y-86104819D01*
X148747023Y-86104819D02*
X148175595Y-86104819D01*
X148461309Y-86104819D02*
X148461309Y-85104819D01*
X148461309Y-85104819D02*
X148366071Y-85247676D01*
X148366071Y-85247676D02*
X148270833Y-85342914D01*
X148270833Y-85342914D02*
X148175595Y-85390533D01*
X139783333Y-86679580D02*
X139735714Y-86727200D01*
X139735714Y-86727200D02*
X139592857Y-86774819D01*
X139592857Y-86774819D02*
X139497619Y-86774819D01*
X139497619Y-86774819D02*
X139354762Y-86727200D01*
X139354762Y-86727200D02*
X139259524Y-86631961D01*
X139259524Y-86631961D02*
X139211905Y-86536723D01*
X139211905Y-86536723D02*
X139164286Y-86346247D01*
X139164286Y-86346247D02*
X139164286Y-86203390D01*
X139164286Y-86203390D02*
X139211905Y-86012914D01*
X139211905Y-86012914D02*
X139259524Y-85917676D01*
X139259524Y-85917676D02*
X139354762Y-85822438D01*
X139354762Y-85822438D02*
X139497619Y-85774819D01*
X139497619Y-85774819D02*
X139592857Y-85774819D01*
X139592857Y-85774819D02*
X139735714Y-85822438D01*
X139735714Y-85822438D02*
X139783333Y-85870057D01*
X140735714Y-86774819D02*
X140164286Y-86774819D01*
X140450000Y-86774819D02*
X140450000Y-85774819D01*
X140450000Y-85774819D02*
X140354762Y-85917676D01*
X140354762Y-85917676D02*
X140259524Y-86012914D01*
X140259524Y-86012914D02*
X140164286Y-86060533D01*
X135833333Y-80359580D02*
X135785714Y-80407200D01*
X135785714Y-80407200D02*
X135642857Y-80454819D01*
X135642857Y-80454819D02*
X135547619Y-80454819D01*
X135547619Y-80454819D02*
X135404762Y-80407200D01*
X135404762Y-80407200D02*
X135309524Y-80311961D01*
X135309524Y-80311961D02*
X135261905Y-80216723D01*
X135261905Y-80216723D02*
X135214286Y-80026247D01*
X135214286Y-80026247D02*
X135214286Y-79883390D01*
X135214286Y-79883390D02*
X135261905Y-79692914D01*
X135261905Y-79692914D02*
X135309524Y-79597676D01*
X135309524Y-79597676D02*
X135404762Y-79502438D01*
X135404762Y-79502438D02*
X135547619Y-79454819D01*
X135547619Y-79454819D02*
X135642857Y-79454819D01*
X135642857Y-79454819D02*
X135785714Y-79502438D01*
X135785714Y-79502438D02*
X135833333Y-79550057D01*
X136166667Y-79454819D02*
X136785714Y-79454819D01*
X136785714Y-79454819D02*
X136452381Y-79835771D01*
X136452381Y-79835771D02*
X136595238Y-79835771D01*
X136595238Y-79835771D02*
X136690476Y-79883390D01*
X136690476Y-79883390D02*
X136738095Y-79931009D01*
X136738095Y-79931009D02*
X136785714Y-80026247D01*
X136785714Y-80026247D02*
X136785714Y-80264342D01*
X136785714Y-80264342D02*
X136738095Y-80359580D01*
X136738095Y-80359580D02*
X136690476Y-80407200D01*
X136690476Y-80407200D02*
X136595238Y-80454819D01*
X136595238Y-80454819D02*
X136309524Y-80454819D01*
X136309524Y-80454819D02*
X136214286Y-80407200D01*
X136214286Y-80407200D02*
X136166667Y-80359580D01*
X133679580Y-84166666D02*
X133727200Y-84214285D01*
X133727200Y-84214285D02*
X133774819Y-84357142D01*
X133774819Y-84357142D02*
X133774819Y-84452380D01*
X133774819Y-84452380D02*
X133727200Y-84595237D01*
X133727200Y-84595237D02*
X133631961Y-84690475D01*
X133631961Y-84690475D02*
X133536723Y-84738094D01*
X133536723Y-84738094D02*
X133346247Y-84785713D01*
X133346247Y-84785713D02*
X133203390Y-84785713D01*
X133203390Y-84785713D02*
X133012914Y-84738094D01*
X133012914Y-84738094D02*
X132917676Y-84690475D01*
X132917676Y-84690475D02*
X132822438Y-84595237D01*
X132822438Y-84595237D02*
X132774819Y-84452380D01*
X132774819Y-84452380D02*
X132774819Y-84357142D01*
X132774819Y-84357142D02*
X132822438Y-84214285D01*
X132822438Y-84214285D02*
X132870057Y-84166666D01*
X132870057Y-83785713D02*
X132822438Y-83738094D01*
X132822438Y-83738094D02*
X132774819Y-83642856D01*
X132774819Y-83642856D02*
X132774819Y-83404761D01*
X132774819Y-83404761D02*
X132822438Y-83309523D01*
X132822438Y-83309523D02*
X132870057Y-83261904D01*
X132870057Y-83261904D02*
X132965295Y-83214285D01*
X132965295Y-83214285D02*
X133060533Y-83214285D01*
X133060533Y-83214285D02*
X133203390Y-83261904D01*
X133203390Y-83261904D02*
X133774819Y-83833332D01*
X133774819Y-83833332D02*
X133774819Y-83214285D01*
X133854819Y-76116666D02*
X133378628Y-76449999D01*
X133854819Y-76688094D02*
X132854819Y-76688094D01*
X132854819Y-76688094D02*
X132854819Y-76307142D01*
X132854819Y-76307142D02*
X132902438Y-76211904D01*
X132902438Y-76211904D02*
X132950057Y-76164285D01*
X132950057Y-76164285D02*
X133045295Y-76116666D01*
X133045295Y-76116666D02*
X133188152Y-76116666D01*
X133188152Y-76116666D02*
X133283390Y-76164285D01*
X133283390Y-76164285D02*
X133331009Y-76211904D01*
X133331009Y-76211904D02*
X133378628Y-76307142D01*
X133378628Y-76307142D02*
X133378628Y-76688094D01*
X133854819Y-75164285D02*
X133854819Y-75735713D01*
X133854819Y-75449999D02*
X132854819Y-75449999D01*
X132854819Y-75449999D02*
X132997676Y-75545237D01*
X132997676Y-75545237D02*
X133092914Y-75640475D01*
X133092914Y-75640475D02*
X133140533Y-75735713D01*
X159238095Y-73654819D02*
X159238095Y-74464342D01*
X159238095Y-74464342D02*
X159285714Y-74559580D01*
X159285714Y-74559580D02*
X159333333Y-74607200D01*
X159333333Y-74607200D02*
X159428571Y-74654819D01*
X159428571Y-74654819D02*
X159619047Y-74654819D01*
X159619047Y-74654819D02*
X159714285Y-74607200D01*
X159714285Y-74607200D02*
X159761904Y-74559580D01*
X159761904Y-74559580D02*
X159809523Y-74464342D01*
X159809523Y-74464342D02*
X159809523Y-73654819D01*
X160809523Y-74654819D02*
X160238095Y-74654819D01*
X160523809Y-74654819D02*
X160523809Y-73654819D01*
X160523809Y-73654819D02*
X160428571Y-73797676D01*
X160428571Y-73797676D02*
X160333333Y-73892914D01*
X160333333Y-73892914D02*
X160238095Y-73940533D01*
X136666666Y-90704819D02*
X136666666Y-91419104D01*
X136666666Y-91419104D02*
X136619047Y-91561961D01*
X136619047Y-91561961D02*
X136523809Y-91657200D01*
X136523809Y-91657200D02*
X136380952Y-91704819D01*
X136380952Y-91704819D02*
X136285714Y-91704819D01*
X137666666Y-91704819D02*
X137095238Y-91704819D01*
X137380952Y-91704819D02*
X137380952Y-90704819D01*
X137380952Y-90704819D02*
X137285714Y-90847676D01*
X137285714Y-90847676D02*
X137190476Y-90942914D01*
X137190476Y-90942914D02*
X137095238Y-90990533D01*
X158920833Y-93804819D02*
X158587500Y-93328628D01*
X158349405Y-93804819D02*
X158349405Y-92804819D01*
X158349405Y-92804819D02*
X158730357Y-92804819D01*
X158730357Y-92804819D02*
X158825595Y-92852438D01*
X158825595Y-92852438D02*
X158873214Y-92900057D01*
X158873214Y-92900057D02*
X158920833Y-92995295D01*
X158920833Y-92995295D02*
X158920833Y-93138152D01*
X158920833Y-93138152D02*
X158873214Y-93233390D01*
X158873214Y-93233390D02*
X158825595Y-93281009D01*
X158825595Y-93281009D02*
X158730357Y-93328628D01*
X158730357Y-93328628D02*
X158349405Y-93328628D01*
X159254167Y-92804819D02*
X159873214Y-92804819D01*
X159873214Y-92804819D02*
X159539881Y-93185771D01*
X159539881Y-93185771D02*
X159682738Y-93185771D01*
X159682738Y-93185771D02*
X159777976Y-93233390D01*
X159777976Y-93233390D02*
X159825595Y-93281009D01*
X159825595Y-93281009D02*
X159873214Y-93376247D01*
X159873214Y-93376247D02*
X159873214Y-93614342D01*
X159873214Y-93614342D02*
X159825595Y-93709580D01*
X159825595Y-93709580D02*
X159777976Y-93757200D01*
X159777976Y-93757200D02*
X159682738Y-93804819D01*
X159682738Y-93804819D02*
X159397024Y-93804819D01*
X159397024Y-93804819D02*
X159301786Y-93757200D01*
X159301786Y-93757200D02*
X159254167Y-93709580D01*
X139504819Y-69333333D02*
X140219104Y-69333333D01*
X140219104Y-69333333D02*
X140361961Y-69380952D01*
X140361961Y-69380952D02*
X140457200Y-69476190D01*
X140457200Y-69476190D02*
X140504819Y-69619047D01*
X140504819Y-69619047D02*
X140504819Y-69714285D01*
X139504819Y-68952380D02*
X139504819Y-68333333D01*
X139504819Y-68333333D02*
X139885771Y-68666666D01*
X139885771Y-68666666D02*
X139885771Y-68523809D01*
X139885771Y-68523809D02*
X139933390Y-68428571D01*
X139933390Y-68428571D02*
X139981009Y-68380952D01*
X139981009Y-68380952D02*
X140076247Y-68333333D01*
X140076247Y-68333333D02*
X140314342Y-68333333D01*
X140314342Y-68333333D02*
X140409580Y-68380952D01*
X140409580Y-68380952D02*
X140457200Y-68428571D01*
X140457200Y-68428571D02*
X140504819Y-68523809D01*
X140504819Y-68523809D02*
X140504819Y-68809523D01*
X140504819Y-68809523D02*
X140457200Y-68904761D01*
X140457200Y-68904761D02*
X140409580Y-68952380D01*
X142841905Y-80254819D02*
X142841905Y-79254819D01*
X142841905Y-79254819D02*
X143080000Y-79254819D01*
X143080000Y-79254819D02*
X143222857Y-79302438D01*
X143222857Y-79302438D02*
X143318095Y-79397676D01*
X143318095Y-79397676D02*
X143365714Y-79492914D01*
X143365714Y-79492914D02*
X143413333Y-79683390D01*
X143413333Y-79683390D02*
X143413333Y-79826247D01*
X143413333Y-79826247D02*
X143365714Y-80016723D01*
X143365714Y-80016723D02*
X143318095Y-80111961D01*
X143318095Y-80111961D02*
X143222857Y-80207200D01*
X143222857Y-80207200D02*
X143080000Y-80254819D01*
X143080000Y-80254819D02*
X142841905Y-80254819D01*
X144270476Y-79588152D02*
X144270476Y-80254819D01*
X144032381Y-79207200D02*
X143794286Y-79921485D01*
X143794286Y-79921485D02*
X144413333Y-79921485D01*
X156104819Y-94166666D02*
X155628628Y-94499999D01*
X156104819Y-94738094D02*
X155104819Y-94738094D01*
X155104819Y-94738094D02*
X155104819Y-94357142D01*
X155104819Y-94357142D02*
X155152438Y-94261904D01*
X155152438Y-94261904D02*
X155200057Y-94214285D01*
X155200057Y-94214285D02*
X155295295Y-94166666D01*
X155295295Y-94166666D02*
X155438152Y-94166666D01*
X155438152Y-94166666D02*
X155533390Y-94214285D01*
X155533390Y-94214285D02*
X155581009Y-94261904D01*
X155581009Y-94261904D02*
X155628628Y-94357142D01*
X155628628Y-94357142D02*
X155628628Y-94738094D01*
X155200057Y-93785713D02*
X155152438Y-93738094D01*
X155152438Y-93738094D02*
X155104819Y-93642856D01*
X155104819Y-93642856D02*
X155104819Y-93404761D01*
X155104819Y-93404761D02*
X155152438Y-93309523D01*
X155152438Y-93309523D02*
X155200057Y-93261904D01*
X155200057Y-93261904D02*
X155295295Y-93214285D01*
X155295295Y-93214285D02*
X155390533Y-93214285D01*
X155390533Y-93214285D02*
X155533390Y-93261904D01*
X155533390Y-93261904D02*
X156104819Y-93833332D01*
X156104819Y-93833332D02*
X156104819Y-93214285D01*
D11*
%TO.C,D1*%
X155080000Y-89600000D02*
X156440000Y-89600000D01*
X155080000Y-90400000D02*
X156440000Y-90400000D01*
X156440000Y-90400000D02*
X156440000Y-89600000D01*
%TO.C,R5*%
X145265000Y-77227064D02*
X145265000Y-76772936D01*
X146735000Y-77227064D02*
X146735000Y-76772936D01*
%TO.C,C5*%
X135738748Y-71265000D02*
X136261252Y-71265000D01*
X135738748Y-72735000D02*
X136261252Y-72735000D01*
%TO.C,D3*%
X142560000Y-83600000D02*
X142560000Y-84400000D01*
X143920000Y-83600000D02*
X142560000Y-83600000D01*
X143920000Y-84400000D02*
X142560000Y-84400000D01*
%TO.C,D2*%
X147315000Y-94040000D02*
X147315000Y-95960000D01*
X147315000Y-95960000D02*
X150000000Y-95960000D01*
X150000000Y-94040000D02*
X147315000Y-94040000D01*
%TO.C,C8*%
X163788748Y-94265000D02*
X164311252Y-94265000D01*
X163788748Y-95735000D02*
X164311252Y-95735000D01*
%TO.C,C6*%
X163738748Y-90265000D02*
X164261252Y-90265000D01*
X163738748Y-91735000D02*
X164261252Y-91735000D01*
%TO.C,L1*%
X136337122Y-87440000D02*
X135537878Y-87440000D01*
X136337122Y-88560000D02*
X135537878Y-88560000D01*
%TO.C,R4*%
X149265000Y-75227064D02*
X149265000Y-74772936D01*
X150735000Y-75227064D02*
X150735000Y-74772936D01*
%TO.C,Q1*%
X147937500Y-86490000D02*
X147287500Y-86490000D01*
X147937500Y-86490000D02*
X148587500Y-86490000D01*
X147937500Y-89610000D02*
X147287500Y-89610000D01*
X147937500Y-89610000D02*
X148587500Y-89610000D01*
X146775000Y-86540000D02*
X146535000Y-86210000D01*
X147015000Y-86210000D01*
X146775000Y-86540000D01*
G36*
X146775000Y-86540000D02*
G01*
X146535000Y-86210000D01*
X147015000Y-86210000D01*
X146775000Y-86540000D01*
G37*
%TO.C,C1*%
X139688748Y-87265000D02*
X140211252Y-87265000D01*
X139688748Y-88735000D02*
X140211252Y-88735000D01*
%TO.C,C3*%
X135738748Y-79265000D02*
X136261252Y-79265000D01*
X135738748Y-80735000D02*
X136261252Y-80735000D01*
%TO.C,C2*%
X134265000Y-84261252D02*
X134265000Y-83738748D01*
X135735000Y-84261252D02*
X135735000Y-83738748D01*
%TO.C,R1*%
X134315000Y-76177064D02*
X134315000Y-75722936D01*
X135785000Y-76177064D02*
X135785000Y-75722936D01*
%TO.C,U1*%
X155050000Y-74930000D02*
X155050000Y-74850000D01*
X155050000Y-85070000D02*
X155050000Y-85150000D01*
X155050000Y-85150000D02*
X164950000Y-85150000D01*
X164950000Y-74850000D02*
X155050000Y-74850000D01*
X164950000Y-74930000D02*
X164950000Y-74850000D01*
X164950000Y-85070000D02*
X164950000Y-85150000D01*
X154660000Y-74940000D02*
X154420000Y-74610000D01*
X154900000Y-74610000D01*
X154660000Y-74940000D01*
G36*
X154660000Y-74940000D02*
G01*
X154420000Y-74610000D01*
X154900000Y-74610000D01*
X154660000Y-74940000D01*
G37*
%TO.C,J1*%
X136800000Y-92150000D02*
X137200000Y-92150000D01*
X137200000Y-95850000D02*
X136800000Y-95850000D01*
%TO.C,R3*%
X158860436Y-94265000D02*
X159314564Y-94265000D01*
X158860436Y-95735000D02*
X159314564Y-95735000D01*
%TO.C,J3*%
X141050000Y-70330000D02*
X141050000Y-69000000D01*
X142380000Y-70330000D02*
X141050000Y-70330000D01*
X143650000Y-67670000D02*
X156410000Y-67670000D01*
X143650000Y-70330000D02*
X143650000Y-67670000D01*
X143650000Y-70330000D02*
X156410000Y-70330000D01*
X156410000Y-70330000D02*
X156410000Y-67670000D01*
%TO.C,D4*%
X142720000Y-80600000D02*
X142720000Y-81400000D01*
X144080000Y-80600000D02*
X142720000Y-80600000D01*
X144080000Y-81400000D02*
X142720000Y-81400000D01*
%TO.C,R2*%
X153265000Y-93772936D02*
X153265000Y-94227064D01*
X154735000Y-93772936D02*
X154735000Y-94227064D01*
%TD*%
M02*
