<?xml version="1.0" encoding="UTF-8" standalone="no"?>
<!-- Created with Inkscape (http://www.inkscape.org/) -->

<svg
   width="47.135624mm"
   height="50.400543mm"
   viewBox="0 0 47.135624 50.400543"
   version="1.1"
   id="svg1"
   xml:space="preserve"
   inkscape:version="1.3.2 (091e20e, 2023-11-25, custom)"
   sodipodi:docname="logo_PGE.svg"
   xmlns:inkscape="http://www.inkscape.org/namespaces/inkscape"
   xmlns:sodipodi="http://sodipodi.sourceforge.net/DTD/sodipodi-0.dtd"
   xmlns="http://www.w3.org/2000/svg"
   xmlns:svg="http://www.w3.org/2000/svg"><sodipodi:namedview
     id="namedview1"
     pagecolor="#ffffff"
     bordercolor="#666666"
     borderopacity="1.0"
     inkscape:showpageshadow="2"
     inkscape:pageopacity="0.0"
     inkscape:pagecheckerboard="0"
     inkscape:deskcolor="#d1d1d1"
     inkscape:document-units="mm"
     inkscape:zoom="2.8284271"
     inkscape:cx="620.83975"
     inkscape:cy="365.39743"
     inkscape:window-width="1920"
     inkscape:window-height="991"
     inkscape:window-x="-9"
     inkscape:window-y="-9"
     inkscape:window-maximized="1"
     inkscape:current-layer="layer1" /><defs
     id="defs1" /><g
     inkscape:label="Calque 1"
     inkscape:groupmode="layer"
     id="layer1"
     transform="translate(-147.11815,-75.328733)"><path
       id="path1"
       style="fill:#000000;fill-opacity:1;stroke-width:0.0472917;stroke-linecap:round;stroke-linejoin:round;paint-order:fill markers stroke"
       d="m 170.67175,75.328735 a 7.6693096,7.6693096 0 0 0 -5.98206,2.873727 7.6693096,7.6693096 0 0 0 -6.6182,0.502295 7.6693096,7.6693096 0 0 0 -3.74396,5.480285 7.6693096,7.6693096 0 0 0 -5.47977,3.743958 7.6693096,7.6693096 0 0 0 -0.89917,3.235461 7.679959,7.6822333 0 0 0 -0.0904,0.91519 7.679959,7.6822333 0 0 0 1.06453,3.888135 12.088039,13.431155 60 0 1 0.84956,-0.585494 12.088039,13.431155 60 0 1 7.3055,-1.966805 12.088039,13.431155 60 0 1 5.66425,1.323433 7.679959,7.6822333 0 0 0 0.47594,-2.659269 7.679959,7.6822333 0 0 0 -0.0258,-0.261483 4.3849869,4.3117619 0 0 0 2.19521,-0.870748 6.2841043,6.1791658 0 0 0 5.28392,2.834969 6.2841043,6.1791658 0 0 0 5.29321,-2.850988 4.3849869,4.3117619 0 0 0 2.21486,0.887801 7.679959,7.6822333 0 0 0 -0.0258,0.260449 7.679959,7.6822333 0 0 0 0.55965,2.708362 13.431155,12.088039 30 0 1 -0.005,-0.03566 13.431155,12.088039 30 0 1 5.66167,-1.336353 13.431155,12.088039 30 0 1 7.30757,1.952853 13.431155,12.088039 30 0 1 0.81235,0.542602 7.679959,7.6822333 0 0 0 1.02371,-3.831807 7.6693096,7.6693096 0 0 0 -1.01751,-4.150651 7.6693096,7.6693096 0 0 0 -5.48338,-3.744991 7.6693096,7.6693096 0 0 0 -3.74034,-5.479252 7.6693096,7.6693096 0 0 0 -6.6182,-0.502295 7.6693096,7.6693096 0 0 0 -5.98207,-2.873727 z m -5.33714,20.75739 a 1.4865623,1.4865623 0 0 0 -1.48673,1.486214 1.4865623,1.4865623 0 0 0 1.48673,1.486731 1.4865623,1.4865623 0 0 0 1.48673,-1.486731 1.4865623,1.4865623 0 0 0 -1.48673,-1.486214 z m 10.70219,0 a 1.4865623,1.4865623 0 0 0 -1.48673,1.486214 1.4865623,1.4865623 0 0 0 1.48673,1.486731 1.4865623,1.4865623 0 0 0 1.48673,-1.486731 1.4865623,1.4865623 0 0 0 -1.48673,-1.486214 z m -21.16925,0.594279 a 6.5396759,7.2663067 60 0 0 -3.95221,1.064017 6.5396759,7.2663067 60 0 0 -3.79719,5.909719 6.5396759,7.2663067 60 0 0 7.01663,-0.33383 6.5396759,7.2663067 60 0 0 3.7977,-5.923671 6.5396759,7.2663067 60 0 0 -3.06493,-0.716235 z m 31.62339,0.0021 a 7.2663067,6.5396759 30 0 0 -3.06286,0.722953 7.2663067,6.5396759 30 0 0 3.79718,5.909193 7.2663067,6.5396759 30 0 0 7.02852,0.32763 7.2663067,6.5396759 30 0 0 -3.80959,-5.902993 7.2663067,6.5396759 30 0 0 -3.95325,-1.056783 z m -25.8377,4.332546 a 12.095212,11.972554 75 0 1 -7.63622,6.42907 12.095212,11.972554 75 0 1 -4.98006,0.22841 7.6693096,7.6693096 0 0 0 0.8108,5.45651 7.6693096,7.6693096 0 0 0 5.54282,3.75068 7.6693096,7.6693096 0 0 0 3.68091,5.47357 7.6693096,7.6693096 0 0 0 6.6182,0.50229 7.6693096,7.6693096 0 0 0 5.98206,2.87373 7.6693096,7.6693096 0 0 0 5.98207,-2.87373 7.6693096,7.6693096 0 0 0 6.6182,-0.50229 7.6693096,7.6693096 0 0 0 3.74395,-5.48029 7.6693096,7.6693096 0 0 0 5.47977,-3.74396 7.6693096,7.6693096 0 0 0 0.84336,-5.47615 11.972554,12.095212 15 0 1 -5.03587,-0.21549 11.972554,12.095212 15 0 1 -7.62847,-6.41201 c -1.51428,1.05994 -2.84117,1.96026 -2.84117,2.84995 v 6.08697 c 0,1.98401 -3.19436,7.16287 -7.16235,7.16287 -3.96803,0 -7.16236,-5.17886 -7.16236,-7.16287 v -6.08697 c 0,-0.89253 -1.33526,-1.79588 -2.85564,-2.86029 z m 12.1729,4.52169 c -0.15547,0.004 -0.31269,0.0462 -0.45733,0.12971 l -1.6831,0.97203 -1.68311,-0.97203 c -0.14464,-0.0835 -0.30138,-0.12499 -0.45682,-0.12919 -0.34198,-0.009 -0.67772,0.16445 -0.86144,0.48266 -0.26723,0.46282 -0.10938,1.05051 0.35347,1.31774 l 2.06085,1.1896 v 3.78839 h -0.39687 c -0.50845,0 -0.91778,0.40933 -0.91778,0.91778 0,0.50844 0.40933,0.91777 0.91778,0.91777 h 1.96783 c 0.50845,0 0.91778,-0.40933 0.91778,-0.91777 0,-0.50845 -0.40933,-0.91778 -0.91778,-0.91778 h -0.39687 v -3.78839 l 2.06086,-1.1896 c 0.46285,-0.26723 0.62069,-0.85492 0.35346,-1.31774 -0.18371,-0.31821 -0.5189,-0.49237 -0.86093,-0.48318 z"
       inkscape:export-filename="..\..\Downloads\PGE_logo.svg"
       inkscape:export-xdpi="389"
       inkscape:export-ydpi="389" /></g></svg>
