M48
; DRILL file {KiCad 8.0.8} date 2025-01-27T11:39:43+0100
; FORMAT={-:-/ absolute / inch / decimal}
; #@! TF.CreationDate,2025-01-27T11:39:43+01:00
; #@! TF.GenerationSoftware,Kicad,Pcbnew,8.0.8
; #@! TF.FileFunction,Plated,1,2,PTH
FMAT,2
INCH
; #@! TA.AperFunction,Plated,PTH,ViaDrill
T1C0.0118
; #@! TA.AperFunction,Plated,PTH,ViaDrill
T2C0.0157
; #@! TA.AperFunction,Plated,PTH,ComponentDrill
T3C0.0374
; #@! TA.AperFunction,Plated,PTH,ComponentDrill
T4C0.0394
; #@! TA.AperFunction,Plated,PTH,ComponentDrill
T5C0.0551
%
G90
G05
T1
X3.7854Y-4.7631
X3.8918Y-4.6518
X4.2224Y-3.5827
X4.2904Y-3.0598
X4.3431Y-4.1187
X4.5222Y-4.0385
X4.5264Y-3.3945
X4.6099Y-3.9751
X4.6337Y-3.9324
X4.681Y-4.0023
X4.6876Y-4.6558
X4.6896Y-3.1718
X4.7269Y-3.1423
X4.7608Y-3.2308
X4.7846Y-3.7715
X4.8186Y-3.3677
X4.82Y-3.5433
X4.8437Y-3.6417
X4.8479Y-3.8904
X4.8736Y-4.0636
X4.8736Y-4.2824
X4.8752Y-3.7302
X4.8799Y-2.824
X4.9047Y-3.7458
X4.9055Y-4.167
X4.9331Y-3.974
X4.9984Y-3.7371
X4.9984Y-3.9369
X5.0792Y-3.5433
X5.0792Y-3.9802
X5.0974Y-3.599
X5.1211Y-3.4536
X5.1318Y-3.4193
X5.1398Y-3.6369
X5.2443Y-3.3988
X5.3182Y-3.8154
X5.3557Y-3.7624
T2
X5.3543Y-3.0709
X5.9055Y-4.2913
X5.9406Y-2.9959
X6.1811Y-3.2283
T3
X4.8386Y-4.6535
X4.937Y-4.6535
X5.0354Y-4.6535
X5.1339Y-4.6535
X5.2323Y-4.6535
X5.3307Y-4.6535
T4
X3.7264Y-3.8189
X3.7264Y-3.9189
X3.7264Y-4.0189
X3.7264Y-4.1189
X4.0354Y-3.7992
X4.0354Y-3.8992
X4.0354Y-3.9992
X4.0354Y-4.0992
X4.0701Y-2.7953
X4.1185Y-4.4094
X4.1701Y-2.7953
X4.2185Y-4.4094
X4.2701Y-2.7953
X4.3185Y-4.4094
X4.3701Y-2.7953
X4.4185Y-4.4094
X4.5185Y-4.4094
X4.6185Y-4.4094
X5.4168Y-2.5656
X5.4168Y-3.5656
X5.5168Y-2.5656
X5.5168Y-3.5656
X5.6168Y-2.5656
X5.6168Y-3.5656
X5.7168Y-2.5656
X5.7168Y-3.5656
X5.8168Y-2.5656
X5.8168Y-3.5656
X5.9168Y-3.5656
X6.0168Y-3.5656
X6.1168Y-3.5656
X6.1986Y-3.8189
X6.2168Y-3.5656
X6.2986Y-3.8189
X6.3986Y-3.8189
T5
X6.2402Y-4.6161
X6.437Y-4.6161
M30
