%TF.GenerationSoftware,KiCad,Pcbnew,8.0.8*%
%TF.CreationDate,2025-01-27T11:39:41+01:00*%
%TF.ProjectId,PGE_PCB,5047455f-5043-4422-9e6b-696361645f70,rev?*%
%TF.SameCoordinates,Original*%
%TF.FileFunction,Drillmap*%
%TF.FilePolarity,Positive*%
%FSLAX45Y45*%
G04 Gerber Fmt 4.5, Leading zero omitted, Abs format (unit mm)*
G04 Created by KiCad (PCBNEW 8.0.8) date 2025-01-27 11:39:41*
%MOMM*%
%LPD*%
G01*
G04 APERTURE LIST*
%ADD10C,0.050000*%
%ADD11C,0.200000*%
%ADD12C,0.100000*%
G04 APERTURE END LIST*
D10*
X9100000Y-6300000D02*
X16800000Y-6300000D01*
X16800000Y-12450000D01*
X9100000Y-12450000D01*
X9100000Y-6300000D01*
D11*
D12*
X11295000Y-9760000D02*
X11385000Y-9850000D01*
X11385000Y-9760000D02*
X11295000Y-9850000D01*
X11295000Y-9955000D02*
X11385000Y-10045000D01*
X11385000Y-9955000D02*
X11295000Y-10045000D01*
D11*
X9358277Y-12763984D02*
X9358277Y-12563984D01*
X9358277Y-12563984D02*
X9405896Y-12563984D01*
X9405896Y-12563984D02*
X9434467Y-12573508D01*
X9434467Y-12573508D02*
X9453515Y-12592555D01*
X9453515Y-12592555D02*
X9463039Y-12611603D01*
X9463039Y-12611603D02*
X9472563Y-12649698D01*
X9472563Y-12649698D02*
X9472563Y-12678269D01*
X9472563Y-12678269D02*
X9463039Y-12716365D01*
X9463039Y-12716365D02*
X9453515Y-12735412D01*
X9453515Y-12735412D02*
X9434467Y-12754460D01*
X9434467Y-12754460D02*
X9405896Y-12763984D01*
X9405896Y-12763984D02*
X9358277Y-12763984D01*
X9558277Y-12763984D02*
X9558277Y-12630650D01*
X9558277Y-12668746D02*
X9567801Y-12649698D01*
X9567801Y-12649698D02*
X9577324Y-12640174D01*
X9577324Y-12640174D02*
X9596372Y-12630650D01*
X9596372Y-12630650D02*
X9615420Y-12630650D01*
X9682086Y-12763984D02*
X9682086Y-12630650D01*
X9682086Y-12563984D02*
X9672563Y-12573508D01*
X9672563Y-12573508D02*
X9682086Y-12583031D01*
X9682086Y-12583031D02*
X9691610Y-12573508D01*
X9691610Y-12573508D02*
X9682086Y-12563984D01*
X9682086Y-12563984D02*
X9682086Y-12583031D01*
X9805896Y-12763984D02*
X9786848Y-12754460D01*
X9786848Y-12754460D02*
X9777324Y-12735412D01*
X9777324Y-12735412D02*
X9777324Y-12563984D01*
X9910658Y-12763984D02*
X9891610Y-12754460D01*
X9891610Y-12754460D02*
X9882086Y-12735412D01*
X9882086Y-12735412D02*
X9882086Y-12563984D01*
X10139229Y-12763984D02*
X10139229Y-12563984D01*
X10139229Y-12563984D02*
X10205896Y-12706841D01*
X10205896Y-12706841D02*
X10272563Y-12563984D01*
X10272563Y-12563984D02*
X10272563Y-12763984D01*
X10453515Y-12763984D02*
X10453515Y-12659222D01*
X10453515Y-12659222D02*
X10443991Y-12640174D01*
X10443991Y-12640174D02*
X10424944Y-12630650D01*
X10424944Y-12630650D02*
X10386848Y-12630650D01*
X10386848Y-12630650D02*
X10367801Y-12640174D01*
X10453515Y-12754460D02*
X10434467Y-12763984D01*
X10434467Y-12763984D02*
X10386848Y-12763984D01*
X10386848Y-12763984D02*
X10367801Y-12754460D01*
X10367801Y-12754460D02*
X10358277Y-12735412D01*
X10358277Y-12735412D02*
X10358277Y-12716365D01*
X10358277Y-12716365D02*
X10367801Y-12697317D01*
X10367801Y-12697317D02*
X10386848Y-12687793D01*
X10386848Y-12687793D02*
X10434467Y-12687793D01*
X10434467Y-12687793D02*
X10453515Y-12678269D01*
X10548753Y-12630650D02*
X10548753Y-12830650D01*
X10548753Y-12640174D02*
X10567801Y-12630650D01*
X10567801Y-12630650D02*
X10605896Y-12630650D01*
X10605896Y-12630650D02*
X10624944Y-12640174D01*
X10624944Y-12640174D02*
X10634467Y-12649698D01*
X10634467Y-12649698D02*
X10643991Y-12668746D01*
X10643991Y-12668746D02*
X10643991Y-12725888D01*
X10643991Y-12725888D02*
X10634467Y-12744936D01*
X10634467Y-12744936D02*
X10624944Y-12754460D01*
X10624944Y-12754460D02*
X10605896Y-12763984D01*
X10605896Y-12763984D02*
X10567801Y-12763984D01*
X10567801Y-12763984D02*
X10548753Y-12754460D01*
X10729705Y-12744936D02*
X10739229Y-12754460D01*
X10739229Y-12754460D02*
X10729705Y-12763984D01*
X10729705Y-12763984D02*
X10720182Y-12754460D01*
X10720182Y-12754460D02*
X10729705Y-12744936D01*
X10729705Y-12744936D02*
X10729705Y-12763984D01*
X10729705Y-12640174D02*
X10739229Y-12649698D01*
X10739229Y-12649698D02*
X10729705Y-12659222D01*
X10729705Y-12659222D02*
X10720182Y-12649698D01*
X10720182Y-12649698D02*
X10729705Y-12640174D01*
X10729705Y-12640174D02*
X10729705Y-12659222D01*
D12*
X9007500Y-13047500D02*
X9097500Y-13137500D01*
X9097500Y-13047500D02*
X9007500Y-13137500D01*
D11*
X9396372Y-12983984D02*
X9415420Y-12983984D01*
X9415420Y-12983984D02*
X9434467Y-12993508D01*
X9434467Y-12993508D02*
X9443991Y-13003031D01*
X9443991Y-13003031D02*
X9453515Y-13022079D01*
X9453515Y-13022079D02*
X9463039Y-13060174D01*
X9463039Y-13060174D02*
X9463039Y-13107793D01*
X9463039Y-13107793D02*
X9453515Y-13145888D01*
X9453515Y-13145888D02*
X9443991Y-13164936D01*
X9443991Y-13164936D02*
X9434467Y-13174460D01*
X9434467Y-13174460D02*
X9415420Y-13183984D01*
X9415420Y-13183984D02*
X9396372Y-13183984D01*
X9396372Y-13183984D02*
X9377324Y-13174460D01*
X9377324Y-13174460D02*
X9367801Y-13164936D01*
X9367801Y-13164936D02*
X9358277Y-13145888D01*
X9358277Y-13145888D02*
X9348753Y-13107793D01*
X9348753Y-13107793D02*
X9348753Y-13060174D01*
X9348753Y-13060174D02*
X9358277Y-13022079D01*
X9358277Y-13022079D02*
X9367801Y-13003031D01*
X9367801Y-13003031D02*
X9377324Y-12993508D01*
X9377324Y-12993508D02*
X9396372Y-12983984D01*
X9548753Y-13164936D02*
X9558277Y-13174460D01*
X9558277Y-13174460D02*
X9548753Y-13183984D01*
X9548753Y-13183984D02*
X9539229Y-13174460D01*
X9539229Y-13174460D02*
X9548753Y-13164936D01*
X9548753Y-13164936D02*
X9548753Y-13183984D01*
X9653515Y-13183984D02*
X9691610Y-13183984D01*
X9691610Y-13183984D02*
X9710658Y-13174460D01*
X9710658Y-13174460D02*
X9720182Y-13164936D01*
X9720182Y-13164936D02*
X9739229Y-13136365D01*
X9739229Y-13136365D02*
X9748753Y-13098269D01*
X9748753Y-13098269D02*
X9748753Y-13022079D01*
X9748753Y-13022079D02*
X9739229Y-13003031D01*
X9739229Y-13003031D02*
X9729705Y-12993508D01*
X9729705Y-12993508D02*
X9710658Y-12983984D01*
X9710658Y-12983984D02*
X9672563Y-12983984D01*
X9672563Y-12983984D02*
X9653515Y-12993508D01*
X9653515Y-12993508D02*
X9643991Y-13003031D01*
X9643991Y-13003031D02*
X9634467Y-13022079D01*
X9634467Y-13022079D02*
X9634467Y-13069698D01*
X9634467Y-13069698D02*
X9643991Y-13088746D01*
X9643991Y-13088746D02*
X9653515Y-13098269D01*
X9653515Y-13098269D02*
X9672563Y-13107793D01*
X9672563Y-13107793D02*
X9710658Y-13107793D01*
X9710658Y-13107793D02*
X9729705Y-13098269D01*
X9729705Y-13098269D02*
X9739229Y-13088746D01*
X9739229Y-13088746D02*
X9748753Y-13069698D01*
X9872563Y-12983984D02*
X9891610Y-12983984D01*
X9891610Y-12983984D02*
X9910658Y-12993508D01*
X9910658Y-12993508D02*
X9920182Y-13003031D01*
X9920182Y-13003031D02*
X9929705Y-13022079D01*
X9929705Y-13022079D02*
X9939229Y-13060174D01*
X9939229Y-13060174D02*
X9939229Y-13107793D01*
X9939229Y-13107793D02*
X9929705Y-13145888D01*
X9929705Y-13145888D02*
X9920182Y-13164936D01*
X9920182Y-13164936D02*
X9910658Y-13174460D01*
X9910658Y-13174460D02*
X9891610Y-13183984D01*
X9891610Y-13183984D02*
X9872563Y-13183984D01*
X9872563Y-13183984D02*
X9853515Y-13174460D01*
X9853515Y-13174460D02*
X9843991Y-13164936D01*
X9843991Y-13164936D02*
X9834467Y-13145888D01*
X9834467Y-13145888D02*
X9824944Y-13107793D01*
X9824944Y-13107793D02*
X9824944Y-13060174D01*
X9824944Y-13060174D02*
X9834467Y-13022079D01*
X9834467Y-13022079D02*
X9843991Y-13003031D01*
X9843991Y-13003031D02*
X9853515Y-12993508D01*
X9853515Y-12993508D02*
X9872563Y-12983984D01*
X10063039Y-12983984D02*
X10082086Y-12983984D01*
X10082086Y-12983984D02*
X10101134Y-12993508D01*
X10101134Y-12993508D02*
X10110658Y-13003031D01*
X10110658Y-13003031D02*
X10120182Y-13022079D01*
X10120182Y-13022079D02*
X10129705Y-13060174D01*
X10129705Y-13060174D02*
X10129705Y-13107793D01*
X10129705Y-13107793D02*
X10120182Y-13145888D01*
X10120182Y-13145888D02*
X10110658Y-13164936D01*
X10110658Y-13164936D02*
X10101134Y-13174460D01*
X10101134Y-13174460D02*
X10082086Y-13183984D01*
X10082086Y-13183984D02*
X10063039Y-13183984D01*
X10063039Y-13183984D02*
X10043991Y-13174460D01*
X10043991Y-13174460D02*
X10034467Y-13164936D01*
X10034467Y-13164936D02*
X10024944Y-13145888D01*
X10024944Y-13145888D02*
X10015420Y-13107793D01*
X10015420Y-13107793D02*
X10015420Y-13060174D01*
X10015420Y-13060174D02*
X10024944Y-13022079D01*
X10024944Y-13022079D02*
X10034467Y-13003031D01*
X10034467Y-13003031D02*
X10043991Y-12993508D01*
X10043991Y-12993508D02*
X10063039Y-12983984D01*
X10215420Y-13183984D02*
X10215420Y-13050650D01*
X10215420Y-13069698D02*
X10224944Y-13060174D01*
X10224944Y-13060174D02*
X10243991Y-13050650D01*
X10243991Y-13050650D02*
X10272563Y-13050650D01*
X10272563Y-13050650D02*
X10291610Y-13060174D01*
X10291610Y-13060174D02*
X10301134Y-13079222D01*
X10301134Y-13079222D02*
X10301134Y-13183984D01*
X10301134Y-13079222D02*
X10310658Y-13060174D01*
X10310658Y-13060174D02*
X10329705Y-13050650D01*
X10329705Y-13050650D02*
X10358277Y-13050650D01*
X10358277Y-13050650D02*
X10377325Y-13060174D01*
X10377325Y-13060174D02*
X10386848Y-13079222D01*
X10386848Y-13079222D02*
X10386848Y-13183984D01*
X10482086Y-13183984D02*
X10482086Y-13050650D01*
X10482086Y-13069698D02*
X10491610Y-13060174D01*
X10491610Y-13060174D02*
X10510658Y-13050650D01*
X10510658Y-13050650D02*
X10539229Y-13050650D01*
X10539229Y-13050650D02*
X10558277Y-13060174D01*
X10558277Y-13060174D02*
X10567801Y-13079222D01*
X10567801Y-13079222D02*
X10567801Y-13183984D01*
X10567801Y-13079222D02*
X10577325Y-13060174D01*
X10577325Y-13060174D02*
X10596372Y-13050650D01*
X10596372Y-13050650D02*
X10624944Y-13050650D01*
X10624944Y-13050650D02*
X10643991Y-13060174D01*
X10643991Y-13060174D02*
X10653515Y-13079222D01*
X10653515Y-13079222D02*
X10653515Y-13183984D01*
X11043991Y-12974460D02*
X10872563Y-13231603D01*
X11301134Y-12983984D02*
X11320182Y-12983984D01*
X11320182Y-12983984D02*
X11339229Y-12993508D01*
X11339229Y-12993508D02*
X11348753Y-13003031D01*
X11348753Y-13003031D02*
X11358277Y-13022079D01*
X11358277Y-13022079D02*
X11367801Y-13060174D01*
X11367801Y-13060174D02*
X11367801Y-13107793D01*
X11367801Y-13107793D02*
X11358277Y-13145888D01*
X11358277Y-13145888D02*
X11348753Y-13164936D01*
X11348753Y-13164936D02*
X11339229Y-13174460D01*
X11339229Y-13174460D02*
X11320182Y-13183984D01*
X11320182Y-13183984D02*
X11301134Y-13183984D01*
X11301134Y-13183984D02*
X11282086Y-13174460D01*
X11282086Y-13174460D02*
X11272563Y-13164936D01*
X11272563Y-13164936D02*
X11263039Y-13145888D01*
X11263039Y-13145888D02*
X11253515Y-13107793D01*
X11253515Y-13107793D02*
X11253515Y-13060174D01*
X11253515Y-13060174D02*
X11263039Y-13022079D01*
X11263039Y-13022079D02*
X11272563Y-13003031D01*
X11272563Y-13003031D02*
X11282086Y-12993508D01*
X11282086Y-12993508D02*
X11301134Y-12983984D01*
X11453515Y-13164936D02*
X11463039Y-13174460D01*
X11463039Y-13174460D02*
X11453515Y-13183984D01*
X11453515Y-13183984D02*
X11443991Y-13174460D01*
X11443991Y-13174460D02*
X11453515Y-13164936D01*
X11453515Y-13164936D02*
X11453515Y-13183984D01*
X11586848Y-12983984D02*
X11605896Y-12983984D01*
X11605896Y-12983984D02*
X11624944Y-12993508D01*
X11624944Y-12993508D02*
X11634467Y-13003031D01*
X11634467Y-13003031D02*
X11643991Y-13022079D01*
X11643991Y-13022079D02*
X11653515Y-13060174D01*
X11653515Y-13060174D02*
X11653515Y-13107793D01*
X11653515Y-13107793D02*
X11643991Y-13145888D01*
X11643991Y-13145888D02*
X11634467Y-13164936D01*
X11634467Y-13164936D02*
X11624944Y-13174460D01*
X11624944Y-13174460D02*
X11605896Y-13183984D01*
X11605896Y-13183984D02*
X11586848Y-13183984D01*
X11586848Y-13183984D02*
X11567801Y-13174460D01*
X11567801Y-13174460D02*
X11558277Y-13164936D01*
X11558277Y-13164936D02*
X11548753Y-13145888D01*
X11548753Y-13145888D02*
X11539229Y-13107793D01*
X11539229Y-13107793D02*
X11539229Y-13060174D01*
X11539229Y-13060174D02*
X11548753Y-13022079D01*
X11548753Y-13022079D02*
X11558277Y-13003031D01*
X11558277Y-13003031D02*
X11567801Y-12993508D01*
X11567801Y-12993508D02*
X11586848Y-12983984D01*
X11720182Y-12983984D02*
X11843991Y-12983984D01*
X11843991Y-12983984D02*
X11777325Y-13060174D01*
X11777325Y-13060174D02*
X11805896Y-13060174D01*
X11805896Y-13060174D02*
X11824944Y-13069698D01*
X11824944Y-13069698D02*
X11834467Y-13079222D01*
X11834467Y-13079222D02*
X11843991Y-13098269D01*
X11843991Y-13098269D02*
X11843991Y-13145888D01*
X11843991Y-13145888D02*
X11834467Y-13164936D01*
X11834467Y-13164936D02*
X11824944Y-13174460D01*
X11824944Y-13174460D02*
X11805896Y-13183984D01*
X11805896Y-13183984D02*
X11748753Y-13183984D01*
X11748753Y-13183984D02*
X11729706Y-13174460D01*
X11729706Y-13174460D02*
X11720182Y-13164936D01*
X12024944Y-12983984D02*
X11929706Y-12983984D01*
X11929706Y-12983984D02*
X11920182Y-13079222D01*
X11920182Y-13079222D02*
X11929706Y-13069698D01*
X11929706Y-13069698D02*
X11948753Y-13060174D01*
X11948753Y-13060174D02*
X11996372Y-13060174D01*
X11996372Y-13060174D02*
X12015420Y-13069698D01*
X12015420Y-13069698D02*
X12024944Y-13079222D01*
X12024944Y-13079222D02*
X12034467Y-13098269D01*
X12034467Y-13098269D02*
X12034467Y-13145888D01*
X12034467Y-13145888D02*
X12024944Y-13164936D01*
X12024944Y-13164936D02*
X12015420Y-13174460D01*
X12015420Y-13174460D02*
X11996372Y-13183984D01*
X11996372Y-13183984D02*
X11948753Y-13183984D01*
X11948753Y-13183984D02*
X11929706Y-13174460D01*
X11929706Y-13174460D02*
X11920182Y-13164936D01*
X12205896Y-13050650D02*
X12205896Y-13183984D01*
X12158277Y-12974460D02*
X12110658Y-13117317D01*
X12110658Y-13117317D02*
X12234467Y-13117317D01*
X12301134Y-12983984D02*
X12301134Y-13022079D01*
X12377325Y-12983984D02*
X12377325Y-13022079D01*
X12672563Y-13260174D02*
X12663039Y-13250650D01*
X12663039Y-13250650D02*
X12643991Y-13222079D01*
X12643991Y-13222079D02*
X12634468Y-13203031D01*
X12634468Y-13203031D02*
X12624944Y-13174460D01*
X12624944Y-13174460D02*
X12615420Y-13126841D01*
X12615420Y-13126841D02*
X12615420Y-13088746D01*
X12615420Y-13088746D02*
X12624944Y-13041127D01*
X12624944Y-13041127D02*
X12634468Y-13012555D01*
X12634468Y-13012555D02*
X12643991Y-12993508D01*
X12643991Y-12993508D02*
X12663039Y-12964936D01*
X12663039Y-12964936D02*
X12672563Y-12955412D01*
X12739229Y-13003031D02*
X12748753Y-12993508D01*
X12748753Y-12993508D02*
X12767801Y-12983984D01*
X12767801Y-12983984D02*
X12815420Y-12983984D01*
X12815420Y-12983984D02*
X12834468Y-12993508D01*
X12834468Y-12993508D02*
X12843991Y-13003031D01*
X12843991Y-13003031D02*
X12853515Y-13022079D01*
X12853515Y-13022079D02*
X12853515Y-13041127D01*
X12853515Y-13041127D02*
X12843991Y-13069698D01*
X12843991Y-13069698D02*
X12729706Y-13183984D01*
X12729706Y-13183984D02*
X12853515Y-13183984D01*
X13091610Y-13183984D02*
X13091610Y-12983984D01*
X13177325Y-13183984D02*
X13177325Y-13079222D01*
X13177325Y-13079222D02*
X13167801Y-13060174D01*
X13167801Y-13060174D02*
X13148753Y-13050650D01*
X13148753Y-13050650D02*
X13120182Y-13050650D01*
X13120182Y-13050650D02*
X13101134Y-13060174D01*
X13101134Y-13060174D02*
X13091610Y-13069698D01*
X13301134Y-13183984D02*
X13282087Y-13174460D01*
X13282087Y-13174460D02*
X13272563Y-13164936D01*
X13272563Y-13164936D02*
X13263039Y-13145888D01*
X13263039Y-13145888D02*
X13263039Y-13088746D01*
X13263039Y-13088746D02*
X13272563Y-13069698D01*
X13272563Y-13069698D02*
X13282087Y-13060174D01*
X13282087Y-13060174D02*
X13301134Y-13050650D01*
X13301134Y-13050650D02*
X13329706Y-13050650D01*
X13329706Y-13050650D02*
X13348753Y-13060174D01*
X13348753Y-13060174D02*
X13358277Y-13069698D01*
X13358277Y-13069698D02*
X13367801Y-13088746D01*
X13367801Y-13088746D02*
X13367801Y-13145888D01*
X13367801Y-13145888D02*
X13358277Y-13164936D01*
X13358277Y-13164936D02*
X13348753Y-13174460D01*
X13348753Y-13174460D02*
X13329706Y-13183984D01*
X13329706Y-13183984D02*
X13301134Y-13183984D01*
X13482087Y-13183984D02*
X13463039Y-13174460D01*
X13463039Y-13174460D02*
X13453515Y-13155412D01*
X13453515Y-13155412D02*
X13453515Y-12983984D01*
X13634468Y-13174460D02*
X13615420Y-13183984D01*
X13615420Y-13183984D02*
X13577325Y-13183984D01*
X13577325Y-13183984D02*
X13558277Y-13174460D01*
X13558277Y-13174460D02*
X13548753Y-13155412D01*
X13548753Y-13155412D02*
X13548753Y-13079222D01*
X13548753Y-13079222D02*
X13558277Y-13060174D01*
X13558277Y-13060174D02*
X13577325Y-13050650D01*
X13577325Y-13050650D02*
X13615420Y-13050650D01*
X13615420Y-13050650D02*
X13634468Y-13060174D01*
X13634468Y-13060174D02*
X13643991Y-13079222D01*
X13643991Y-13079222D02*
X13643991Y-13098269D01*
X13643991Y-13098269D02*
X13548753Y-13117317D01*
X13720182Y-13174460D02*
X13739230Y-13183984D01*
X13739230Y-13183984D02*
X13777325Y-13183984D01*
X13777325Y-13183984D02*
X13796372Y-13174460D01*
X13796372Y-13174460D02*
X13805896Y-13155412D01*
X13805896Y-13155412D02*
X13805896Y-13145888D01*
X13805896Y-13145888D02*
X13796372Y-13126841D01*
X13796372Y-13126841D02*
X13777325Y-13117317D01*
X13777325Y-13117317D02*
X13748753Y-13117317D01*
X13748753Y-13117317D02*
X13729706Y-13107793D01*
X13729706Y-13107793D02*
X13720182Y-13088746D01*
X13720182Y-13088746D02*
X13720182Y-13079222D01*
X13720182Y-13079222D02*
X13729706Y-13060174D01*
X13729706Y-13060174D02*
X13748753Y-13050650D01*
X13748753Y-13050650D02*
X13777325Y-13050650D01*
X13777325Y-13050650D02*
X13796372Y-13060174D01*
X13872563Y-13260174D02*
X13882087Y-13250650D01*
X13882087Y-13250650D02*
X13901134Y-13222079D01*
X13901134Y-13222079D02*
X13910658Y-13203031D01*
X13910658Y-13203031D02*
X13920182Y-13174460D01*
X13920182Y-13174460D02*
X13929706Y-13126841D01*
X13929706Y-13126841D02*
X13929706Y-13088746D01*
X13929706Y-13088746D02*
X13920182Y-13041127D01*
X13920182Y-13041127D02*
X13910658Y-13012555D01*
X13910658Y-13012555D02*
X13901134Y-12993508D01*
X13901134Y-12993508D02*
X13882087Y-12964936D01*
X13882087Y-12964936D02*
X13872563Y-12955412D01*
X14234468Y-13260174D02*
X14224944Y-13250650D01*
X14224944Y-13250650D02*
X14205896Y-13222079D01*
X14205896Y-13222079D02*
X14196372Y-13203031D01*
X14196372Y-13203031D02*
X14186849Y-13174460D01*
X14186849Y-13174460D02*
X14177325Y-13126841D01*
X14177325Y-13126841D02*
X14177325Y-13088746D01*
X14177325Y-13088746D02*
X14186849Y-13041127D01*
X14186849Y-13041127D02*
X14196372Y-13012555D01*
X14196372Y-13012555D02*
X14205896Y-12993508D01*
X14205896Y-12993508D02*
X14224944Y-12964936D01*
X14224944Y-12964936D02*
X14234468Y-12955412D01*
X14310658Y-13050650D02*
X14310658Y-13183984D01*
X14310658Y-13069698D02*
X14320182Y-13060174D01*
X14320182Y-13060174D02*
X14339230Y-13050650D01*
X14339230Y-13050650D02*
X14367801Y-13050650D01*
X14367801Y-13050650D02*
X14386849Y-13060174D01*
X14386849Y-13060174D02*
X14396372Y-13079222D01*
X14396372Y-13079222D02*
X14396372Y-13183984D01*
X14520182Y-13183984D02*
X14501134Y-13174460D01*
X14501134Y-13174460D02*
X14491611Y-13164936D01*
X14491611Y-13164936D02*
X14482087Y-13145888D01*
X14482087Y-13145888D02*
X14482087Y-13088746D01*
X14482087Y-13088746D02*
X14491611Y-13069698D01*
X14491611Y-13069698D02*
X14501134Y-13060174D01*
X14501134Y-13060174D02*
X14520182Y-13050650D01*
X14520182Y-13050650D02*
X14548753Y-13050650D01*
X14548753Y-13050650D02*
X14567801Y-13060174D01*
X14567801Y-13060174D02*
X14577325Y-13069698D01*
X14577325Y-13069698D02*
X14586849Y-13088746D01*
X14586849Y-13088746D02*
X14586849Y-13145888D01*
X14586849Y-13145888D02*
X14577325Y-13164936D01*
X14577325Y-13164936D02*
X14567801Y-13174460D01*
X14567801Y-13174460D02*
X14548753Y-13183984D01*
X14548753Y-13183984D02*
X14520182Y-13183984D01*
X14643992Y-13050650D02*
X14720182Y-13050650D01*
X14672563Y-12983984D02*
X14672563Y-13155412D01*
X14672563Y-13155412D02*
X14682087Y-13174460D01*
X14682087Y-13174460D02*
X14701134Y-13183984D01*
X14701134Y-13183984D02*
X14720182Y-13183984D01*
X14939230Y-13050650D02*
X14939230Y-13250650D01*
X14939230Y-13060174D02*
X14958277Y-13050650D01*
X14958277Y-13050650D02*
X14996373Y-13050650D01*
X14996373Y-13050650D02*
X15015420Y-13060174D01*
X15015420Y-13060174D02*
X15024944Y-13069698D01*
X15024944Y-13069698D02*
X15034468Y-13088746D01*
X15034468Y-13088746D02*
X15034468Y-13145888D01*
X15034468Y-13145888D02*
X15024944Y-13164936D01*
X15024944Y-13164936D02*
X15015420Y-13174460D01*
X15015420Y-13174460D02*
X14996373Y-13183984D01*
X14996373Y-13183984D02*
X14958277Y-13183984D01*
X14958277Y-13183984D02*
X14939230Y-13174460D01*
X15148753Y-13183984D02*
X15129706Y-13174460D01*
X15129706Y-13174460D02*
X15120182Y-13155412D01*
X15120182Y-13155412D02*
X15120182Y-12983984D01*
X15310658Y-13183984D02*
X15310658Y-13079222D01*
X15310658Y-13079222D02*
X15301134Y-13060174D01*
X15301134Y-13060174D02*
X15282087Y-13050650D01*
X15282087Y-13050650D02*
X15243992Y-13050650D01*
X15243992Y-13050650D02*
X15224944Y-13060174D01*
X15310658Y-13174460D02*
X15291611Y-13183984D01*
X15291611Y-13183984D02*
X15243992Y-13183984D01*
X15243992Y-13183984D02*
X15224944Y-13174460D01*
X15224944Y-13174460D02*
X15215420Y-13155412D01*
X15215420Y-13155412D02*
X15215420Y-13136365D01*
X15215420Y-13136365D02*
X15224944Y-13117317D01*
X15224944Y-13117317D02*
X15243992Y-13107793D01*
X15243992Y-13107793D02*
X15291611Y-13107793D01*
X15291611Y-13107793D02*
X15310658Y-13098269D01*
X15377325Y-13050650D02*
X15453515Y-13050650D01*
X15405896Y-12983984D02*
X15405896Y-13155412D01*
X15405896Y-13155412D02*
X15415420Y-13174460D01*
X15415420Y-13174460D02*
X15434468Y-13183984D01*
X15434468Y-13183984D02*
X15453515Y-13183984D01*
X15596373Y-13174460D02*
X15577325Y-13183984D01*
X15577325Y-13183984D02*
X15539230Y-13183984D01*
X15539230Y-13183984D02*
X15520182Y-13174460D01*
X15520182Y-13174460D02*
X15510658Y-13155412D01*
X15510658Y-13155412D02*
X15510658Y-13079222D01*
X15510658Y-13079222D02*
X15520182Y-13060174D01*
X15520182Y-13060174D02*
X15539230Y-13050650D01*
X15539230Y-13050650D02*
X15577325Y-13050650D01*
X15577325Y-13050650D02*
X15596373Y-13060174D01*
X15596373Y-13060174D02*
X15605896Y-13079222D01*
X15605896Y-13079222D02*
X15605896Y-13098269D01*
X15605896Y-13098269D02*
X15510658Y-13117317D01*
X15777325Y-13183984D02*
X15777325Y-12983984D01*
X15777325Y-13174460D02*
X15758277Y-13183984D01*
X15758277Y-13183984D02*
X15720182Y-13183984D01*
X15720182Y-13183984D02*
X15701134Y-13174460D01*
X15701134Y-13174460D02*
X15691611Y-13164936D01*
X15691611Y-13164936D02*
X15682087Y-13145888D01*
X15682087Y-13145888D02*
X15682087Y-13088746D01*
X15682087Y-13088746D02*
X15691611Y-13069698D01*
X15691611Y-13069698D02*
X15701134Y-13060174D01*
X15701134Y-13060174D02*
X15720182Y-13050650D01*
X15720182Y-13050650D02*
X15758277Y-13050650D01*
X15758277Y-13050650D02*
X15777325Y-13060174D01*
X15853515Y-13260174D02*
X15863039Y-13250650D01*
X15863039Y-13250650D02*
X15882087Y-13222079D01*
X15882087Y-13222079D02*
X15891611Y-13203031D01*
X15891611Y-13203031D02*
X15901134Y-13174460D01*
X15901134Y-13174460D02*
X15910658Y-13126841D01*
X15910658Y-13126841D02*
X15910658Y-13088746D01*
X15910658Y-13088746D02*
X15901134Y-13041127D01*
X15901134Y-13041127D02*
X15891611Y-13012555D01*
X15891611Y-13012555D02*
X15882087Y-12993508D01*
X15882087Y-12993508D02*
X15863039Y-12964936D01*
X15863039Y-12964936D02*
X15853515Y-12955412D01*
M02*
