%TF.GenerationSoftware,KiCad,Pcbnew,8.0.8*%
%TF.CreationDate,2025-01-27T11:39:49+01:00*%
%TF.ProjectId,PGE_PCB,5047455f-5043-4422-9e6b-696361645f70,rev?*%
%TF.SameCoordinates,Original*%
%TF.FileFunction,Copper,L2,Bot*%
%TF.FilePolarity,Positive*%
%FSLAX46Y46*%
G04 Gerber Fmt 4.6, Leading zero omitted, Abs format (unit mm)*
G04 Created by KiCad (PCBNEW 8.0.8) date 2025-01-27 11:39:49*
%MOMM*%
%LPD*%
G01*
G04 APERTURE LIST*
G04 Aperture macros list*
%AMRoundRect*
0 Rectangle with rounded corners*
0 $1 Rounding radius*
0 $2 $3 $4 $5 $6 $7 $8 $9 X,Y pos of 4 corners*
0 Add a 4 corners polygon primitive as box body*
4,1,4,$2,$3,$4,$5,$6,$7,$8,$9,$2,$3,0*
0 Add four circle primitives for the rounded corners*
1,1,$1+$1,$2,$3*
1,1,$1+$1,$4,$5*
1,1,$1+$1,$6,$7*
1,1,$1+$1,$8,$9*
0 Add four rect primitives between the rounded corners*
20,1,$1+$1,$2,$3,$4,$5,0*
20,1,$1+$1,$4,$5,$6,$7,0*
20,1,$1+$1,$6,$7,$8,$9,0*
20,1,$1+$1,$8,$9,$2,$3,0*%
G04 Aperture macros list end*
%TA.AperFunction,ComponentPad*%
%ADD10RoundRect,0.250000X-0.600000X-0.725000X0.600000X-0.725000X0.600000X0.725000X-0.600000X0.725000X0*%
%TD*%
%TA.AperFunction,ComponentPad*%
%ADD11O,1.700000X1.950000*%
%TD*%
%TA.AperFunction,ComponentPad*%
%ADD12R,1.700000X1.700000*%
%TD*%
%TA.AperFunction,ComponentPad*%
%ADD13O,1.700000X1.700000*%
%TD*%
%TA.AperFunction,ComponentPad*%
%ADD14C,1.778000*%
%TD*%
%TA.AperFunction,SMDPad,CuDef*%
%ADD15R,0.380000X1.000000*%
%TD*%
%TA.AperFunction,SMDPad,CuDef*%
%ADD16R,0.700000X1.150000*%
%TD*%
%TA.AperFunction,ComponentPad*%
%ADD17R,2.800000X2.800000*%
%TD*%
%TA.AperFunction,ComponentPad*%
%ADD18C,2.800000*%
%TD*%
%TA.AperFunction,SMDPad,CuDef*%
%ADD19RoundRect,0.243750X-0.243750X-0.456250X0.243750X-0.456250X0.243750X0.456250X-0.243750X0.456250X0*%
%TD*%
%TA.AperFunction,SMDPad,CuDef*%
%ADD20RoundRect,0.250000X0.250000X0.475000X-0.250000X0.475000X-0.250000X-0.475000X0.250000X-0.475000X0*%
%TD*%
%TA.AperFunction,SMDPad,CuDef*%
%ADD21RoundRect,0.250000X0.262500X0.450000X-0.262500X0.450000X-0.262500X-0.450000X0.262500X-0.450000X0*%
%TD*%
%TA.AperFunction,SMDPad,CuDef*%
%ADD22RoundRect,0.250000X0.650000X-1.000000X0.650000X1.000000X-0.650000X1.000000X-0.650000X-1.000000X0*%
%TD*%
%TA.AperFunction,SMDPad,CuDef*%
%ADD23RoundRect,0.150000X0.512500X0.150000X-0.512500X0.150000X-0.512500X-0.150000X0.512500X-0.150000X0*%
%TD*%
%TA.AperFunction,SMDPad,CuDef*%
%ADD24RoundRect,0.250000X-0.250000X-0.475000X0.250000X-0.475000X0.250000X0.475000X-0.250000X0.475000X0*%
%TD*%
%TA.AperFunction,SMDPad,CuDef*%
%ADD25RoundRect,0.100000X0.225000X0.100000X-0.225000X0.100000X-0.225000X-0.100000X0.225000X-0.100000X0*%
%TD*%
%TA.AperFunction,SMDPad,CuDef*%
%ADD26RoundRect,0.250000X0.475000X-0.250000X0.475000X0.250000X-0.475000X0.250000X-0.475000X-0.250000X0*%
%TD*%
%TA.AperFunction,SMDPad,CuDef*%
%ADD27RoundRect,0.250000X-0.475000X0.250000X-0.475000X-0.250000X0.475000X-0.250000X0.475000X0.250000X0*%
%TD*%
%TA.AperFunction,SMDPad,CuDef*%
%ADD28RoundRect,0.243750X0.243750X0.456250X-0.243750X0.456250X-0.243750X-0.456250X0.243750X-0.456250X0*%
%TD*%
%TA.AperFunction,SMDPad,CuDef*%
%ADD29RoundRect,0.250000X0.450000X-0.262500X0.450000X0.262500X-0.450000X0.262500X-0.450000X-0.262500X0*%
%TD*%
%TA.AperFunction,SMDPad,CuDef*%
%ADD30RoundRect,0.250000X-0.262500X-0.450000X0.262500X-0.450000X0.262500X0.450000X-0.262500X0.450000X0*%
%TD*%
%TA.AperFunction,SMDPad,CuDef*%
%ADD31RoundRect,0.250000X-0.450000X0.262500X-0.450000X-0.262500X0.450000X-0.262500X0.450000X0.262500X0*%
%TD*%
%TA.AperFunction,SMDPad,CuDef*%
%ADD32RoundRect,0.243750X-0.456250X0.243750X-0.456250X-0.243750X0.456250X-0.243750X0.456250X0.243750X0*%
%TD*%
%TA.AperFunction,SMDPad,CuDef*%
%ADD33RoundRect,0.150000X0.825000X0.150000X-0.825000X0.150000X-0.825000X-0.150000X0.825000X-0.150000X0*%
%TD*%
%TA.AperFunction,SMDPad,CuDef*%
%ADD34R,0.630000X0.450000*%
%TD*%
%TA.AperFunction,SMDPad,CuDef*%
%ADD35R,1.700000X2.600000*%
%TD*%
%TA.AperFunction,ViaPad*%
%ADD36C,0.600000*%
%TD*%
%TA.AperFunction,Conductor*%
%ADD37C,0.500000*%
%TD*%
%TA.AperFunction,Conductor*%
%ADD38C,0.200000*%
%TD*%
G04 APERTURE END LIST*
D10*
%TO.P,ST_LINK1,1,Pin_1*%
%TO.N,SWDIO*%
X122900000Y-118200000D03*
D11*
%TO.P,ST_LINK1,2,Pin_2*%
%TO.N,SWCLK*%
X125400000Y-118200000D03*
%TO.P,ST_LINK1,3,Pin_3*%
%TO.N,NSRT*%
X127900000Y-118200000D03*
%TO.P,ST_LINK1,4,Pin_4*%
%TO.N,SWO*%
X130400000Y-118200000D03*
%TO.P,ST_LINK1,5,Pin_5*%
%TO.N,VDD*%
X132900000Y-118200000D03*
%TO.P,ST_LINK1,6,Pin_6*%
%TO.N,VREF-*%
X135400000Y-118200000D03*
%TD*%
D12*
%TO.P,GPS_J4,1,Pin_1*%
%TO.N,GPS_SDA*%
X103380000Y-71000000D03*
D13*
%TO.P,GPS_J4,2,Pin_2*%
%TO.N,GPS_SCL*%
X105920000Y-71000000D03*
%TO.P,GPS_J4,3,Pin_3*%
%TO.N,VREF-*%
X108460000Y-71000000D03*
%TO.P,GPS_J4,4,Pin_4*%
%TO.N,VDD*%
X111000000Y-71000000D03*
%TD*%
D14*
%TO.P,RFM9x1,1,Vin*%
%TO.N,VDD_LORA*%
X137586000Y-90565000D03*
%TO.P,RFM9x1,2,GND*%
%TO.N,VREF-*%
X140126000Y-90565000D03*
%TO.P,RFM9x1,3,EN*%
%TO.N,unconnected-(RFM9x1-EN-Pad3)*%
X142666000Y-90565000D03*
%TO.P,RFM9x1,4,G0*%
%TO.N,LORA_G0*%
X145206000Y-90565000D03*
%TO.P,RFM9x1,5,SCK*%
%TO.N,LoRa_SCK*%
X147746000Y-90565000D03*
%TO.P,RFM9x1,6,MISO*%
%TO.N,LoRa_MISO*%
X150286000Y-90565000D03*
%TO.P,RFM9x1,7,MOSI*%
%TO.N,LoRa_MOSI*%
X152826000Y-90565000D03*
%TO.P,RFM9x1,8,CS*%
%TO.N,LoRa_CS*%
X155366000Y-90565000D03*
%TO.P,RFM9x1,9,RST*%
%TO.N,LoRa_RST*%
X157906000Y-90565000D03*
%TO.P,RFM9x1,10,G1*%
%TO.N,LORA_G1*%
X137586000Y-65165000D03*
%TO.P,RFM9x1,11,G2*%
%TO.N,unconnected-(RFM9x1-G2-Pad11)*%
X140126000Y-65165000D03*
%TO.P,RFM9x1,12,G3*%
%TO.N,unconnected-(RFM9x1-G3-Pad12)*%
X142666000Y-65165000D03*
%TO.P,RFM9x1,13,G4*%
%TO.N,unconnected-(RFM9x1-G4-Pad13)*%
X145206000Y-65165000D03*
%TO.P,RFM9x1,14,G5*%
%TO.N,unconnected-(RFM9x1-G5-Pad14)*%
X147746000Y-65165000D03*
%TD*%
D12*
%TO.P,J1,1,Pin_1*%
%TO.N,USB_5V*%
X162525000Y-97000000D03*
D13*
%TO.P,J1,2,Pin_2*%
%TO.N,V-_bat_5V*%
X159985000Y-97000000D03*
%TO.P,J1,3,Pin_3*%
%TO.N,OneWire*%
X157445000Y-97000000D03*
%TD*%
D12*
%TO.P,SPI_SD1,1,Pin_1*%
%TO.N,MISO_SPI*%
X117310000Y-112000000D03*
D13*
%TO.P,SPI_SD1,2,Pin_2*%
%TO.N,MOSI_SD*%
X114770000Y-112000000D03*
%TO.P,SPI_SD1,3,Pin_3*%
%TO.N,SCK_SD*%
X112230000Y-112000000D03*
%TO.P,SPI_SD1,4,Pin_4*%
%TO.N,CS_SD*%
X109690000Y-112000000D03*
%TO.P,SPI_SD1,5,Pin_5*%
%TO.N,VDD*%
X107150000Y-112000000D03*
%TO.P,SPI_SD1,6,Pin_6*%
%TO.N,VREF-*%
X104610000Y-112000000D03*
%TD*%
D15*
%TO.P,P1,B1,GND*%
%TO.N,VREF-*%
X101650000Y-119160000D03*
%TO.P,P1,B2*%
%TO.N,N/C*%
X101150000Y-119160000D03*
%TO.P,P1,B3*%
X100650000Y-119160000D03*
%TO.P,P1,B4,VBUS*%
%TO.N,USB_5V*%
X100150000Y-119160000D03*
%TO.P,P1,B5,VCONN*%
%TO.N,unconnected-(P1-VCONN-PadB5)*%
X99650000Y-119160000D03*
%TO.P,P1,B8*%
%TO.N,N/C*%
X98150000Y-119160000D03*
%TO.P,P1,B9,VBUS*%
%TO.N,USB_5V*%
X97650000Y-119160000D03*
%TO.P,P1,B10*%
%TO.N,N/C*%
X97150000Y-119160000D03*
%TO.P,P1,B11*%
X96650000Y-119160000D03*
%TO.P,P1,B12,GND*%
%TO.N,VREF-*%
X96150000Y-119160000D03*
D16*
%TO.P,P1,S1,SHIELD*%
X102320000Y-120000000D03*
%TD*%
D17*
%TO.P,CN2,1,Pin_1*%
%TO.N,V+_bat_5V*%
X158500000Y-117250000D03*
D18*
%TO.P,CN2,2,Pin_2*%
%TO.N,V-_bat_5V*%
X163500000Y-117250000D03*
%TD*%
D12*
%TO.P,UART1,1,Pin_1*%
%TO.N,Tx_uart*%
X94650000Y-104620000D03*
D13*
%TO.P,UART1,2,Pin_2*%
%TO.N,Rx_uart*%
X94650000Y-102080000D03*
%TO.P,UART1,3,Pin_3*%
%TO.N,VDD*%
X94650000Y-99540000D03*
%TO.P,UART1,4,Pin_4*%
%TO.N,VREF-*%
X94650000Y-97000000D03*
%TD*%
D12*
%TO.P,I2C1,1,Pin_1*%
%TO.N,SCL*%
X102500000Y-96500000D03*
D13*
%TO.P,I2C1,2,Pin_2*%
%TO.N,SDA*%
X102500000Y-99040000D03*
%TO.P,I2C1,3,Pin_3*%
%TO.N,VDD*%
X102500000Y-101580000D03*
%TO.P,I2C1,4,Pin_4*%
%TO.N,VREF-*%
X102500000Y-104120000D03*
%TD*%
D19*
%TO.P,LED_START2,1,1*%
%TO.N,Net-(LED_START2-Pad1)*%
X150000000Y-102000000D03*
%TO.P,LED_START2,2,2*%
%TO.N,Net-(U2-STAT)*%
X151875000Y-102000000D03*
%TD*%
D20*
%TO.P,C9,1*%
%TO.N,VDD_LORA*%
X141250000Y-94505000D03*
%TO.P,C9,2*%
%TO.N,VREF-*%
X139350000Y-94505000D03*
%TD*%
D21*
%TO.P,R3,1,1*%
%TO.N,Net-(LED_FULL2-Pad2)*%
X151912500Y-111000000D03*
%TO.P,R3,2,2*%
%TO.N,VREF-*%
X150087500Y-111000000D03*
%TD*%
%TO.P,R5,1*%
%TO.N,Net-(D2-A)*%
X121740000Y-101684000D03*
%TO.P,R5,2*%
%TO.N,USB_5V*%
X119915000Y-101684000D03*
%TD*%
D22*
%TO.P,D1,1,K*%
%TO.N,USB_5V*%
X163000000Y-92000000D03*
%TO.P,D1,2,A*%
%TO.N,V+_bat_5V*%
X163000000Y-88000000D03*
%TD*%
D23*
%TO.P,U2,1,STAT*%
%TO.N,Net-(U2-STAT)*%
X146275000Y-105000000D03*
%TO.P,U2,2,VSS*%
%TO.N,VREF-*%
X146275000Y-105950000D03*
%TO.P,U2,3,VBAT*%
%TO.N,V+_bat_5V*%
X146275000Y-106900000D03*
%TO.P,U2,4,VDD*%
%TO.N,Net-(U2-VDD)*%
X144000000Y-106900000D03*
%TO.P,U2,5,PROG*%
%TO.N,Net-(U2-PROG)*%
X144000000Y-105000000D03*
%TD*%
D24*
%TO.P,C7,1*%
%TO.N,VDD*%
X125015000Y-107184000D03*
%TO.P,C7,2*%
%TO.N,VREF-*%
X126915000Y-107184000D03*
%TD*%
D25*
%TO.P,U5,1,OUT*%
%TO.N,VDD_LORA*%
X136900000Y-94350000D03*
%TO.P,U5,2,GND*%
%TO.N,VREF-*%
X136900000Y-95000000D03*
%TO.P,U5,3,ON*%
%TO.N,CMD_PW*%
X136900000Y-95650000D03*
%TO.P,U5,4,IN*%
%TO.N,VDD*%
X135000000Y-95650000D03*
%TO.P,U5,5,GND*%
%TO.N,VREF-*%
X135000000Y-95000000D03*
%TO.P,U5,6,NC*%
%TO.N,unconnected-(U5-NC-Pad6)*%
X135000000Y-94350000D03*
%TD*%
D26*
%TO.P,C23,1,1*%
%TO.N,VREF-*%
X146450000Y-85950000D03*
%TO.P,C23,2,2*%
%TO.N,V+_bat_5V*%
X146450000Y-84050000D03*
%TD*%
D27*
%TO.P,C5,1*%
%TO.N,USB_5V*%
X131915000Y-101734000D03*
%TO.P,C5,2*%
%TO.N,VREF-*%
X131915000Y-103634000D03*
%TD*%
D26*
%TO.P,C4,1,1*%
%TO.N,VREF-*%
X145000000Y-111950000D03*
%TO.P,C4,2,2*%
%TO.N,Net-(U2-VDD)*%
X145000000Y-110050000D03*
%TD*%
D20*
%TO.P,C15,1*%
%TO.N,VDD*%
X123900000Y-75000000D03*
%TO.P,C15,2*%
%TO.N,Net-(C14-Pad2)*%
X122000000Y-75000000D03*
%TD*%
D28*
%TO.P,D2,1,K*%
%TO.N,VREF-*%
X123790000Y-97184000D03*
%TO.P,D2,2,A*%
%TO.N,Net-(D2-A)*%
X121915000Y-97184000D03*
%TD*%
D20*
%TO.P,C24,1,1*%
%TO.N,VREF-*%
X152950000Y-72000000D03*
%TO.P,C24,2,2*%
%TO.N,V+_bat_5V*%
X151050000Y-72000000D03*
%TD*%
D29*
%TO.P,R6,1,1*%
%TO.N,VREF-*%
X140000000Y-105912500D03*
%TO.P,R6,2,2*%
%TO.N,Net-(U2-PROG)*%
X140000000Y-104087500D03*
%TD*%
D24*
%TO.P,C22,1,1*%
%TO.N,Net-(U3-VSENS-)*%
X153600000Y-82000000D03*
%TO.P,C22,2,2*%
%TO.N,V-_bat_5V*%
X155500000Y-82000000D03*
%TD*%
D20*
%TO.P,C10,1*%
%TO.N,VDD*%
X141250000Y-97515000D03*
%TO.P,C10,2*%
%TO.N,VREF-*%
X139350000Y-97515000D03*
%TD*%
%TO.P,C17,1*%
%TO.N,Net-(C14-Pad2)*%
X117410000Y-75500000D03*
%TO.P,C17,2*%
%TO.N,VREF-*%
X115510000Y-75500000D03*
%TD*%
D29*
%TO.P,R15,1*%
%TO.N,V+_bat_5V*%
X138000000Y-78500000D03*
%TO.P,R15,2*%
%TO.N,OneWire*%
X138000000Y-76675000D03*
%TD*%
%TO.P,R14,1,1*%
%TO.N,Net-(U3-VSENS-)*%
X158000000Y-76912500D03*
%TO.P,R14,2,2*%
%TO.N,VREF-*%
X158000000Y-75087500D03*
%TD*%
D30*
%TO.P,R4,1,1*%
%TO.N,Net-(LED_START2-Pad1)*%
X146087500Y-99000000D03*
%TO.P,R4,2,2*%
%TO.N,USB_5V*%
X147912500Y-99000000D03*
%TD*%
D31*
%TO.P,R13,1,1*%
%TO.N,VREF-*%
X154000000Y-75087500D03*
%TO.P,R13,2,2*%
%TO.N,V-_bat_5V*%
X154000000Y-76912500D03*
%TD*%
D20*
%TO.P,C16,1*%
%TO.N,VDD*%
X124000000Y-80000000D03*
%TO.P,C16,2*%
%TO.N,Net-(C14-Pad2)*%
X122100000Y-80000000D03*
%TD*%
%TO.P,C14,1*%
%TO.N,VDD*%
X123950000Y-70500000D03*
%TO.P,C14,2*%
%TO.N,Net-(C14-Pad2)*%
X122050000Y-70500000D03*
%TD*%
D27*
%TO.P,C3,1,1*%
%TO.N,VREF-*%
X150000000Y-105050000D03*
%TO.P,C3,2,2*%
%TO.N,V+_bat_5V*%
X150000000Y-106950000D03*
%TD*%
D32*
%TO.P,LED_FULL2,1,1*%
%TO.N,Net-(U2-STAT)*%
X154000000Y-104000000D03*
%TO.P,LED_FULL2,2,2*%
%TO.N,Net-(LED_FULL2-Pad2)*%
X154000000Y-105875000D03*
%TD*%
D27*
%TO.P,C6,1*%
%TO.N,USB_5V*%
X135915000Y-101784000D03*
%TO.P,C6,2*%
%TO.N,VREF-*%
X135915000Y-103684000D03*
%TD*%
D33*
%TO.P,U3,1,GND*%
%TO.N,VREF-*%
X148975000Y-76095000D03*
%TO.P,U3,2,VSENS+*%
%TO.N,V-_bat_5V*%
X148975000Y-77365000D03*
%TO.P,U3,3,VSENS-*%
%TO.N,Net-(U3-VSENS-)*%
X148975000Y-78635000D03*
%TO.P,U3,4,VAD*%
%TO.N,V+_bat_5V*%
X148975000Y-79905000D03*
%TO.P,U3,5,VDD*%
X144025000Y-79905000D03*
%TO.P,U3,6,NC*%
%TO.N,unconnected-(U3-NC-Pad6)*%
X144025000Y-78635000D03*
%TO.P,U3,7,NC*%
%TO.N,unconnected-(U3-NC-Pad7)*%
X144025000Y-77365000D03*
%TO.P,U3,8,DQ*%
%TO.N,OneWire*%
X144025000Y-76095000D03*
%TD*%
D24*
%TO.P,C8,1*%
%TO.N,VDD*%
X125015000Y-110684000D03*
%TO.P,C8,2*%
%TO.N,VREF-*%
X126915000Y-110684000D03*
%TD*%
D34*
%TO.P,U4,1,EN*%
%TO.N,USB_5V*%
X127915000Y-101684000D03*
%TO.P,U4,2,GND*%
%TO.N,VREF-*%
X127915000Y-102634000D03*
%TO.P,U4,3,PG*%
%TO.N,unconnected-(U4-PG-Pad3)*%
X127915000Y-103584000D03*
%TO.P,U4,4,VOUT*%
%TO.N,VDD*%
X125235000Y-103584000D03*
%TO.P,U4,5*%
%TO.N,N/C*%
X125235000Y-102634000D03*
%TO.P,U4,6,VIN*%
%TO.N,USB_5V*%
X125235000Y-101684000D03*
D35*
%TO.P,U4,7,GND*%
%TO.N,VREF-*%
X126575000Y-102634000D03*
%TD*%
D36*
%TO.N,V+_bat_5V*%
X150000000Y-109000000D03*
%TO.N,V-_bat_5V*%
X157000000Y-82000000D03*
%TO.N,SCK_SD*%
X126958600Y-94922300D03*
X114862800Y-102578000D03*
X126958600Y-99997700D03*
%TO.N,VREF-*%
X123790000Y-103214600D03*
X130549800Y-92376500D03*
X107248400Y-91000000D03*
X123790000Y-108772000D03*
X123030000Y-92500000D03*
X108975000Y-77719700D03*
X133205600Y-86329800D03*
X150892000Y-76095000D03*
X96150000Y-120983000D03*
%TO.N,MISO_SPI*%
X117695800Y-99881800D03*
%TO.N,MOSI_SD*%
X117091700Y-100967400D03*
%TO.N,CS_SD*%
X114969500Y-86220000D03*
%TO.N,Rx_uart*%
X119115500Y-80562500D03*
X110313700Y-104614400D03*
%TO.N,Tx_uart*%
X129010500Y-90000000D03*
X129010500Y-101097800D03*
%TO.N,CMD_PW*%
X136035400Y-95564600D03*
%TO.N,SWO*%
X123136800Y-98816400D03*
%TO.N,VDD*%
X124580100Y-95143400D03*
X122391200Y-85539200D03*
X123829000Y-94746200D03*
X135083300Y-96909900D03*
X123950000Y-71729400D03*
X124600000Y-105842500D03*
%TO.N,NSRT*%
X121527800Y-95796500D03*
X122428300Y-90000000D03*
%TO.N,OneWire*%
X136000000Y-78000000D03*
%TO.N,USB_5V*%
X125301800Y-100939500D03*
X119064400Y-118256700D03*
X118896300Y-101657600D03*
X98852200Y-118155200D03*
%TO.N,LoRa_MOSI*%
X129473800Y-91414500D03*
%TO.N,LoRa_SCK*%
X130075500Y-87721300D03*
%TO.N,LoRa_MISO*%
X130348800Y-86850500D03*
%TO.N,SWCLK*%
X120924800Y-82062000D03*
%TO.N,SWDIO*%
X120063600Y-79815000D03*
%TD*%
D37*
%TO.N,V+_bat_5V*%
X145500000Y-82450000D02*
X146430000Y-82450000D01*
X148000000Y-79905000D02*
X147000000Y-78905000D01*
X150000000Y-106950000D02*
X146325000Y-106950000D01*
D38*
X159000000Y-87000000D02*
X162000000Y-87000000D01*
D37*
X143095000Y-79905000D02*
X141690000Y-78500000D01*
D38*
X164224400Y-89224400D02*
X163000000Y-88000000D01*
D37*
X148000000Y-72000000D02*
X151050000Y-72000000D01*
X147000000Y-78905000D02*
X147000000Y-73000000D01*
X148975000Y-79905000D02*
X148000000Y-79905000D01*
X146325000Y-106950000D02*
X146275000Y-106900000D01*
D38*
X162000000Y-87000000D02*
X163000000Y-88000000D01*
X164224400Y-109823900D02*
X164224400Y-89224400D01*
D37*
X146430000Y-82450000D02*
X148975000Y-79905000D01*
X146450000Y-84050000D02*
X149050000Y-84050000D01*
X144025000Y-80975000D02*
X145500000Y-82450000D01*
X150000000Y-106950000D02*
X150000000Y-109000000D01*
X146430000Y-82450000D02*
X146450000Y-82470000D01*
D38*
X158500000Y-115548300D02*
X164224400Y-109823900D01*
X158500000Y-117250000D02*
X158500000Y-115548300D01*
D37*
X144025000Y-79905000D02*
X143095000Y-79905000D01*
X141690000Y-78500000D02*
X138000000Y-78500000D01*
X144025000Y-79905000D02*
X144025000Y-80975000D01*
X146450000Y-82470000D02*
X146450000Y-84050000D01*
X147000000Y-73000000D02*
X148000000Y-72000000D01*
X152000000Y-87000000D02*
X159000000Y-87000000D01*
X149050000Y-84050000D02*
X152000000Y-87000000D01*
%TO.N,V-_bat_5V*%
X153548000Y-77365000D02*
X154000000Y-76912500D01*
X155500000Y-80500000D02*
X155500000Y-82000000D01*
X155500000Y-82000000D02*
X157000000Y-82000000D01*
X156000000Y-80000000D02*
X155500000Y-80500000D01*
X156000000Y-78912500D02*
X156000000Y-80000000D01*
X154000000Y-76912500D02*
X156000000Y-78912500D01*
X148975000Y-77365000D02*
X153548000Y-77365000D01*
D38*
%TO.N,SCK_SD*%
X112230000Y-105210800D02*
X114862800Y-102578000D01*
X112230000Y-112000000D02*
X112230000Y-105210800D01*
X126958600Y-99997700D02*
X126958600Y-94922300D01*
%TO.N,VREF-*%
X130915000Y-102634000D02*
X127915000Y-102634000D01*
X135865000Y-103634000D02*
X135915000Y-103684000D01*
D37*
X146238000Y-105912000D02*
X146275000Y-105950000D01*
D38*
X136650200Y-89774400D02*
X133205600Y-86329800D01*
X136862900Y-94962900D02*
X135037100Y-94962900D01*
D37*
X140000000Y-110000000D02*
X142000000Y-112000000D01*
D38*
X123790000Y-95698100D02*
X123030000Y-94938100D01*
D37*
X142050000Y-85950000D02*
X146450000Y-85950000D01*
D38*
X102320000Y-115441700D02*
X104610000Y-113151700D01*
X102320000Y-118358300D02*
X101650000Y-118358300D01*
X104610000Y-107381700D02*
X104610000Y-112000000D01*
X136900000Y-95000000D02*
X136862900Y-94962900D01*
D37*
X148950000Y-105050000D02*
X148000000Y-106000000D01*
D38*
X108975000Y-71000000D02*
X108975000Y-77719700D01*
X133205600Y-89720700D02*
X130549800Y-92376500D01*
X94650000Y-97000000D02*
X95801700Y-97000000D01*
X102500000Y-105271700D02*
X104610000Y-107381700D01*
X108975000Y-77719700D02*
X108975000Y-89273400D01*
X135915000Y-103684000D02*
X135915000Y-103871200D01*
D37*
X148000000Y-106000000D02*
X147950000Y-105950000D01*
D38*
X139350000Y-97515000D02*
X139350000Y-94505000D01*
X135400000Y-112556200D02*
X135400000Y-118200000D01*
X135915000Y-103871200D02*
X140000000Y-107956200D01*
X131915000Y-103634000D02*
X130915000Y-102634000D01*
X134349100Y-92075500D02*
X134349100Y-94595700D01*
X140126000Y-89219500D02*
X137205100Y-89219500D01*
X102320000Y-118358300D02*
X102320000Y-115441700D01*
X123030000Y-94938100D02*
X123030000Y-92500000D01*
D37*
X150000000Y-105050000D02*
X148950000Y-105050000D01*
D38*
X113843200Y-75500000D02*
X109611700Y-71268500D01*
X108460000Y-71000000D02*
X108975000Y-71000000D01*
X96150000Y-119160000D02*
X96150000Y-120983000D01*
X102500000Y-104120000D02*
X102500000Y-105271700D01*
D37*
X140126000Y-89219500D02*
X140126000Y-87874000D01*
D38*
X115510000Y-75500000D02*
X113843200Y-75500000D01*
D37*
X150088000Y-111000000D02*
X150087500Y-111000000D01*
X148000000Y-111000000D02*
X147000000Y-112000000D01*
D38*
X137205100Y-89219500D02*
X136650200Y-89774400D01*
X131915000Y-103634000D02*
X135865000Y-103634000D01*
X108975000Y-71000000D02*
X109611700Y-71000000D01*
X138855000Y-95000000D02*
X139350000Y-94505000D01*
X126915000Y-110684000D02*
X126915000Y-107184000D01*
X102320000Y-120000000D02*
X102320000Y-119123300D01*
X133205600Y-86329800D02*
X133205600Y-89720700D01*
D37*
X146950000Y-111950000D02*
X145000000Y-111950000D01*
D38*
X108975000Y-89273400D02*
X107248400Y-91000000D01*
D37*
X142000000Y-112000000D02*
X143000000Y-112000000D01*
X143000000Y-112000000D02*
X143050000Y-111950000D01*
X140126000Y-87874000D02*
X142050000Y-85950000D01*
X147950000Y-105950000D02*
X146275000Y-105950000D01*
D38*
X104610000Y-112000000D02*
X104610000Y-113151700D01*
D37*
X140000000Y-105912500D02*
X140000000Y-107956200D01*
D38*
X109611700Y-71268500D02*
X109611700Y-71000000D01*
X101770000Y-102968300D02*
X102500000Y-102968300D01*
X126575000Y-102634000D02*
X126915000Y-102634000D01*
D37*
X150087500Y-111000000D02*
X148000000Y-111000000D01*
D38*
X134349100Y-94595700D02*
X134753400Y-95000000D01*
D37*
X152950000Y-72000000D02*
X152950000Y-74037500D01*
X143050000Y-111950000D02*
X145000000Y-111950000D01*
D38*
X134753400Y-95000000D02*
X135000000Y-95000000D01*
X123790000Y-103214600D02*
X123790000Y-108772000D01*
D37*
X152950000Y-74037500D02*
X150892000Y-76095000D01*
D38*
X135037100Y-94962900D02*
X135000000Y-95000000D01*
X123790000Y-97184000D02*
X123790000Y-103214600D01*
X136650200Y-89774400D02*
X134349100Y-92075500D01*
X140000000Y-107956200D02*
X135400000Y-112556200D01*
X136900000Y-95000000D02*
X138855000Y-95000000D01*
D37*
X140126000Y-90565000D02*
X140126000Y-89219500D01*
X140000000Y-105912000D02*
X146238000Y-105912000D01*
D38*
X95801700Y-97000000D02*
X101770000Y-102968300D01*
D37*
X152950000Y-74037500D02*
X154000000Y-75087500D01*
D38*
X101650000Y-119160000D02*
X101650000Y-118358300D01*
X102500000Y-104120000D02*
X102500000Y-102968300D01*
D37*
X154000000Y-75087500D02*
X158000000Y-75087500D01*
D38*
X123790000Y-97184000D02*
X123790000Y-95698100D01*
X102320000Y-119123300D02*
X102320000Y-118358300D01*
D37*
X140000000Y-107956200D02*
X140000000Y-110000000D01*
D38*
X126915000Y-102634000D02*
X126915000Y-107184000D01*
X126915000Y-102634000D02*
X127915000Y-102634000D01*
D37*
X140000000Y-105912500D02*
X140000000Y-105912000D01*
X150892000Y-76095000D02*
X148975000Y-76095000D01*
X147000000Y-112000000D02*
X146950000Y-111950000D01*
%TO.N,Net-(U3-VSENS-)*%
X158000000Y-84000000D02*
X157000000Y-85000000D01*
X148975000Y-78635000D02*
X151635000Y-78635000D01*
X158000000Y-76912500D02*
X158000000Y-84000000D01*
X153600000Y-83600000D02*
X153600000Y-82000000D01*
X151635000Y-78635000D02*
X153600000Y-80600000D01*
X153600000Y-80600000D02*
X153600000Y-82000000D01*
X155000000Y-85000000D02*
X153600000Y-83600000D01*
X157000000Y-85000000D02*
X155000000Y-85000000D01*
D38*
%TO.N,MISO_SPI*%
X117695800Y-110462500D02*
X117695800Y-99881800D01*
X117310000Y-112000000D02*
X117310000Y-110848300D01*
X117310000Y-110848300D02*
X117695800Y-110462500D01*
%TO.N,MOSI_SD*%
X114770000Y-112000000D02*
X117091700Y-109678300D01*
X117091700Y-109678300D02*
X117091700Y-100967400D01*
%TO.N,CS_SD*%
X109690000Y-112000000D02*
X109690000Y-91499500D01*
X109690000Y-91499500D02*
X114969500Y-86220000D01*
%TO.N,Rx_uart*%
X119115500Y-80562500D02*
X119115500Y-95812600D01*
X119115500Y-95812600D02*
X110313700Y-104614400D01*
%TO.N,Net-(U2-PROG)*%
X140000500Y-104088000D02*
X140000000Y-104087500D01*
D37*
X140000000Y-104088000D02*
X140000500Y-104088000D01*
X143088000Y-104088000D02*
X144000000Y-105000000D01*
X140000500Y-104088000D02*
X143088000Y-104088000D01*
D38*
%TO.N,Tx_uart*%
X128872100Y-90138400D02*
X128872100Y-100959400D01*
X128872100Y-100959400D02*
X129010500Y-101097800D01*
X129010500Y-90000000D02*
X128872100Y-90138400D01*
%TO.N,VDD_LORA*%
X136900000Y-94350000D02*
X137586000Y-93664000D01*
X137586000Y-93664000D02*
X137586000Y-93463000D01*
X137586000Y-93463000D02*
X137586000Y-90565000D01*
X140208000Y-93463000D02*
X141250000Y-94505000D01*
X137586000Y-93463000D02*
X140208000Y-93463000D01*
%TO.N,Net-(LED_START2-Pad1)*%
X146088000Y-100044000D02*
X146087500Y-100043500D01*
D37*
X146088000Y-101088000D02*
X146088000Y-100044000D01*
X146088000Y-100044000D02*
X146088000Y-99000000D01*
X150000000Y-102000000D02*
X147000000Y-102000000D01*
X147000000Y-102000000D02*
X146088000Y-101088000D01*
D38*
X146087500Y-100043500D02*
X146087500Y-99000000D01*
%TO.N,CMD_PW*%
X136120800Y-95650000D02*
X136035400Y-95564600D01*
X136900000Y-95650000D02*
X136120800Y-95650000D01*
D37*
%TO.N,Net-(LED_FULL2-Pad2)*%
X151912000Y-109481000D02*
X151912000Y-111000000D01*
X154000000Y-105875000D02*
X151912000Y-107962000D01*
X151912000Y-107962000D02*
X151912000Y-109481000D01*
D38*
X151912000Y-109481000D02*
X151912500Y-109481500D01*
X151912500Y-109481500D02*
X151912500Y-111000000D01*
D37*
%TO.N,Net-(U2-STAT)*%
X152000000Y-102000000D02*
X154000000Y-104000000D01*
X151875000Y-102000000D02*
X152000000Y-102000000D01*
X151000000Y-104000000D02*
X147275000Y-104000000D01*
X151875000Y-102000000D02*
X151875000Y-103125000D01*
X147275000Y-104000000D02*
X146275000Y-105000000D01*
X151875000Y-103125000D02*
X151000000Y-104000000D01*
%TO.N,Net-(U2-VDD)*%
X144000000Y-106900000D02*
X144000000Y-109050000D01*
X144000000Y-109050000D02*
X145000000Y-110050000D01*
D38*
%TO.N,SWO*%
X123136800Y-98816400D02*
X123136800Y-110936800D01*
X130400000Y-118200000D02*
X129248300Y-118200000D01*
X129248300Y-117048300D02*
X129248300Y-118200000D01*
X123136800Y-110936800D02*
X129248300Y-117048300D01*
%TO.N,VDD*%
X124000000Y-85539200D02*
X122391200Y-85539200D01*
X124000000Y-80000000D02*
X124000000Y-85539200D01*
X140159900Y-98605100D02*
X141250000Y-97515000D01*
X135000000Y-95650000D02*
X135000000Y-96826600D01*
X107150000Y-106230000D02*
X107150000Y-112000000D01*
X125015000Y-110684000D02*
X131748300Y-117417300D01*
X135739300Y-96909900D02*
X137434500Y-98605100D01*
X124000000Y-85539200D02*
X124000000Y-94707300D01*
X132900000Y-118200000D02*
X131748300Y-118200000D01*
X124436100Y-95143400D02*
X124580100Y-95143400D01*
X123950000Y-71729400D02*
X123950000Y-70500000D01*
X125015000Y-104330700D02*
X125015000Y-105842500D01*
X123950000Y-74950000D02*
X123925000Y-74975000D01*
X125235000Y-104110700D02*
X124580100Y-103455800D01*
X125015000Y-107184000D02*
X125015000Y-110684000D01*
X135000000Y-96826600D02*
X135083300Y-96909900D01*
X123950000Y-74950000D02*
X123950000Y-71729400D01*
X137434500Y-98605100D02*
X140159900Y-98605100D01*
X125235000Y-103584000D02*
X125235000Y-104110700D01*
X123925000Y-74975000D02*
X124000000Y-75050000D01*
X124000000Y-94707300D02*
X123867900Y-94707300D01*
X135083300Y-96909900D02*
X135739300Y-96909900D01*
X124580100Y-103455800D02*
X124580100Y-95143400D01*
X102500000Y-101580000D02*
X107150000Y-106230000D01*
X123925000Y-74975000D02*
X123900000Y-75000000D01*
X124000000Y-94707300D02*
X124436100Y-95143400D01*
X123867900Y-94707300D02*
X123829000Y-94746200D01*
X124000000Y-75050000D02*
X124000000Y-80000000D01*
X125235000Y-104110700D02*
X125015000Y-104330700D01*
X125015000Y-105842500D02*
X125015000Y-107184000D01*
X125015000Y-105842500D02*
X124600000Y-105842500D01*
X131748300Y-117417300D02*
X131748300Y-118200000D01*
%TO.N,NSRT*%
X122428300Y-94942700D02*
X122709200Y-95223600D01*
X122535100Y-98567300D02*
X122535100Y-99065500D01*
X122709200Y-111159700D02*
X126748300Y-115198800D01*
X126748300Y-115198800D02*
X126748300Y-118200000D01*
X122428300Y-94942700D02*
X122381600Y-94942700D01*
X122428300Y-94942700D02*
X122428300Y-90000000D01*
X122709200Y-95223600D02*
X122709200Y-98393200D01*
X122709200Y-99239600D02*
X122709200Y-111159700D01*
X122381600Y-94942700D02*
X121527800Y-95796500D01*
X122535100Y-99065500D02*
X122709200Y-99239600D01*
X127900000Y-118200000D02*
X126748300Y-118200000D01*
X122709200Y-98393200D02*
X122535100Y-98567300D01*
D37*
%TO.N,OneWire*%
X137325000Y-76675000D02*
X138000000Y-76675000D01*
X138000000Y-76675000D02*
X138580000Y-76095000D01*
X138580000Y-76095000D02*
X144025000Y-76095000D01*
X136000000Y-78000000D02*
X137325000Y-76675000D01*
D38*
%TO.N,Net-(D2-A)*%
X121740000Y-97359000D02*
X121740000Y-101684000D01*
X121915000Y-97184000D02*
X121740000Y-97359000D01*
%TO.N,USB_5V*%
X127915000Y-101684000D02*
X128531700Y-101684000D01*
X125235000Y-101157300D02*
X125301800Y-101090500D01*
X128325200Y-101286900D02*
X128531700Y-101493400D01*
X162762500Y-96762500D02*
X162762500Y-92237500D01*
X97650000Y-119160000D02*
X97650000Y-118358300D01*
X97650000Y-118358300D02*
X98852200Y-118358300D01*
X128325200Y-101080300D02*
X128325200Y-101286900D01*
X119888600Y-101657600D02*
X119915000Y-101684000D01*
X98852200Y-118358300D02*
X98852200Y-118155200D01*
X100150000Y-118860000D02*
X100150000Y-118358300D01*
X131915000Y-101734000D02*
X128581700Y-101734000D01*
X145240800Y-96868000D02*
X145808700Y-96868000D01*
X145808700Y-96868000D02*
X147572700Y-95104000D01*
X147572700Y-95104000D02*
X150895900Y-95104000D01*
X125301800Y-101090500D02*
X125301800Y-101023700D01*
D37*
X151000000Y-95000000D02*
X161000000Y-95000000D01*
X163000000Y-96525000D02*
X162762500Y-96762500D01*
X147912000Y-99000000D02*
X147912000Y-98543700D01*
D38*
X119915000Y-101684000D02*
X119064400Y-102534600D01*
X135915000Y-101784000D02*
X131965000Y-101784000D01*
D37*
X161000000Y-95000000D02*
X162525000Y-96525000D01*
D38*
X118896300Y-101657600D02*
X119888600Y-101657600D01*
X128581700Y-101734000D02*
X128531700Y-101684000D01*
X131965000Y-101784000D02*
X131915000Y-101734000D01*
X128268600Y-101023700D02*
X128325200Y-101080300D01*
X162762500Y-92237500D02*
X163000000Y-92000000D01*
D37*
X150895900Y-95104100D02*
X151000000Y-95000000D01*
D38*
X100150000Y-118860000D02*
X100150000Y-119160000D01*
X119064400Y-102534600D02*
X119064400Y-118256700D01*
X150895900Y-95104000D02*
X150895900Y-95104100D01*
X125301800Y-101023700D02*
X128268600Y-101023700D01*
X140324800Y-101784000D02*
X145240800Y-96868000D01*
X125301800Y-101023700D02*
X125301800Y-100939500D01*
D37*
X147912000Y-98087500D02*
X150895900Y-95104100D01*
D38*
X125235000Y-101684000D02*
X125235000Y-101157300D01*
X147912500Y-98544200D02*
X147912500Y-99000000D01*
D37*
X147912000Y-98543700D02*
X147912000Y-98087500D01*
D38*
X98852200Y-118358300D02*
X100150000Y-118358300D01*
X147912000Y-98543700D02*
X147912500Y-98544200D01*
X135915000Y-101784000D02*
X140324800Y-101784000D01*
X128531700Y-101493400D02*
X128531700Y-101684000D01*
D37*
X162525000Y-96525000D02*
X162525000Y-97000000D01*
X162762500Y-96762500D02*
X162525000Y-97000000D01*
D38*
%TO.N,LoRa_MOSI*%
X141381500Y-99499300D02*
X144555900Y-96324900D01*
X145712800Y-96324900D02*
X149225400Y-92812300D01*
X136253500Y-99499300D02*
X141381500Y-99499300D01*
X144555900Y-96324900D02*
X145712800Y-96324900D01*
X150578700Y-92812300D02*
X152826000Y-90565000D01*
X129473800Y-92719600D02*
X136253500Y-99499300D01*
X149225400Y-92812300D02*
X150578700Y-92812300D01*
X129473800Y-91414500D02*
X129473800Y-92719600D01*
%TO.N,LoRa_SCK*%
X130075500Y-91748200D02*
X130075500Y-87721300D01*
X129907500Y-92585300D02*
X129907500Y-91916200D01*
X137309200Y-99047800D02*
X136907500Y-98646100D01*
X147746000Y-92566800D02*
X141265000Y-99047800D01*
X135968300Y-98646100D02*
X129907500Y-92585300D01*
X141265000Y-99047800D02*
X137309200Y-99047800D01*
X136907500Y-98646100D02*
X135968300Y-98646100D01*
X129907500Y-91916200D02*
X130075500Y-91748200D01*
X147746000Y-90565000D02*
X147746000Y-92566800D01*
%TO.N,LoRa_MISO*%
X147138900Y-85098600D02*
X132100700Y-85098600D01*
X150286000Y-88245700D02*
X147138900Y-85098600D01*
X150286000Y-90565000D02*
X150286000Y-88245700D01*
X132100700Y-85098600D02*
X130348800Y-86850500D01*
%TO.N,SWCLK*%
X120924800Y-113724800D02*
X120924800Y-82062000D01*
X125400000Y-118200000D02*
X124248300Y-118200000D01*
X124248300Y-117048300D02*
X120924800Y-113724800D01*
X124248300Y-118200000D02*
X124248300Y-117048300D01*
%TO.N,SWDIO*%
X118271900Y-101229400D02*
X120063600Y-99437700D01*
X118462600Y-118507500D02*
X118462600Y-103643700D01*
X122233600Y-118866400D02*
X118821500Y-118866400D01*
X118821500Y-118866400D02*
X118462600Y-118507500D01*
X118271900Y-103453000D02*
X118271900Y-101229400D01*
X122900000Y-118200000D02*
X122233600Y-118866400D01*
X120063600Y-99437700D02*
X120063600Y-79815000D01*
X118462600Y-103643700D02*
X118271900Y-103453000D01*
%TO.N,Net-(C14-Pad2)*%
X122000000Y-70550000D02*
X122000000Y-75000000D01*
X122050000Y-70500000D02*
X122000000Y-70550000D01*
X122100000Y-80000000D02*
X122000000Y-79900000D01*
X122000000Y-79900000D02*
X122000000Y-75000000D01*
X121500000Y-75500000D02*
X122000000Y-75000000D01*
X117410000Y-75500000D02*
X121500000Y-75500000D01*
%TD*%
%TA.AperFunction,Conductor*%
%TO.N,VREF-*%
G36*
X123942503Y-106310829D02*
G01*
X123966295Y-106338572D01*
X123970184Y-106344762D01*
X124009900Y-106384478D01*
X124043385Y-106445801D01*
X124039925Y-106511162D01*
X124025001Y-106556199D01*
X124014500Y-106658983D01*
X124014500Y-107709001D01*
X124014501Y-107709019D01*
X124025000Y-107811796D01*
X124025001Y-107811799D01*
X124080185Y-107978331D01*
X124080187Y-107978336D01*
X124115069Y-108034888D01*
X124172288Y-108127656D01*
X124296344Y-108251712D01*
X124355596Y-108288258D01*
X124402321Y-108340204D01*
X124414500Y-108393797D01*
X124414500Y-109474201D01*
X124394815Y-109541240D01*
X124355598Y-109579739D01*
X124296344Y-109616287D01*
X124172289Y-109740342D01*
X124080187Y-109889663D01*
X124080185Y-109889668D01*
X124068222Y-109925770D01*
X124025001Y-110056203D01*
X124025001Y-110056204D01*
X124025000Y-110056204D01*
X124014500Y-110158983D01*
X124014500Y-110665903D01*
X123994815Y-110732942D01*
X123942011Y-110778697D01*
X123872853Y-110788641D01*
X123809297Y-110759616D01*
X123802819Y-110753584D01*
X123773619Y-110724384D01*
X123740134Y-110663061D01*
X123737300Y-110636703D01*
X123737300Y-106404542D01*
X123756985Y-106337503D01*
X123809789Y-106291748D01*
X123878947Y-106281804D01*
X123942503Y-106310829D01*
G37*
%TD.AperFunction*%
%TA.AperFunction,Conductor*%
G36*
X123942503Y-103478743D02*
G01*
X123980277Y-103537521D01*
X123981055Y-103540291D01*
X124002560Y-103620547D01*
X124020524Y-103687589D01*
X124020525Y-103687590D01*
X124045126Y-103730199D01*
X124045127Y-103730201D01*
X124099575Y-103824509D01*
X124099581Y-103824517D01*
X124218449Y-103943385D01*
X124218455Y-103943390D01*
X124387588Y-104112523D01*
X124421073Y-104173846D01*
X124419683Y-104232292D01*
X124414499Y-104251639D01*
X124414499Y-104419746D01*
X124414500Y-104419759D01*
X124414500Y-104971334D01*
X124394815Y-105038373D01*
X124342011Y-105084128D01*
X124331458Y-105088374D01*
X124314425Y-105094334D01*
X124250476Y-105116711D01*
X124097737Y-105212684D01*
X123970184Y-105340237D01*
X123970182Y-105340240D01*
X123966293Y-105346430D01*
X123913958Y-105392721D01*
X123844904Y-105403368D01*
X123781056Y-105374992D01*
X123742685Y-105316602D01*
X123737300Y-105280457D01*
X123737300Y-103572456D01*
X123756985Y-103505417D01*
X123809789Y-103459662D01*
X123878947Y-103449718D01*
X123942503Y-103478743D01*
G37*
%TD.AperFunction*%
%TA.AperFunction,Conductor*%
G36*
X140376000Y-91931487D02*
G01*
X140468150Y-91916110D01*
X140685859Y-91841370D01*
X140685868Y-91841367D01*
X140888316Y-91731807D01*
X140888322Y-91731803D01*
X141069960Y-91590428D01*
X141069970Y-91590419D01*
X141225873Y-91421062D01*
X141291891Y-91320014D01*
X141345037Y-91274657D01*
X141414268Y-91265233D01*
X141477604Y-91294734D01*
X141499508Y-91320013D01*
X141565727Y-91421368D01*
X141565729Y-91421370D01*
X141565731Y-91421373D01*
X141721692Y-91590792D01*
X141812577Y-91661530D01*
X141902868Y-91731807D01*
X141903411Y-91732229D01*
X142105931Y-91841828D01*
X142219025Y-91880653D01*
X142323725Y-91916597D01*
X142323727Y-91916597D01*
X142323729Y-91916598D01*
X142550863Y-91954500D01*
X142550864Y-91954500D01*
X142781136Y-91954500D01*
X142781137Y-91954500D01*
X143008271Y-91916598D01*
X143009693Y-91916110D01*
X143016662Y-91913717D01*
X143226069Y-91841828D01*
X143428589Y-91732229D01*
X143610308Y-91590792D01*
X143766269Y-91421373D01*
X143832191Y-91320472D01*
X143885337Y-91275115D01*
X143954569Y-91265691D01*
X144017905Y-91295193D01*
X144039809Y-91320472D01*
X144105728Y-91421370D01*
X144105731Y-91421373D01*
X144261692Y-91590792D01*
X144352577Y-91661530D01*
X144442868Y-91731807D01*
X144443411Y-91732229D01*
X144645931Y-91841828D01*
X144759025Y-91880653D01*
X144863725Y-91916597D01*
X144863727Y-91916597D01*
X144863729Y-91916598D01*
X145090863Y-91954500D01*
X145090864Y-91954500D01*
X145321136Y-91954500D01*
X145321137Y-91954500D01*
X145548271Y-91916598D01*
X145549693Y-91916110D01*
X145556662Y-91913717D01*
X145766069Y-91841828D01*
X145968589Y-91732229D01*
X146150308Y-91590792D01*
X146306269Y-91421373D01*
X146372191Y-91320472D01*
X146425337Y-91275115D01*
X146494569Y-91265691D01*
X146557905Y-91295193D01*
X146579809Y-91320472D01*
X146645728Y-91421370D01*
X146645731Y-91421373D01*
X146801692Y-91590792D01*
X146892577Y-91661530D01*
X146983408Y-91732227D01*
X146983413Y-91732230D01*
X147080517Y-91784780D01*
X147130108Y-91833999D01*
X147145500Y-91893835D01*
X147145500Y-92266702D01*
X147125815Y-92333741D01*
X147109181Y-92354383D01*
X142455694Y-97007869D01*
X142394371Y-97041354D01*
X142324679Y-97036370D01*
X142268746Y-96994498D01*
X142244655Y-96932789D01*
X142239999Y-96887203D01*
X142184814Y-96720666D01*
X142092712Y-96571344D01*
X141968656Y-96447288D01*
X141835208Y-96364977D01*
X141819336Y-96355187D01*
X141819331Y-96355185D01*
X141806068Y-96350790D01*
X141652797Y-96300001D01*
X141652795Y-96300000D01*
X141550010Y-96289500D01*
X140949998Y-96289500D01*
X140949980Y-96289501D01*
X140847203Y-96300000D01*
X140847200Y-96300001D01*
X140680668Y-96355185D01*
X140680663Y-96355187D01*
X140531342Y-96447289D01*
X140407288Y-96571343D01*
X140407283Y-96571349D01*
X140405241Y-96574661D01*
X140403247Y-96576453D01*
X140402807Y-96577011D01*
X140402711Y-96576935D01*
X140353291Y-96621383D01*
X140284328Y-96632602D01*
X140220247Y-96604755D01*
X140194168Y-96574656D01*
X140192319Y-96571659D01*
X140192316Y-96571655D01*
X140068345Y-96447684D01*
X139919124Y-96355643D01*
X139919119Y-96355641D01*
X139752697Y-96300494D01*
X139752690Y-96300493D01*
X139649986Y-96290000D01*
X139600000Y-96290000D01*
X139600000Y-97391000D01*
X139580315Y-97458039D01*
X139527511Y-97503794D01*
X139476000Y-97515000D01*
X139350000Y-97515000D01*
X139350000Y-97641000D01*
X139330315Y-97708039D01*
X139277511Y-97753794D01*
X139226000Y-97765000D01*
X138350001Y-97765000D01*
X138350001Y-97880600D01*
X138330316Y-97947639D01*
X138277512Y-97993394D01*
X138226001Y-98004600D01*
X137734597Y-98004600D01*
X137667558Y-97984915D01*
X137646916Y-97968281D01*
X136668648Y-96990013D01*
X138350000Y-96990013D01*
X138350000Y-97265000D01*
X139100000Y-97265000D01*
X139100000Y-96290000D01*
X139099999Y-96289999D01*
X139050029Y-96290000D01*
X139050011Y-96290001D01*
X138947302Y-96300494D01*
X138780880Y-96355641D01*
X138780875Y-96355643D01*
X138631654Y-96447684D01*
X138507684Y-96571654D01*
X138415643Y-96720875D01*
X138415641Y-96720880D01*
X138360494Y-96887302D01*
X138360493Y-96887309D01*
X138350000Y-96990013D01*
X136668648Y-96990013D01*
X136226890Y-96548255D01*
X136226888Y-96548252D01*
X136216374Y-96537738D01*
X136212596Y-96530820D01*
X136211397Y-96529357D01*
X136211395Y-96529354D01*
X136211688Y-96529158D01*
X136182889Y-96476415D01*
X136187873Y-96406723D01*
X136229745Y-96350790D01*
X136263098Y-96333017D01*
X136354074Y-96301182D01*
X136423852Y-96297621D01*
X136442466Y-96303658D01*
X136518238Y-96335044D01*
X136635639Y-96350500D01*
X137164360Y-96350499D01*
X137164363Y-96350499D01*
X137281753Y-96335046D01*
X137281757Y-96335044D01*
X137281762Y-96335044D01*
X137427841Y-96274536D01*
X137553282Y-96178282D01*
X137649536Y-96052841D01*
X137710044Y-95906762D01*
X137725500Y-95789361D01*
X137725499Y-95510640D01*
X137725499Y-95510638D01*
X137725499Y-95510636D01*
X137710046Y-95393246D01*
X137710044Y-95393239D01*
X137710044Y-95393238D01*
X137701162Y-95371797D01*
X137693694Y-95302328D01*
X137701164Y-95276890D01*
X137709555Y-95256632D01*
X137709555Y-95256630D01*
X137717012Y-95200000D01*
X137674500Y-95200000D01*
X137607461Y-95180315D01*
X137576125Y-95151487D01*
X137553283Y-95121719D01*
X137553282Y-95121718D01*
X137522860Y-95098374D01*
X137481658Y-95041949D01*
X137480945Y-95029986D01*
X138350001Y-95029986D01*
X138360494Y-95132697D01*
X138415641Y-95299119D01*
X138415643Y-95299124D01*
X138507684Y-95448345D01*
X138631654Y-95572315D01*
X138780875Y-95664356D01*
X138780880Y-95664358D01*
X138947302Y-95719505D01*
X138947309Y-95719506D01*
X139050019Y-95729999D01*
X139099999Y-95729998D01*
X139100000Y-95729998D01*
X139100000Y-94755000D01*
X138350001Y-94755000D01*
X138350001Y-95029986D01*
X137480945Y-95029986D01*
X137477503Y-94972203D01*
X137511714Y-94911282D01*
X137522851Y-94901631D01*
X137553282Y-94878282D01*
X137565021Y-94862982D01*
X137576125Y-94848513D01*
X137632553Y-94807310D01*
X137674500Y-94800000D01*
X137717010Y-94800000D01*
X137717011Y-94799998D01*
X137709558Y-94743377D01*
X137709554Y-94743365D01*
X137701163Y-94723106D01*
X137693694Y-94653637D01*
X137701164Y-94628199D01*
X137710044Y-94606762D01*
X137725500Y-94489361D01*
X137725499Y-94425097D01*
X137745183Y-94358059D01*
X137761812Y-94337421D01*
X137999418Y-94099818D01*
X138060742Y-94066334D01*
X138087099Y-94063500D01*
X138226000Y-94063500D01*
X138293039Y-94083185D01*
X138338794Y-94135989D01*
X138350000Y-94187500D01*
X138350000Y-94255000D01*
X139226000Y-94255000D01*
X139293039Y-94274685D01*
X139338794Y-94327489D01*
X139350000Y-94379000D01*
X139350000Y-94505000D01*
X139476000Y-94505000D01*
X139543039Y-94524685D01*
X139588794Y-94577489D01*
X139600000Y-94629000D01*
X139600000Y-95729999D01*
X139649972Y-95729999D01*
X139649986Y-95729998D01*
X139752697Y-95719505D01*
X139919119Y-95664358D01*
X139919124Y-95664356D01*
X140068345Y-95572315D01*
X140192318Y-95448342D01*
X140194165Y-95445348D01*
X140195969Y-95443724D01*
X140196798Y-95442677D01*
X140196976Y-95442818D01*
X140246110Y-95398621D01*
X140315073Y-95387396D01*
X140379156Y-95415236D01*
X140405243Y-95445341D01*
X140407288Y-95448656D01*
X140531344Y-95572712D01*
X140680666Y-95664814D01*
X140847203Y-95719999D01*
X140949991Y-95730500D01*
X141550008Y-95730499D01*
X141550016Y-95730498D01*
X141550019Y-95730498D01*
X141611818Y-95724185D01*
X141652797Y-95719999D01*
X141819334Y-95664814D01*
X141968656Y-95572712D01*
X142092712Y-95448656D01*
X142184814Y-95299334D01*
X142239999Y-95132797D01*
X142250500Y-95030009D01*
X142250499Y-93979992D01*
X142239999Y-93877203D01*
X142184814Y-93710666D01*
X142092712Y-93561344D01*
X141968656Y-93437288D01*
X141819334Y-93345186D01*
X141652797Y-93290001D01*
X141652795Y-93290000D01*
X141550010Y-93279500D01*
X140949999Y-93279500D01*
X140949983Y-93279501D01*
X140939413Y-93280581D01*
X140870721Y-93267807D01*
X140839138Y-93244903D01*
X140695590Y-93101355D01*
X140695588Y-93101352D01*
X140576717Y-92982481D01*
X140576716Y-92982480D01*
X140489904Y-92932360D01*
X140489904Y-92932359D01*
X140489900Y-92932358D01*
X140439785Y-92903423D01*
X140287057Y-92862499D01*
X140128943Y-92862499D01*
X140121347Y-92862499D01*
X140121331Y-92862500D01*
X138310500Y-92862500D01*
X138243461Y-92842815D01*
X138197706Y-92790011D01*
X138186500Y-92738500D01*
X138186500Y-91893835D01*
X138206185Y-91826796D01*
X138251483Y-91784780D01*
X138319012Y-91748235D01*
X138348589Y-91732229D01*
X138530308Y-91590792D01*
X138686269Y-91421373D01*
X138752490Y-91320013D01*
X138805636Y-91274657D01*
X138874868Y-91265233D01*
X138938203Y-91294735D01*
X138960108Y-91320014D01*
X139026126Y-91421062D01*
X139182029Y-91590419D01*
X139182039Y-91590428D01*
X139363677Y-91731803D01*
X139363683Y-91731807D01*
X139566131Y-91841367D01*
X139566140Y-91841370D01*
X139783849Y-91916110D01*
X139875999Y-91931487D01*
X139876000Y-91931487D01*
X139876000Y-90998012D01*
X139933007Y-91030925D01*
X140060174Y-91065000D01*
X140191826Y-91065000D01*
X140318993Y-91030925D01*
X140376000Y-90998012D01*
X140376000Y-91931487D01*
G37*
%TD.AperFunction*%
%TA.AperFunction,Conductor*%
G36*
X123474655Y-95470302D02*
G01*
X123649737Y-95531566D01*
X123649743Y-95531567D01*
X123649745Y-95531568D01*
X123649746Y-95531568D01*
X123649750Y-95531569D01*
X123835920Y-95552545D01*
X123835583Y-95555532D01*
X123889791Y-95571450D01*
X123927746Y-95609794D01*
X123950277Y-95645653D01*
X123952541Y-95648491D01*
X123953432Y-95650674D01*
X123953989Y-95651560D01*
X123953833Y-95651657D01*
X123978954Y-95713176D01*
X123979600Y-95725812D01*
X123979600Y-97060000D01*
X123959915Y-97127039D01*
X123907111Y-97172794D01*
X123855600Y-97184000D01*
X123664000Y-97184000D01*
X123596961Y-97164315D01*
X123551206Y-97111511D01*
X123540000Y-97060000D01*
X123540000Y-95984000D01*
X123496679Y-95984000D01*
X123446301Y-95989147D01*
X123377608Y-95976377D01*
X123326724Y-95928496D01*
X123309700Y-95865789D01*
X123309700Y-95587343D01*
X123329385Y-95520304D01*
X123382189Y-95474549D01*
X123451347Y-95464605D01*
X123474655Y-95470302D01*
G37*
%TD.AperFunction*%
%TA.AperFunction,Conductor*%
G36*
X145175803Y-85700000D02*
G01*
X146326000Y-85700000D01*
X146393039Y-85719685D01*
X146438794Y-85772489D01*
X146450000Y-85824000D01*
X146450000Y-85950000D01*
X146576000Y-85950000D01*
X146643039Y-85969685D01*
X146688794Y-86022489D01*
X146700000Y-86074000D01*
X146700000Y-86949999D01*
X146974972Y-86949999D01*
X146974986Y-86949998D01*
X147077697Y-86939505D01*
X147244119Y-86884358D01*
X147244124Y-86884356D01*
X147393345Y-86792315D01*
X147517315Y-86668345D01*
X147565495Y-86590234D01*
X147617443Y-86543510D01*
X147686406Y-86532287D01*
X147750488Y-86560131D01*
X147758715Y-86567650D01*
X149649181Y-88458116D01*
X149682666Y-88519439D01*
X149685500Y-88545797D01*
X149685500Y-89236163D01*
X149665815Y-89303202D01*
X149620519Y-89345217D01*
X149523413Y-89397769D01*
X149523408Y-89397772D01*
X149341694Y-89539206D01*
X149341689Y-89539211D01*
X149185727Y-89708630D01*
X149119808Y-89809528D01*
X149066662Y-89854884D01*
X148997431Y-89864308D01*
X148934095Y-89834806D01*
X148912192Y-89809528D01*
X148846272Y-89708630D01*
X148792737Y-89650476D01*
X148690308Y-89539208D01*
X148599664Y-89468657D01*
X148508591Y-89397772D01*
X148306069Y-89288172D01*
X148306061Y-89288169D01*
X148088274Y-89213402D01*
X147917920Y-89184975D01*
X147861137Y-89175500D01*
X147630863Y-89175500D01*
X147585436Y-89183080D01*
X147403725Y-89213402D01*
X147185938Y-89288169D01*
X147185930Y-89288172D01*
X146983408Y-89397772D01*
X146801694Y-89539206D01*
X146801689Y-89539211D01*
X146645727Y-89708630D01*
X146579808Y-89809528D01*
X146526662Y-89854884D01*
X146457431Y-89864308D01*
X146394095Y-89834806D01*
X146372192Y-89809528D01*
X146306272Y-89708630D01*
X146252737Y-89650476D01*
X146150308Y-89539208D01*
X146059664Y-89468657D01*
X145968591Y-89397772D01*
X145766069Y-89288172D01*
X145766061Y-89288169D01*
X145548274Y-89213402D01*
X145377920Y-89184975D01*
X145321137Y-89175500D01*
X145090863Y-89175500D01*
X145045436Y-89183080D01*
X144863725Y-89213402D01*
X144645938Y-89288169D01*
X144645930Y-89288172D01*
X144443408Y-89397772D01*
X144261694Y-89539206D01*
X144261689Y-89539211D01*
X144105727Y-89708630D01*
X144039808Y-89809528D01*
X143986662Y-89854884D01*
X143917431Y-89864308D01*
X143854095Y-89834806D01*
X143832192Y-89809528D01*
X143766272Y-89708630D01*
X143712737Y-89650476D01*
X143610308Y-89539208D01*
X143519664Y-89468657D01*
X143428591Y-89397772D01*
X143226069Y-89288172D01*
X143226061Y-89288169D01*
X143008274Y-89213402D01*
X142837920Y-89184975D01*
X142781137Y-89175500D01*
X142550863Y-89175500D01*
X142505436Y-89183080D01*
X142323725Y-89213402D01*
X142105938Y-89288169D01*
X142105930Y-89288172D01*
X141903408Y-89397772D01*
X141721694Y-89539206D01*
X141721689Y-89539211D01*
X141565727Y-89708631D01*
X141499508Y-89809986D01*
X141446361Y-89855343D01*
X141377130Y-89864766D01*
X141313795Y-89835263D01*
X141291891Y-89809985D01*
X141225873Y-89708937D01*
X141069970Y-89539580D01*
X141069960Y-89539571D01*
X140888322Y-89398196D01*
X140888316Y-89398192D01*
X140685868Y-89288632D01*
X140685856Y-89288627D01*
X140468156Y-89213891D01*
X140468137Y-89213887D01*
X140376000Y-89198510D01*
X140376000Y-90131988D01*
X140318993Y-90099075D01*
X140191826Y-90065000D01*
X140060174Y-90065000D01*
X139933007Y-90099075D01*
X139876000Y-90131988D01*
X139876000Y-89198511D01*
X139875999Y-89198510D01*
X139783862Y-89213887D01*
X139783843Y-89213891D01*
X139566143Y-89288627D01*
X139566131Y-89288632D01*
X139363683Y-89398192D01*
X139363677Y-89398196D01*
X139182039Y-89539571D01*
X139182029Y-89539580D01*
X139026124Y-89708938D01*
X138960107Y-89809986D01*
X138906961Y-89855342D01*
X138837730Y-89864766D01*
X138774394Y-89835264D01*
X138752490Y-89809986D01*
X138726486Y-89770184D01*
X138686269Y-89708627D01*
X138530308Y-89539208D01*
X138439664Y-89468657D01*
X138348591Y-89397772D01*
X138146069Y-89288172D01*
X138146061Y-89288169D01*
X137928274Y-89213402D01*
X137757920Y-89184975D01*
X137701137Y-89175500D01*
X137470863Y-89175500D01*
X137425436Y-89183080D01*
X137243725Y-89213402D01*
X137025938Y-89288169D01*
X137025930Y-89288172D01*
X136823408Y-89397772D01*
X136641694Y-89539206D01*
X136641689Y-89539211D01*
X136485728Y-89708629D01*
X136359782Y-89901405D01*
X136267282Y-90112285D01*
X136210753Y-90335515D01*
X136191738Y-90564994D01*
X136191738Y-90565005D01*
X136210753Y-90794484D01*
X136267282Y-91017714D01*
X136359782Y-91228594D01*
X136485728Y-91421370D01*
X136485731Y-91421373D01*
X136641692Y-91590792D01*
X136732577Y-91661530D01*
X136823408Y-91732227D01*
X136823413Y-91732230D01*
X136920517Y-91784780D01*
X136970108Y-91833999D01*
X136985500Y-91893835D01*
X136985500Y-93363901D01*
X136965815Y-93430940D01*
X136949181Y-93451583D01*
X136787581Y-93613182D01*
X136726258Y-93646666D01*
X136699902Y-93649500D01*
X136635637Y-93649500D01*
X136518246Y-93664953D01*
X136518237Y-93664956D01*
X136372160Y-93725463D01*
X136246718Y-93821718D01*
X136150463Y-93947160D01*
X136089956Y-94093237D01*
X136089955Y-94093239D01*
X136074500Y-94210638D01*
X136074500Y-94489363D01*
X136089955Y-94606763D01*
X136090669Y-94609427D01*
X136090613Y-94611762D01*
X136091016Y-94614821D01*
X136090539Y-94614883D01*
X136089005Y-94679277D01*
X136049842Y-94737138D01*
X135985613Y-94764641D01*
X135984777Y-94764738D01*
X135941687Y-94769593D01*
X135872865Y-94757538D01*
X135821486Y-94710189D01*
X135803862Y-94642579D01*
X135808030Y-94614278D01*
X135810041Y-94606768D01*
X135810044Y-94606762D01*
X135825500Y-94489361D01*
X135825499Y-94210640D01*
X135825499Y-94210638D01*
X135825499Y-94210636D01*
X135810046Y-94093246D01*
X135810044Y-94093239D01*
X135810044Y-94093238D01*
X135749536Y-93947159D01*
X135653282Y-93821718D01*
X135527841Y-93725464D01*
X135492120Y-93710668D01*
X135381762Y-93664956D01*
X135381760Y-93664955D01*
X135264361Y-93649500D01*
X134735636Y-93649500D01*
X134618246Y-93664953D01*
X134618237Y-93664956D01*
X134472160Y-93725463D01*
X134346718Y-93821718D01*
X134250463Y-93947160D01*
X134189956Y-94093237D01*
X134189955Y-94093239D01*
X134174500Y-94210638D01*
X134174500Y-94489363D01*
X134189953Y-94606753D01*
X134189956Y-94606762D01*
X134198837Y-94628203D01*
X134206304Y-94697673D01*
X134198838Y-94723103D01*
X134190443Y-94743370D01*
X134182987Y-94800000D01*
X134225500Y-94800000D01*
X134292539Y-94819685D01*
X134323875Y-94848513D01*
X134338176Y-94867150D01*
X134346718Y-94878282D01*
X134377140Y-94901625D01*
X134418341Y-94958052D01*
X134422496Y-95027798D01*
X134388283Y-95088719D01*
X134377146Y-95098369D01*
X134346718Y-95121718D01*
X134346717Y-95121719D01*
X134346716Y-95121720D01*
X134323875Y-95151487D01*
X134267447Y-95192690D01*
X134225500Y-95200000D01*
X134182990Y-95200000D01*
X134182988Y-95200001D01*
X134190441Y-95256622D01*
X134190445Y-95256634D01*
X134198837Y-95276895D01*
X134206304Y-95346364D01*
X134198838Y-95371794D01*
X134189956Y-95393238D01*
X134189955Y-95393239D01*
X134174500Y-95510638D01*
X134174500Y-95703701D01*
X134154815Y-95770740D01*
X134102011Y-95816495D01*
X134032853Y-95826439D01*
X133969297Y-95797414D01*
X133962819Y-95791382D01*
X130544319Y-92372882D01*
X130510834Y-92311559D01*
X130508000Y-92285201D01*
X130508000Y-92216298D01*
X130527685Y-92149259D01*
X130544319Y-92128617D01*
X130556020Y-92116916D01*
X130620221Y-92005716D01*
X130635077Y-91979985D01*
X130676001Y-91827257D01*
X130676001Y-91669143D01*
X130676001Y-91661548D01*
X130676000Y-91661530D01*
X130676000Y-88303712D01*
X130695685Y-88236673D01*
X130703055Y-88226397D01*
X130705310Y-88223567D01*
X130705316Y-88223562D01*
X130801289Y-88070822D01*
X130860868Y-87900555D01*
X130877775Y-87750500D01*
X130881065Y-87721303D01*
X130881065Y-87721297D01*
X130860310Y-87537093D01*
X130872364Y-87468271D01*
X130895843Y-87435534D01*
X130978616Y-87352762D01*
X131074589Y-87200022D01*
X131134168Y-87029755D01*
X131143961Y-86942829D01*
X131171026Y-86878418D01*
X131179490Y-86869043D01*
X131798549Y-86249986D01*
X145225001Y-86249986D01*
X145235494Y-86352697D01*
X145290641Y-86519119D01*
X145290643Y-86519124D01*
X145382684Y-86668345D01*
X145506654Y-86792315D01*
X145655875Y-86884356D01*
X145655880Y-86884358D01*
X145822302Y-86939505D01*
X145822309Y-86939506D01*
X145925019Y-86949999D01*
X146199999Y-86949999D01*
X146200000Y-86949998D01*
X146200000Y-86200000D01*
X145225001Y-86200000D01*
X145225001Y-86249986D01*
X131798549Y-86249986D01*
X132313117Y-85735419D01*
X132374440Y-85701934D01*
X132400798Y-85699100D01*
X145172738Y-85699100D01*
X145175803Y-85700000D01*
G37*
%TD.AperFunction*%
%TA.AperFunction,Conductor*%
G36*
X123332694Y-90267969D02*
G01*
X123383097Y-90316356D01*
X123399500Y-90377991D01*
X123399500Y-94002131D01*
X123379815Y-94069170D01*
X123341474Y-94107123D01*
X123326744Y-94116378D01*
X123326739Y-94116382D01*
X123240481Y-94202641D01*
X123179158Y-94236126D01*
X123109466Y-94231142D01*
X123053533Y-94189270D01*
X123029116Y-94123806D01*
X123028800Y-94114960D01*
X123028800Y-90582412D01*
X123048485Y-90515373D01*
X123055855Y-90505097D01*
X123058110Y-90502267D01*
X123058116Y-90502262D01*
X123154089Y-90349522D01*
X123158458Y-90337037D01*
X123199180Y-90280260D01*
X123264133Y-90254513D01*
X123332694Y-90267969D01*
G37*
%TD.AperFunction*%
%TA.AperFunction,Conductor*%
G36*
X167442539Y-63520185D02*
G01*
X167488294Y-63572989D01*
X167499500Y-63624500D01*
X167499500Y-123875500D01*
X167479815Y-123942539D01*
X167427011Y-123988294D01*
X167375500Y-123999500D01*
X91624500Y-123999500D01*
X91557461Y-123979815D01*
X91511706Y-123927011D01*
X91500500Y-123875500D01*
X91500500Y-118612155D01*
X95460000Y-118612155D01*
X95460000Y-118970000D01*
X95835500Y-118970000D01*
X95902539Y-118989685D01*
X95948294Y-119042489D01*
X95959500Y-119093999D01*
X95959501Y-119225999D01*
X95939817Y-119293039D01*
X95887013Y-119338794D01*
X95835501Y-119350000D01*
X95460000Y-119350000D01*
X95460000Y-119707844D01*
X95466401Y-119767372D01*
X95466403Y-119767379D01*
X95516645Y-119902086D01*
X95516649Y-119902093D01*
X95602809Y-120017187D01*
X95602812Y-120017190D01*
X95717906Y-120103350D01*
X95717913Y-120103354D01*
X95852620Y-120153596D01*
X95852627Y-120153598D01*
X95912155Y-120159999D01*
X95912172Y-120160000D01*
X95960000Y-120160000D01*
X95960000Y-120158627D01*
X95979685Y-120091588D01*
X96032489Y-120045833D01*
X96101647Y-120035889D01*
X96158311Y-120059360D01*
X96217669Y-120103796D01*
X96217670Y-120103796D01*
X96217673Y-120103798D01*
X96261888Y-120120288D01*
X96297856Y-120133703D01*
X96338774Y-120160000D01*
X96387829Y-120160000D01*
X96390956Y-120159832D01*
X96410879Y-120160365D01*
X96412127Y-120160500D01*
X96887872Y-120160499D01*
X96887875Y-120160498D01*
X96891186Y-120160321D01*
X96891202Y-120160622D01*
X96908795Y-120160621D01*
X96908812Y-120160322D01*
X96912106Y-120160497D01*
X96912127Y-120160500D01*
X97387872Y-120160499D01*
X97387875Y-120160498D01*
X97391186Y-120160321D01*
X97391202Y-120160622D01*
X97408795Y-120160621D01*
X97408812Y-120160322D01*
X97412106Y-120160497D01*
X97412127Y-120160500D01*
X97887872Y-120160499D01*
X97887875Y-120160498D01*
X97891186Y-120160321D01*
X97891202Y-120160622D01*
X97908795Y-120160621D01*
X97908812Y-120160322D01*
X97912106Y-120160497D01*
X97912127Y-120160500D01*
X98387872Y-120160499D01*
X98447483Y-120154091D01*
X98582331Y-120103796D01*
X98697546Y-120017546D01*
X98783796Y-119902331D01*
X98783798Y-119902326D01*
X98783818Y-119902274D01*
X98783851Y-119902229D01*
X98788047Y-119894546D01*
X98789151Y-119895149D01*
X98825689Y-119846340D01*
X98891153Y-119821922D01*
X98959426Y-119836773D01*
X99008832Y-119886178D01*
X99016182Y-119902274D01*
X99016201Y-119902326D01*
X99016206Y-119902335D01*
X99102452Y-120017544D01*
X99102455Y-120017547D01*
X99217664Y-120103793D01*
X99217671Y-120103797D01*
X99217674Y-120103798D01*
X99352517Y-120154091D01*
X99412127Y-120160500D01*
X99887872Y-120160499D01*
X99887875Y-120160498D01*
X99891186Y-120160321D01*
X99891202Y-120160622D01*
X99908795Y-120160621D01*
X99908812Y-120160322D01*
X99912106Y-120160497D01*
X99912127Y-120160500D01*
X100387872Y-120160499D01*
X100387875Y-120160498D01*
X100391186Y-120160321D01*
X100391202Y-120160622D01*
X100408795Y-120160621D01*
X100408812Y-120160322D01*
X100412106Y-120160497D01*
X100412127Y-120160500D01*
X100887872Y-120160499D01*
X100887875Y-120160498D01*
X100891186Y-120160321D01*
X100891202Y-120160622D01*
X100908795Y-120160621D01*
X100908812Y-120160322D01*
X100912106Y-120160497D01*
X100912127Y-120160500D01*
X101346000Y-120160499D01*
X101413039Y-120180183D01*
X101458794Y-120232987D01*
X101470000Y-120284499D01*
X101470000Y-120622844D01*
X101476401Y-120682372D01*
X101476403Y-120682379D01*
X101526645Y-120817086D01*
X101526649Y-120817093D01*
X101612809Y-120932187D01*
X101612812Y-120932190D01*
X101727906Y-121018350D01*
X101727913Y-121018354D01*
X101862620Y-121068596D01*
X101862627Y-121068598D01*
X101922155Y-121074999D01*
X101922172Y-121075000D01*
X102070000Y-121075000D01*
X102570000Y-121075000D01*
X102717828Y-121075000D01*
X102717844Y-121074999D01*
X102777372Y-121068598D01*
X102777379Y-121068596D01*
X102912086Y-121018354D01*
X102912093Y-121018350D01*
X103027187Y-120932190D01*
X103027190Y-120932187D01*
X103113350Y-120817093D01*
X103113354Y-120817086D01*
X103163596Y-120682379D01*
X103163598Y-120682372D01*
X103169999Y-120622844D01*
X103170000Y-120622827D01*
X103170000Y-120250000D01*
X102570000Y-120250000D01*
X102570000Y-121075000D01*
X102070000Y-121075000D01*
X102070000Y-120124000D01*
X102089685Y-120056961D01*
X102142489Y-120011206D01*
X102194000Y-120000000D01*
X102320000Y-120000000D01*
X102320000Y-119874000D01*
X102339685Y-119806961D01*
X102392489Y-119761206D01*
X102444000Y-119750000D01*
X103170000Y-119750000D01*
X103170000Y-119377172D01*
X103169999Y-119377155D01*
X103163598Y-119317627D01*
X103163596Y-119317620D01*
X103113354Y-119182913D01*
X103113350Y-119182906D01*
X103027190Y-119067812D01*
X103027187Y-119067809D01*
X102912093Y-118981649D01*
X102912086Y-118981645D01*
X102777379Y-118931403D01*
X102777372Y-118931401D01*
X102717844Y-118925000D01*
X102464000Y-118925000D01*
X102396961Y-118905315D01*
X102351206Y-118852511D01*
X102340000Y-118801000D01*
X102340000Y-118612172D01*
X102339999Y-118612155D01*
X102333598Y-118552627D01*
X102333596Y-118552620D01*
X102283354Y-118417913D01*
X102283350Y-118417906D01*
X102197190Y-118302812D01*
X102197187Y-118302809D01*
X102082093Y-118216649D01*
X102082086Y-118216645D01*
X101947379Y-118166403D01*
X101947372Y-118166401D01*
X101887844Y-118160000D01*
X101840000Y-118160000D01*
X101840000Y-118161372D01*
X101820315Y-118228411D01*
X101767511Y-118274166D01*
X101698353Y-118284110D01*
X101641689Y-118260639D01*
X101582333Y-118216205D01*
X101582331Y-118216204D01*
X101502141Y-118186295D01*
X101461226Y-118160000D01*
X101412168Y-118160000D01*
X101409003Y-118160169D01*
X101389160Y-118159637D01*
X101387895Y-118159501D01*
X101387874Y-118159500D01*
X101387873Y-118159500D01*
X101387871Y-118159500D01*
X100912132Y-118159500D01*
X100908808Y-118159679D01*
X100908792Y-118159381D01*
X100891210Y-118159381D01*
X100891195Y-118159678D01*
X100887875Y-118159500D01*
X100887873Y-118159500D01*
X100887870Y-118159500D01*
X100800212Y-118159500D01*
X100733173Y-118139815D01*
X100692825Y-118097499D01*
X100630524Y-117989590D01*
X100630518Y-117989582D01*
X100518717Y-117877781D01*
X100518709Y-117877775D01*
X100381790Y-117798726D01*
X100381786Y-117798724D01*
X100381784Y-117798723D01*
X100229057Y-117757800D01*
X100229056Y-117757800D01*
X99616438Y-117757800D01*
X99549399Y-117738115D01*
X99511445Y-117699773D01*
X99482017Y-117652939D01*
X99354462Y-117525384D01*
X99201723Y-117429411D01*
X99031454Y-117369831D01*
X99031449Y-117369830D01*
X98852204Y-117349635D01*
X98852196Y-117349635D01*
X98672950Y-117369830D01*
X98672945Y-117369831D01*
X98502676Y-117429411D01*
X98349937Y-117525384D01*
X98222382Y-117652939D01*
X98192955Y-117699773D01*
X98140620Y-117746063D01*
X98087962Y-117757800D01*
X97570943Y-117757800D01*
X97418216Y-117798723D01*
X97418209Y-117798726D01*
X97281290Y-117877775D01*
X97281282Y-117877781D01*
X97169481Y-117989582D01*
X97169477Y-117989587D01*
X97107174Y-118097500D01*
X97056607Y-118145716D01*
X96999788Y-118159500D01*
X96912133Y-118159500D01*
X96908808Y-118159679D01*
X96908792Y-118159381D01*
X96891210Y-118159381D01*
X96891195Y-118159678D01*
X96887875Y-118159500D01*
X96887873Y-118159500D01*
X96887870Y-118159500D01*
X96412136Y-118159500D01*
X96412116Y-118159502D01*
X96410850Y-118159638D01*
X96390993Y-118160169D01*
X96387833Y-118160000D01*
X96338774Y-118160000D01*
X96297859Y-118186294D01*
X96217668Y-118216204D01*
X96158311Y-118260639D01*
X96092846Y-118285056D01*
X96024573Y-118270204D01*
X95975168Y-118220799D01*
X95960000Y-118161372D01*
X95960000Y-118160000D01*
X95912155Y-118160000D01*
X95852627Y-118166401D01*
X95852620Y-118166403D01*
X95717913Y-118216645D01*
X95717906Y-118216649D01*
X95602812Y-118302809D01*
X95602809Y-118302812D01*
X95516649Y-118417906D01*
X95516645Y-118417913D01*
X95466403Y-118552620D01*
X95466401Y-118552627D01*
X95460000Y-118612155D01*
X91500500Y-118612155D01*
X91500500Y-99539999D01*
X93294341Y-99539999D01*
X93294341Y-99540000D01*
X93314936Y-99775403D01*
X93314938Y-99775413D01*
X93376094Y-100003655D01*
X93376096Y-100003659D01*
X93376097Y-100003663D01*
X93446261Y-100154130D01*
X93475965Y-100217830D01*
X93475967Y-100217834D01*
X93611501Y-100411395D01*
X93611506Y-100411402D01*
X93778597Y-100578493D01*
X93778603Y-100578498D01*
X93964158Y-100708425D01*
X94007783Y-100763002D01*
X94014977Y-100832500D01*
X93983454Y-100894855D01*
X93964158Y-100911575D01*
X93778597Y-101041505D01*
X93611505Y-101208597D01*
X93475965Y-101402169D01*
X93475964Y-101402171D01*
X93376098Y-101616335D01*
X93376094Y-101616344D01*
X93314938Y-101844586D01*
X93314936Y-101844596D01*
X93294341Y-102079999D01*
X93294341Y-102080000D01*
X93314936Y-102315403D01*
X93314938Y-102315413D01*
X93376094Y-102543655D01*
X93376096Y-102543659D01*
X93376097Y-102543663D01*
X93457820Y-102718917D01*
X93475965Y-102757830D01*
X93475967Y-102757834D01*
X93556471Y-102872805D01*
X93611501Y-102951396D01*
X93611506Y-102951402D01*
X93733430Y-103073326D01*
X93766915Y-103134649D01*
X93761931Y-103204341D01*
X93720059Y-103260274D01*
X93689083Y-103277189D01*
X93557669Y-103326203D01*
X93557664Y-103326206D01*
X93442455Y-103412452D01*
X93442452Y-103412455D01*
X93356206Y-103527664D01*
X93356202Y-103527671D01*
X93305908Y-103662517D01*
X93301163Y-103706657D01*
X93299501Y-103722123D01*
X93299500Y-103722135D01*
X93299500Y-105517870D01*
X93299501Y-105517876D01*
X93305908Y-105577483D01*
X93356202Y-105712328D01*
X93356206Y-105712335D01*
X93442452Y-105827544D01*
X93442455Y-105827547D01*
X93557664Y-105913793D01*
X93557671Y-105913797D01*
X93692517Y-105964091D01*
X93692516Y-105964091D01*
X93699444Y-105964835D01*
X93752127Y-105970500D01*
X95547872Y-105970499D01*
X95607483Y-105964091D01*
X95742331Y-105913796D01*
X95857546Y-105827546D01*
X95943796Y-105712331D01*
X95994091Y-105577483D01*
X96000500Y-105517873D01*
X96000499Y-103722128D01*
X95994091Y-103662517D01*
X95991849Y-103656507D01*
X95943797Y-103527671D01*
X95943793Y-103527664D01*
X95857547Y-103412455D01*
X95857544Y-103412452D01*
X95742335Y-103326206D01*
X95742328Y-103326202D01*
X95610917Y-103277189D01*
X95554983Y-103235318D01*
X95530566Y-103169853D01*
X95545418Y-103101580D01*
X95566563Y-103073332D01*
X95688495Y-102951401D01*
X95824035Y-102757830D01*
X95923903Y-102543663D01*
X95985063Y-102315408D01*
X96005659Y-102080000D01*
X95985063Y-101844592D01*
X95923903Y-101616337D01*
X95824035Y-101402171D01*
X95817070Y-101392223D01*
X95688494Y-101208597D01*
X95521402Y-101041506D01*
X95521396Y-101041501D01*
X95335842Y-100911575D01*
X95292217Y-100856998D01*
X95285023Y-100787500D01*
X95316546Y-100725145D01*
X95335842Y-100708425D01*
X95399350Y-100663956D01*
X95521401Y-100578495D01*
X95688495Y-100411401D01*
X95824035Y-100217830D01*
X95923903Y-100003663D01*
X95985063Y-99775408D01*
X96005659Y-99540000D01*
X95985063Y-99304592D01*
X95923903Y-99076337D01*
X95906958Y-99039999D01*
X101144341Y-99039999D01*
X101144341Y-99040000D01*
X101164936Y-99275403D01*
X101164938Y-99275413D01*
X101226094Y-99503655D01*
X101226096Y-99503659D01*
X101226097Y-99503663D01*
X101318840Y-99702550D01*
X101325965Y-99717830D01*
X101325967Y-99717834D01*
X101461501Y-99911395D01*
X101461506Y-99911402D01*
X101628597Y-100078493D01*
X101628603Y-100078498D01*
X101814158Y-100208425D01*
X101857783Y-100263002D01*
X101864977Y-100332500D01*
X101833454Y-100394855D01*
X101814158Y-100411575D01*
X101628597Y-100541505D01*
X101461505Y-100708597D01*
X101325965Y-100902169D01*
X101325964Y-100902171D01*
X101243509Y-101078997D01*
X101229143Y-101109806D01*
X101226098Y-101116335D01*
X101226094Y-101116344D01*
X101164938Y-101344586D01*
X101164936Y-101344596D01*
X101144341Y-101579999D01*
X101144341Y-101580000D01*
X101164936Y-101815403D01*
X101164938Y-101815413D01*
X101226094Y-102043655D01*
X101226096Y-102043659D01*
X101226097Y-102043663D01*
X101279880Y-102159000D01*
X101325965Y-102257830D01*
X101325967Y-102257834D01*
X101461501Y-102451395D01*
X101461506Y-102451402D01*
X101628597Y-102618493D01*
X101628603Y-102618498D01*
X101650742Y-102634000D01*
X101799098Y-102737880D01*
X101814594Y-102748730D01*
X101858219Y-102803307D01*
X101865413Y-102872805D01*
X101833890Y-102935160D01*
X101814595Y-102951880D01*
X101628922Y-103081890D01*
X101628920Y-103081891D01*
X101461891Y-103248920D01*
X101461886Y-103248926D01*
X101326400Y-103442420D01*
X101326399Y-103442422D01*
X101226570Y-103656507D01*
X101226567Y-103656513D01*
X101169364Y-103869999D01*
X101169364Y-103870000D01*
X102066988Y-103870000D01*
X102034075Y-103927007D01*
X102000000Y-104054174D01*
X102000000Y-104185826D01*
X102034075Y-104312993D01*
X102066988Y-104370000D01*
X101169364Y-104370000D01*
X101226567Y-104583486D01*
X101226570Y-104583492D01*
X101326399Y-104797578D01*
X101461894Y-104991082D01*
X101628917Y-105158105D01*
X101822421Y-105293600D01*
X102036507Y-105393429D01*
X102036516Y-105393433D01*
X102250000Y-105450634D01*
X102250000Y-104553012D01*
X102307007Y-104585925D01*
X102434174Y-104620000D01*
X102565826Y-104620000D01*
X102692993Y-104585925D01*
X102750000Y-104553012D01*
X102750000Y-105450633D01*
X102963483Y-105393433D01*
X102963492Y-105393429D01*
X103177578Y-105293600D01*
X103371082Y-105158105D01*
X103538105Y-104991082D01*
X103673600Y-104797578D01*
X103773429Y-104583492D01*
X103773432Y-104583486D01*
X103830636Y-104370000D01*
X102933012Y-104370000D01*
X102965925Y-104312993D01*
X103000000Y-104185826D01*
X103000000Y-104054174D01*
X102965925Y-103927007D01*
X102933012Y-103870000D01*
X103889403Y-103870000D01*
X103956442Y-103889685D01*
X103977084Y-103906319D01*
X106513181Y-106442416D01*
X106546666Y-106503739D01*
X106549500Y-106530097D01*
X106549500Y-110710908D01*
X106529815Y-110777947D01*
X106477914Y-110823286D01*
X106472173Y-110825963D01*
X106472169Y-110825965D01*
X106278597Y-110961505D01*
X106111508Y-111128594D01*
X105981269Y-111314595D01*
X105926692Y-111358219D01*
X105857193Y-111365412D01*
X105794839Y-111333890D01*
X105778119Y-111314594D01*
X105648113Y-111128926D01*
X105648108Y-111128920D01*
X105481082Y-110961894D01*
X105287578Y-110826399D01*
X105073492Y-110726570D01*
X105073486Y-110726567D01*
X104860000Y-110669364D01*
X104860000Y-111566988D01*
X104802993Y-111534075D01*
X104675826Y-111500000D01*
X104544174Y-111500000D01*
X104417007Y-111534075D01*
X104360000Y-111566988D01*
X104360000Y-110669364D01*
X104359999Y-110669364D01*
X104146513Y-110726567D01*
X104146507Y-110726570D01*
X103932422Y-110826399D01*
X103932420Y-110826400D01*
X103738926Y-110961886D01*
X103738920Y-110961891D01*
X103571891Y-111128920D01*
X103571886Y-111128926D01*
X103436400Y-111322420D01*
X103436399Y-111322422D01*
X103336570Y-111536507D01*
X103336567Y-111536513D01*
X103279364Y-111749999D01*
X103279364Y-111750000D01*
X104176988Y-111750000D01*
X104144075Y-111807007D01*
X104110000Y-111934174D01*
X104110000Y-112065826D01*
X104144075Y-112192993D01*
X104176988Y-112250000D01*
X103279364Y-112250000D01*
X103336567Y-112463486D01*
X103336570Y-112463492D01*
X103436399Y-112677578D01*
X103571894Y-112871082D01*
X103738917Y-113038105D01*
X103932421Y-113173600D01*
X104146507Y-113273429D01*
X104146516Y-113273433D01*
X104360000Y-113330634D01*
X104360000Y-112433012D01*
X104417007Y-112465925D01*
X104544174Y-112500000D01*
X104675826Y-112500000D01*
X104802993Y-112465925D01*
X104860000Y-112433012D01*
X104860000Y-113330633D01*
X105073483Y-113273433D01*
X105073492Y-113273429D01*
X105287578Y-113173600D01*
X105481082Y-113038105D01*
X105648105Y-112871082D01*
X105778119Y-112685405D01*
X105832696Y-112641781D01*
X105902195Y-112634588D01*
X105964549Y-112666110D01*
X105981269Y-112685405D01*
X106111505Y-112871401D01*
X106278599Y-113038495D01*
X106375384Y-113106265D01*
X106472165Y-113174032D01*
X106472167Y-113174033D01*
X106472170Y-113174035D01*
X106686337Y-113273903D01*
X106914592Y-113335063D01*
X107091034Y-113350500D01*
X107149999Y-113355659D01*
X107150000Y-113355659D01*
X107150001Y-113355659D01*
X107208966Y-113350500D01*
X107385408Y-113335063D01*
X107613663Y-113273903D01*
X107827830Y-113174035D01*
X108021401Y-113038495D01*
X108188495Y-112871401D01*
X108318425Y-112685842D01*
X108373002Y-112642217D01*
X108442500Y-112635023D01*
X108504855Y-112666546D01*
X108521575Y-112685842D01*
X108651281Y-112871082D01*
X108651505Y-112871401D01*
X108818599Y-113038495D01*
X108915384Y-113106265D01*
X109012165Y-113174032D01*
X109012167Y-113174033D01*
X109012170Y-113174035D01*
X109226337Y-113273903D01*
X109454592Y-113335063D01*
X109631034Y-113350500D01*
X109689999Y-113355659D01*
X109690000Y-113355659D01*
X109690001Y-113355659D01*
X109748966Y-113350500D01*
X109925408Y-113335063D01*
X110153663Y-113273903D01*
X110367830Y-113174035D01*
X110561401Y-113038495D01*
X110728495Y-112871401D01*
X110858425Y-112685842D01*
X110913002Y-112642217D01*
X110982500Y-112635023D01*
X111044855Y-112666546D01*
X111061575Y-112685842D01*
X111191281Y-112871082D01*
X111191505Y-112871401D01*
X111358599Y-113038495D01*
X111455384Y-113106265D01*
X111552165Y-113174032D01*
X111552167Y-113174033D01*
X111552170Y-113174035D01*
X111766337Y-113273903D01*
X111994592Y-113335063D01*
X112171034Y-113350500D01*
X112229999Y-113355659D01*
X112230000Y-113355659D01*
X112230001Y-113355659D01*
X112288966Y-113350500D01*
X112465408Y-113335063D01*
X112693663Y-113273903D01*
X112907830Y-113174035D01*
X113101401Y-113038495D01*
X113268495Y-112871401D01*
X113398425Y-112685842D01*
X113453002Y-112642217D01*
X113522500Y-112635023D01*
X113584855Y-112666546D01*
X113601575Y-112685842D01*
X113731281Y-112871082D01*
X113731505Y-112871401D01*
X113898599Y-113038495D01*
X113995384Y-113106265D01*
X114092165Y-113174032D01*
X114092167Y-113174033D01*
X114092170Y-113174035D01*
X114306337Y-113273903D01*
X114534592Y-113335063D01*
X114711034Y-113350500D01*
X114769999Y-113355659D01*
X114770000Y-113355659D01*
X114770001Y-113355659D01*
X114828966Y-113350500D01*
X115005408Y-113335063D01*
X115233663Y-113273903D01*
X115447830Y-113174035D01*
X115641401Y-113038495D01*
X115763329Y-112916566D01*
X115824648Y-112883084D01*
X115894340Y-112888068D01*
X115950274Y-112929939D01*
X115967189Y-112960917D01*
X116016202Y-113092328D01*
X116016206Y-113092335D01*
X116102452Y-113207544D01*
X116102455Y-113207547D01*
X116217664Y-113293793D01*
X116217671Y-113293797D01*
X116352517Y-113344091D01*
X116352516Y-113344091D01*
X116359444Y-113344835D01*
X116412127Y-113350500D01*
X117738100Y-113350499D01*
X117805139Y-113370184D01*
X117850894Y-113422987D01*
X117862100Y-113474499D01*
X117862100Y-118420830D01*
X117862099Y-118420848D01*
X117862099Y-118586554D01*
X117862098Y-118586554D01*
X117868951Y-118612128D01*
X117903023Y-118739285D01*
X117903024Y-118739287D01*
X117903023Y-118739287D01*
X117913530Y-118757484D01*
X117913531Y-118757485D01*
X117982077Y-118876212D01*
X117982081Y-118876217D01*
X118100949Y-118995085D01*
X118100955Y-118995090D01*
X118336639Y-119230774D01*
X118336649Y-119230785D01*
X118340979Y-119235115D01*
X118340980Y-119235116D01*
X118452784Y-119346920D01*
X118533734Y-119393656D01*
X118533735Y-119393657D01*
X118567993Y-119413436D01*
X118589715Y-119425977D01*
X118742442Y-119466900D01*
X118742443Y-119466900D01*
X121729170Y-119466900D01*
X121796209Y-119486585D01*
X121816851Y-119503219D01*
X121831344Y-119517712D01*
X121980666Y-119609814D01*
X122147203Y-119664999D01*
X122249991Y-119675500D01*
X123550008Y-119675499D01*
X123652797Y-119664999D01*
X123819334Y-119609814D01*
X123968656Y-119517712D01*
X124092712Y-119393656D01*
X124184814Y-119244334D01*
X124184814Y-119244331D01*
X124188178Y-119238879D01*
X124240126Y-119192154D01*
X124309088Y-119180931D01*
X124373170Y-119208774D01*
X124381398Y-119216294D01*
X124520213Y-119355109D01*
X124692179Y-119480048D01*
X124692181Y-119480049D01*
X124692184Y-119480051D01*
X124881588Y-119576557D01*
X125083757Y-119642246D01*
X125293713Y-119675500D01*
X125293714Y-119675500D01*
X125506286Y-119675500D01*
X125506287Y-119675500D01*
X125716243Y-119642246D01*
X125918412Y-119576557D01*
X126107816Y-119480051D01*
X126182246Y-119425975D01*
X126279786Y-119355109D01*
X126279788Y-119355106D01*
X126279792Y-119355104D01*
X126430104Y-119204792D01*
X126549683Y-119040204D01*
X126605011Y-118997540D01*
X126674624Y-118991561D01*
X126736420Y-119024166D01*
X126750313Y-119040199D01*
X126830450Y-119150499D01*
X126869896Y-119204792D01*
X127020213Y-119355109D01*
X127192179Y-119480048D01*
X127192181Y-119480049D01*
X127192184Y-119480051D01*
X127381588Y-119576557D01*
X127583757Y-119642246D01*
X127793713Y-119675500D01*
X127793714Y-119675500D01*
X128006286Y-119675500D01*
X128006287Y-119675500D01*
X128216243Y-119642246D01*
X128418412Y-119576557D01*
X128607816Y-119480051D01*
X128682246Y-119425975D01*
X128779786Y-119355109D01*
X128779788Y-119355106D01*
X128779792Y-119355104D01*
X128930104Y-119204792D01*
X129049683Y-119040204D01*
X129105011Y-118997540D01*
X129174624Y-118991561D01*
X129236420Y-119024166D01*
X129250313Y-119040199D01*
X129330450Y-119150499D01*
X129369896Y-119204792D01*
X129520213Y-119355109D01*
X129692179Y-119480048D01*
X129692181Y-119480049D01*
X129692184Y-119480051D01*
X129881588Y-119576557D01*
X130083757Y-119642246D01*
X130293713Y-119675500D01*
X130293714Y-119675500D01*
X130506286Y-119675500D01*
X130506287Y-119675500D01*
X130716243Y-119642246D01*
X130918412Y-119576557D01*
X131107816Y-119480051D01*
X131182246Y-119425975D01*
X131279786Y-119355109D01*
X131279788Y-119355106D01*
X131279792Y-119355104D01*
X131430104Y-119204792D01*
X131549683Y-119040204D01*
X131605011Y-118997540D01*
X131674624Y-118991561D01*
X131736420Y-119024166D01*
X131750313Y-119040199D01*
X131830450Y-119150499D01*
X131869896Y-119204792D01*
X132020213Y-119355109D01*
X132192179Y-119480048D01*
X132192181Y-119480049D01*
X132192184Y-119480051D01*
X132381588Y-119576557D01*
X132583757Y-119642246D01*
X132793713Y-119675500D01*
X132793714Y-119675500D01*
X133006286Y-119675500D01*
X133006287Y-119675500D01*
X133216243Y-119642246D01*
X133418412Y-119576557D01*
X133607816Y-119480051D01*
X133682246Y-119425975D01*
X133779786Y-119355109D01*
X133779788Y-119355106D01*
X133779792Y-119355104D01*
X133930104Y-119204792D01*
X134049991Y-119039779D01*
X134105320Y-118997115D01*
X134174933Y-118991136D01*
X134236729Y-119023741D01*
X134250627Y-119039781D01*
X134370272Y-119204459D01*
X134370276Y-119204464D01*
X134520535Y-119354723D01*
X134520540Y-119354727D01*
X134692442Y-119479620D01*
X134881782Y-119576095D01*
X135083871Y-119641757D01*
X135150000Y-119652231D01*
X135150000Y-118604145D01*
X135216657Y-118642630D01*
X135337465Y-118675000D01*
X135462535Y-118675000D01*
X135583343Y-118642630D01*
X135650000Y-118604145D01*
X135650000Y-119652230D01*
X135716126Y-119641757D01*
X135716129Y-119641757D01*
X135918217Y-119576095D01*
X136107557Y-119479620D01*
X136279459Y-119354727D01*
X136279464Y-119354723D01*
X136429723Y-119204464D01*
X136429727Y-119204459D01*
X136554620Y-119032557D01*
X136651095Y-118843217D01*
X136716757Y-118641130D01*
X136716757Y-118641127D01*
X136747030Y-118450000D01*
X135804146Y-118450000D01*
X135842630Y-118383343D01*
X135875000Y-118262535D01*
X135875000Y-118137465D01*
X135842630Y-118016657D01*
X135804146Y-117950000D01*
X136747030Y-117950000D01*
X136716757Y-117758872D01*
X136716757Y-117758869D01*
X136651095Y-117556782D01*
X136554620Y-117367442D01*
X136429727Y-117195540D01*
X136429723Y-117195535D01*
X136279464Y-117045276D01*
X136279459Y-117045272D01*
X136107557Y-116920379D01*
X135918215Y-116823903D01*
X135716124Y-116758241D01*
X135650000Y-116747768D01*
X135650000Y-117795854D01*
X135583343Y-117757370D01*
X135462535Y-117725000D01*
X135337465Y-117725000D01*
X135216657Y-117757370D01*
X135150000Y-117795854D01*
X135150000Y-116747768D01*
X135149999Y-116747768D01*
X135083875Y-116758241D01*
X134881784Y-116823903D01*
X134692442Y-116920379D01*
X134520540Y-117045272D01*
X134520535Y-117045276D01*
X134370276Y-117195535D01*
X134370272Y-117195540D01*
X134250627Y-117360218D01*
X134195297Y-117402884D01*
X134125684Y-117408863D01*
X134063889Y-117376257D01*
X134049991Y-117360218D01*
X133930109Y-117195214D01*
X133930105Y-117195209D01*
X133779786Y-117044890D01*
X133607820Y-116919951D01*
X133418414Y-116823444D01*
X133418413Y-116823443D01*
X133418412Y-116823443D01*
X133216243Y-116757754D01*
X133216241Y-116757753D01*
X133216240Y-116757753D01*
X133054957Y-116732208D01*
X133006287Y-116724500D01*
X132793713Y-116724500D01*
X132745042Y-116732208D01*
X132583760Y-116757753D01*
X132381585Y-116823444D01*
X132211509Y-116910102D01*
X132142839Y-116922998D01*
X132078099Y-116896721D01*
X132067533Y-116887298D01*
X127430221Y-112249986D01*
X143775001Y-112249986D01*
X143785494Y-112352697D01*
X143840641Y-112519119D01*
X143840643Y-112519124D01*
X143932684Y-112668345D01*
X144056654Y-112792315D01*
X144205875Y-112884356D01*
X144205880Y-112884358D01*
X144372302Y-112939505D01*
X144372309Y-112939506D01*
X144475019Y-112949999D01*
X144749999Y-112949999D01*
X145250000Y-112949999D01*
X145524972Y-112949999D01*
X145524986Y-112949998D01*
X145627697Y-112939505D01*
X145794119Y-112884358D01*
X145794124Y-112884356D01*
X145943345Y-112792315D01*
X146067315Y-112668345D01*
X146159356Y-112519124D01*
X146159358Y-112519119D01*
X146214505Y-112352697D01*
X146214506Y-112352690D01*
X146224999Y-112249986D01*
X146225000Y-112249973D01*
X146225000Y-112200000D01*
X145250000Y-112200000D01*
X145250000Y-112949999D01*
X144749999Y-112949999D01*
X144750000Y-112949998D01*
X144750000Y-112200000D01*
X143775001Y-112200000D01*
X143775001Y-112249986D01*
X127430221Y-112249986D01*
X127280367Y-112100132D01*
X127246882Y-112038809D01*
X127251866Y-111969117D01*
X127293738Y-111913184D01*
X127329044Y-111894745D01*
X127484119Y-111843358D01*
X127484124Y-111843356D01*
X127633345Y-111751315D01*
X127757315Y-111627345D01*
X127849356Y-111478124D01*
X127849358Y-111478119D01*
X127904505Y-111311697D01*
X127904506Y-111311690D01*
X127914999Y-111208986D01*
X127915000Y-111208973D01*
X127915000Y-110934000D01*
X127039000Y-110934000D01*
X126971961Y-110914315D01*
X126926206Y-110861511D01*
X126915000Y-110810000D01*
X126915000Y-110684000D01*
X126789000Y-110684000D01*
X126721961Y-110664315D01*
X126676206Y-110611511D01*
X126665000Y-110560000D01*
X126665000Y-110434000D01*
X127165000Y-110434000D01*
X127914999Y-110434000D01*
X127914999Y-110159028D01*
X127914998Y-110159013D01*
X127904505Y-110056302D01*
X127849358Y-109889880D01*
X127849356Y-109889875D01*
X127757315Y-109740654D01*
X127633345Y-109616684D01*
X127484124Y-109524643D01*
X127484119Y-109524641D01*
X127317697Y-109469494D01*
X127317690Y-109469493D01*
X127214986Y-109459000D01*
X127165000Y-109459000D01*
X127165000Y-110434000D01*
X126665000Y-110434000D01*
X126665000Y-109459000D01*
X126664999Y-109458999D01*
X126615029Y-109459000D01*
X126615011Y-109459001D01*
X126512302Y-109469494D01*
X126345880Y-109524641D01*
X126345875Y-109524643D01*
X126196654Y-109616684D01*
X126072683Y-109740655D01*
X126072679Y-109740660D01*
X126070826Y-109743665D01*
X126069018Y-109745290D01*
X126068202Y-109746323D01*
X126068025Y-109746183D01*
X126018874Y-109790385D01*
X125949911Y-109801601D01*
X125885831Y-109773752D01*
X125859753Y-109743653D01*
X125859737Y-109743628D01*
X125857712Y-109740344D01*
X125733656Y-109616288D01*
X125733655Y-109616287D01*
X125674402Y-109579739D01*
X125627678Y-109527791D01*
X125615500Y-109474201D01*
X125615500Y-108393797D01*
X125635185Y-108326758D01*
X125674403Y-108288258D01*
X125733656Y-108251712D01*
X125857712Y-108127656D01*
X125859752Y-108124347D01*
X125861745Y-108122555D01*
X125862193Y-108121989D01*
X125862289Y-108122065D01*
X125911694Y-108077623D01*
X125980656Y-108066395D01*
X126044740Y-108094234D01*
X126070829Y-108124339D01*
X126072681Y-108127341D01*
X126072683Y-108127344D01*
X126196654Y-108251315D01*
X126345875Y-108343356D01*
X126345880Y-108343358D01*
X126512302Y-108398505D01*
X126512309Y-108398506D01*
X126615019Y-108408999D01*
X127165000Y-108408999D01*
X127214972Y-108408999D01*
X127214986Y-108408998D01*
X127317697Y-108398505D01*
X127484119Y-108343358D01*
X127484124Y-108343356D01*
X127633345Y-108251315D01*
X127757315Y-108127345D01*
X127849356Y-107978124D01*
X127849358Y-107978119D01*
X127904505Y-107811697D01*
X127904506Y-107811690D01*
X127914999Y-107708986D01*
X127915000Y-107708973D01*
X127915000Y-107434000D01*
X127165000Y-107434000D01*
X127165000Y-108408999D01*
X126615019Y-108408999D01*
X126664999Y-108408998D01*
X126665000Y-108408998D01*
X126665000Y-106934000D01*
X127165000Y-106934000D01*
X127914999Y-106934000D01*
X127914999Y-106659028D01*
X127914998Y-106659013D01*
X127904505Y-106556302D01*
X127849358Y-106389880D01*
X127849356Y-106389875D01*
X127757315Y-106240654D01*
X127741647Y-106224986D01*
X138800001Y-106224986D01*
X138810494Y-106327697D01*
X138865641Y-106494119D01*
X138865643Y-106494124D01*
X138957684Y-106643345D01*
X139081654Y-106767315D01*
X139230875Y-106859356D01*
X139230880Y-106859358D01*
X139397302Y-106914505D01*
X139397309Y-106914506D01*
X139500019Y-106924999D01*
X139749999Y-106924999D01*
X140250000Y-106924999D01*
X140499972Y-106924999D01*
X140499986Y-106924998D01*
X140602697Y-106914505D01*
X140769119Y-106859358D01*
X140769124Y-106859356D01*
X140918345Y-106767315D01*
X141042315Y-106643345D01*
X141134356Y-106494124D01*
X141134358Y-106494119D01*
X141189505Y-106327697D01*
X141189506Y-106327690D01*
X141199999Y-106224986D01*
X141200000Y-106224973D01*
X141200000Y-106162500D01*
X140250000Y-106162500D01*
X140250000Y-106924999D01*
X139749999Y-106924999D01*
X139750000Y-106924998D01*
X139750000Y-106162500D01*
X138800001Y-106162500D01*
X138800001Y-106224986D01*
X127741647Y-106224986D01*
X127633345Y-106116684D01*
X127484124Y-106024643D01*
X127484119Y-106024641D01*
X127317697Y-105969494D01*
X127317690Y-105969493D01*
X127214986Y-105959000D01*
X127165000Y-105959000D01*
X127165000Y-106934000D01*
X126665000Y-106934000D01*
X126665000Y-105959000D01*
X126664999Y-105958999D01*
X126615029Y-105959000D01*
X126615011Y-105959001D01*
X126512302Y-105969494D01*
X126345880Y-106024641D01*
X126345875Y-106024643D01*
X126196654Y-106116684D01*
X126072683Y-106240655D01*
X126072679Y-106240660D01*
X126070826Y-106243665D01*
X126069018Y-106245290D01*
X126068202Y-106246323D01*
X126068025Y-106246183D01*
X126018874Y-106290385D01*
X125949911Y-106301601D01*
X125885831Y-106273752D01*
X125859753Y-106243653D01*
X125859737Y-106243628D01*
X125857712Y-106240344D01*
X125733656Y-106116288D01*
X125733655Y-106116287D01*
X125674402Y-106079739D01*
X125627678Y-106027791D01*
X125615500Y-105974201D01*
X125615500Y-104630798D01*
X125635185Y-104563759D01*
X125651819Y-104543117D01*
X125721267Y-104473669D01*
X125722949Y-104475351D01*
X125769581Y-104441307D01*
X125811519Y-104434000D01*
X126325000Y-104434000D01*
X126325000Y-102758000D01*
X126344685Y-102690961D01*
X126397489Y-102645206D01*
X126449000Y-102634000D01*
X126701000Y-102634000D01*
X126768039Y-102653685D01*
X126813794Y-102706489D01*
X126825000Y-102758000D01*
X126825000Y-104434000D01*
X127472828Y-104434000D01*
X127472844Y-104433999D01*
X127532372Y-104427598D01*
X127532376Y-104427597D01*
X127667091Y-104377351D01*
X127724689Y-104334233D01*
X127790153Y-104309815D01*
X127798982Y-104309499D01*
X128277872Y-104309499D01*
X128337483Y-104303091D01*
X128472331Y-104252796D01*
X128587546Y-104166546D01*
X128673796Y-104051331D01*
X128717563Y-103933986D01*
X130690001Y-103933986D01*
X130700494Y-104036697D01*
X130755641Y-104203119D01*
X130755643Y-104203124D01*
X130847684Y-104352345D01*
X130971654Y-104476315D01*
X131120875Y-104568356D01*
X131120880Y-104568358D01*
X131287302Y-104623505D01*
X131287309Y-104623506D01*
X131390019Y-104633999D01*
X131664999Y-104633999D01*
X132165000Y-104633999D01*
X132439972Y-104633999D01*
X132439986Y-104633998D01*
X132542697Y-104623505D01*
X132709119Y-104568358D01*
X132709124Y-104568356D01*
X132858345Y-104476315D01*
X132982315Y-104352345D01*
X133074356Y-104203124D01*
X133074358Y-104203119D01*
X133129505Y-104036697D01*
X133129506Y-104036690D01*
X133134891Y-103983986D01*
X134690001Y-103983986D01*
X134700494Y-104086697D01*
X134755641Y-104253119D01*
X134755643Y-104253124D01*
X134847684Y-104402345D01*
X134971654Y-104526315D01*
X135120875Y-104618356D01*
X135120880Y-104618358D01*
X135287302Y-104673505D01*
X135287309Y-104673506D01*
X135390019Y-104683999D01*
X135664999Y-104683999D01*
X136165000Y-104683999D01*
X136439972Y-104683999D01*
X136439986Y-104683998D01*
X136542697Y-104673505D01*
X136709119Y-104618358D01*
X136709124Y-104618356D01*
X136858345Y-104526315D01*
X136982315Y-104402345D01*
X137074356Y-104253124D01*
X137074358Y-104253119D01*
X137129505Y-104086697D01*
X137129506Y-104086690D01*
X137139999Y-103983986D01*
X137140000Y-103983973D01*
X137140000Y-103934000D01*
X136165000Y-103934000D01*
X136165000Y-104683999D01*
X135664999Y-104683999D01*
X135665000Y-104683998D01*
X135665000Y-103934000D01*
X134690001Y-103934000D01*
X134690001Y-103983986D01*
X133134891Y-103983986D01*
X133139999Y-103933986D01*
X133140000Y-103933973D01*
X133140000Y-103884000D01*
X132165000Y-103884000D01*
X132165000Y-104633999D01*
X131664999Y-104633999D01*
X131665000Y-104633998D01*
X131665000Y-103884000D01*
X130690001Y-103884000D01*
X130690001Y-103933986D01*
X128717563Y-103933986D01*
X128724091Y-103916483D01*
X128730500Y-103856873D01*
X128730499Y-103311128D01*
X128724091Y-103251517D01*
X128723122Y-103248920D01*
X128686831Y-103151618D01*
X128681847Y-103081927D01*
X128686831Y-103064951D01*
X128723597Y-102966376D01*
X128723598Y-102966372D01*
X128729999Y-102906844D01*
X128730000Y-102906827D01*
X128730000Y-102859000D01*
X128289167Y-102859000D01*
X128281188Y-102858572D01*
X128281183Y-102858678D01*
X128277879Y-102858500D01*
X128277873Y-102858500D01*
X128277866Y-102858500D01*
X128039000Y-102858500D01*
X127971961Y-102838815D01*
X127926206Y-102786011D01*
X127915000Y-102734500D01*
X127915000Y-102533499D01*
X127934685Y-102466460D01*
X127987489Y-102420705D01*
X128038998Y-102409499D01*
X128277872Y-102409499D01*
X128277872Y-102409498D01*
X128281196Y-102409321D01*
X128281201Y-102409426D01*
X128289163Y-102409000D01*
X128730000Y-102409000D01*
X128766319Y-102372681D01*
X128768658Y-102375020D01*
X128802489Y-102345706D01*
X128854000Y-102334500D01*
X130705202Y-102334500D01*
X130772241Y-102354185D01*
X130810739Y-102393401D01*
X130847288Y-102452656D01*
X130971344Y-102576712D01*
X130973437Y-102578003D01*
X130974653Y-102578753D01*
X130976445Y-102580746D01*
X130977011Y-102581193D01*
X130976934Y-102581289D01*
X131021379Y-102630699D01*
X131032603Y-102699661D01*
X131004761Y-102763744D01*
X130974665Y-102789826D01*
X130971660Y-102791679D01*
X130971655Y-102791683D01*
X130847684Y-102915654D01*
X130755643Y-103064875D01*
X130755641Y-103064880D01*
X130700494Y-103231302D01*
X130700493Y-103231309D01*
X130690000Y-103334013D01*
X130690000Y-103384000D01*
X133139999Y-103384000D01*
X133139999Y-103334028D01*
X133139998Y-103334013D01*
X133129505Y-103231302D01*
X133074358Y-103064880D01*
X133074356Y-103064875D01*
X132982315Y-102915654D01*
X132858344Y-102791683D01*
X132858341Y-102791681D01*
X132855339Y-102789829D01*
X132853713Y-102788021D01*
X132852677Y-102787202D01*
X132852817Y-102787024D01*
X132808617Y-102737880D01*
X132797397Y-102668917D01*
X132825243Y-102604836D01*
X132855344Y-102578754D01*
X132858656Y-102576712D01*
X132982712Y-102452656D01*
X132988420Y-102443402D01*
X133040368Y-102396678D01*
X133093958Y-102384500D01*
X134705202Y-102384500D01*
X134772241Y-102404185D01*
X134810739Y-102443401D01*
X134847288Y-102502656D01*
X134971344Y-102626712D01*
X134974628Y-102628737D01*
X134974653Y-102628753D01*
X134976445Y-102630746D01*
X134977011Y-102631193D01*
X134976934Y-102631289D01*
X135021379Y-102680699D01*
X135032603Y-102749661D01*
X135004761Y-102813744D01*
X134974665Y-102839826D01*
X134971660Y-102841679D01*
X134971655Y-102841683D01*
X134847684Y-102965654D01*
X134755643Y-103114875D01*
X134755641Y-103114880D01*
X134700494Y-103281302D01*
X134700493Y-103281309D01*
X134690000Y-103384013D01*
X134690000Y-103434000D01*
X137139999Y-103434000D01*
X137139999Y-103384028D01*
X137139998Y-103384013D01*
X137129505Y-103281302D01*
X137074358Y-103114880D01*
X137074356Y-103114875D01*
X136982315Y-102965654D01*
X136858344Y-102841683D01*
X136858341Y-102841681D01*
X136855339Y-102839829D01*
X136853713Y-102838021D01*
X136852677Y-102837202D01*
X136852817Y-102837024D01*
X136808617Y-102787880D01*
X136797397Y-102718917D01*
X136825243Y-102654836D01*
X136855344Y-102628754D01*
X136858656Y-102626712D01*
X136982712Y-102502656D01*
X137019259Y-102443402D01*
X137071207Y-102396679D01*
X137124798Y-102384500D01*
X140238131Y-102384500D01*
X140238147Y-102384501D01*
X140245743Y-102384501D01*
X140403854Y-102384501D01*
X140403857Y-102384501D01*
X140556585Y-102343577D01*
X140606704Y-102314639D01*
X140693516Y-102264520D01*
X140805320Y-102152716D01*
X140805320Y-102152714D01*
X140815528Y-102142507D01*
X140815529Y-102142504D01*
X145453216Y-97504819D01*
X145514539Y-97471334D01*
X145540897Y-97468500D01*
X145722031Y-97468500D01*
X145722047Y-97468501D01*
X145729643Y-97468501D01*
X145887754Y-97468501D01*
X145887757Y-97468501D01*
X146040485Y-97427577D01*
X146111403Y-97386632D01*
X146177416Y-97348520D01*
X146289220Y-97236716D01*
X146289220Y-97236714D01*
X146299424Y-97226511D01*
X146299427Y-97226506D01*
X147785117Y-95740819D01*
X147846440Y-95707334D01*
X147872798Y-95704500D01*
X148934544Y-95704500D01*
X149001583Y-95724185D01*
X149047338Y-95776989D01*
X149057282Y-95846147D01*
X149028257Y-95909703D01*
X149022218Y-95916189D01*
X147437166Y-97500973D01*
X147437053Y-97501078D01*
X147385425Y-97552708D01*
X147385417Y-97552716D01*
X147357178Y-97580949D01*
X147329062Y-97609061D01*
X147286528Y-97672720D01*
X147286523Y-97672728D01*
X147265901Y-97703586D01*
X147246924Y-97731982D01*
X147218958Y-97799501D01*
X147217918Y-97802012D01*
X147214608Y-97810001D01*
X147190349Y-97868552D01*
X147177888Y-97931191D01*
X147145501Y-97993102D01*
X147143952Y-97994678D01*
X147087680Y-98050950D01*
X147026357Y-98084435D01*
X146956665Y-98079451D01*
X146912318Y-98050950D01*
X146818657Y-97957289D01*
X146818656Y-97957288D01*
X146700941Y-97884681D01*
X146669336Y-97865187D01*
X146669331Y-97865185D01*
X146652854Y-97859725D01*
X146502797Y-97810001D01*
X146502795Y-97810000D01*
X146400010Y-97799500D01*
X145774998Y-97799500D01*
X145774980Y-97799501D01*
X145672203Y-97810000D01*
X145672200Y-97810001D01*
X145505668Y-97865185D01*
X145505663Y-97865187D01*
X145356342Y-97957289D01*
X145232289Y-98081342D01*
X145140187Y-98230663D01*
X145140185Y-98230668D01*
X145125858Y-98273905D01*
X145085001Y-98397203D01*
X145085001Y-98397204D01*
X145085000Y-98397204D01*
X145074500Y-98499983D01*
X145074500Y-99500001D01*
X145074501Y-99500019D01*
X145085000Y-99602796D01*
X145085001Y-99602799D01*
X145140185Y-99769331D01*
X145140187Y-99769336D01*
X145156428Y-99795667D01*
X145227809Y-99911395D01*
X145232289Y-99918657D01*
X145301181Y-99987549D01*
X145334666Y-100048872D01*
X145337500Y-100075230D01*
X145337500Y-101161918D01*
X145337500Y-101161920D01*
X145337499Y-101161920D01*
X145366340Y-101306907D01*
X145366343Y-101306917D01*
X145422912Y-101443488D01*
X145422920Y-101443502D01*
X145446200Y-101478342D01*
X145446201Y-101478345D01*
X145505046Y-101566414D01*
X145505052Y-101566421D01*
X146521581Y-102582950D01*
X146521584Y-102582952D01*
X146574779Y-102618495D01*
X146644505Y-102665084D01*
X146744466Y-102706489D01*
X146774469Y-102718917D01*
X146781087Y-102721658D01*
X146781091Y-102721658D01*
X146781092Y-102721659D01*
X146926079Y-102750500D01*
X146926082Y-102750500D01*
X146926083Y-102750500D01*
X147073918Y-102750500D01*
X148994100Y-102750500D01*
X149061139Y-102770185D01*
X149099636Y-102809400D01*
X149165175Y-102915654D01*
X149168475Y-102921004D01*
X149285290Y-103037819D01*
X149318775Y-103099142D01*
X149313791Y-103168834D01*
X149271919Y-103224767D01*
X149206455Y-103249184D01*
X149197609Y-103249500D01*
X147201082Y-103249500D01*
X147178284Y-103254035D01*
X147178283Y-103254035D01*
X147056095Y-103278339D01*
X147056087Y-103278341D01*
X146994652Y-103303789D01*
X146919506Y-103334915D01*
X146887438Y-103356342D01*
X146846045Y-103384000D01*
X146837372Y-103389795D01*
X146796585Y-103417047D01*
X146796581Y-103417050D01*
X146050451Y-104163181D01*
X145989128Y-104196666D01*
X145962770Y-104199500D01*
X145696798Y-104199500D01*
X145659932Y-104202401D01*
X145659926Y-104202402D01*
X145502106Y-104248254D01*
X145502103Y-104248255D01*
X145360637Y-104331917D01*
X145360629Y-104331923D01*
X145244423Y-104448129D01*
X145244414Y-104448140D01*
X145244229Y-104448455D01*
X145244019Y-104448650D01*
X145239639Y-104454298D01*
X145238727Y-104453591D01*
X145193157Y-104496136D01*
X145124415Y-104508637D01*
X145059827Y-104481988D01*
X145035643Y-104454078D01*
X145035361Y-104454298D01*
X145031323Y-104449092D01*
X145030771Y-104448455D01*
X145030585Y-104448140D01*
X145030576Y-104448129D01*
X144914370Y-104331923D01*
X144914362Y-104331917D01*
X144780576Y-104252797D01*
X144772898Y-104248256D01*
X144772897Y-104248255D01*
X144772896Y-104248255D01*
X144772893Y-104248254D01*
X144615073Y-104202402D01*
X144615067Y-104202401D01*
X144578201Y-104199500D01*
X144578194Y-104199500D01*
X144312230Y-104199500D01*
X144245191Y-104179815D01*
X144224549Y-104163181D01*
X143566421Y-103505052D01*
X143566420Y-103505051D01*
X143555641Y-103497849D01*
X143462566Y-103435659D01*
X143462566Y-103435658D01*
X143443495Y-103422916D01*
X143443490Y-103422913D01*
X143306917Y-103366343D01*
X143306907Y-103366340D01*
X143161920Y-103337500D01*
X143161918Y-103337500D01*
X141075230Y-103337500D01*
X141008191Y-103317815D01*
X140987549Y-103301181D01*
X140918657Y-103232289D01*
X140918656Y-103232288D01*
X140815192Y-103168471D01*
X140769336Y-103140187D01*
X140769331Y-103140185D01*
X140752624Y-103134649D01*
X140602797Y-103085001D01*
X140602795Y-103085000D01*
X140500010Y-103074500D01*
X139499998Y-103074500D01*
X139499980Y-103074501D01*
X139397203Y-103085000D01*
X139397200Y-103085001D01*
X139230668Y-103140185D01*
X139230663Y-103140187D01*
X139081342Y-103232289D01*
X138957289Y-103356342D01*
X138865187Y-103505663D01*
X138865185Y-103505668D01*
X138857895Y-103527669D01*
X138810001Y-103672203D01*
X138810001Y-103672204D01*
X138810000Y-103672204D01*
X138799500Y-103774983D01*
X138799500Y-104400001D01*
X138799501Y-104400019D01*
X138810000Y-104502796D01*
X138810001Y-104502799D01*
X138865185Y-104669331D01*
X138865187Y-104669336D01*
X138900069Y-104725888D01*
X138945270Y-104799172D01*
X138957289Y-104818657D01*
X139051304Y-104912672D01*
X139084789Y-104973995D01*
X139079805Y-105043687D01*
X139051305Y-105088034D01*
X138957682Y-105181657D01*
X138865643Y-105330875D01*
X138865641Y-105330880D01*
X138810494Y-105497302D01*
X138810493Y-105497309D01*
X138800000Y-105600013D01*
X138800000Y-105662500D01*
X141199999Y-105662500D01*
X141199999Y-105600028D01*
X141199998Y-105600013D01*
X141189505Y-105497302D01*
X141134358Y-105330880D01*
X141134356Y-105330875D01*
X141042315Y-105181654D01*
X140948695Y-105088034D01*
X140915210Y-105026711D01*
X140920194Y-104957019D01*
X140948694Y-104912673D01*
X140986550Y-104874818D01*
X141047874Y-104841333D01*
X141074230Y-104838500D01*
X142713000Y-104838500D01*
X142780039Y-104858185D01*
X142825794Y-104910989D01*
X142837000Y-104962500D01*
X142837000Y-105215701D01*
X142839901Y-105252567D01*
X142839902Y-105252573D01*
X142885754Y-105410393D01*
X142885755Y-105410396D01*
X142885756Y-105410398D01*
X142914815Y-105459535D01*
X142969417Y-105551862D01*
X142969423Y-105551870D01*
X143085629Y-105668076D01*
X143085633Y-105668079D01*
X143085635Y-105668081D01*
X143227102Y-105751744D01*
X143267370Y-105763443D01*
X143384926Y-105797597D01*
X143384929Y-105797597D01*
X143384931Y-105797598D01*
X143421806Y-105800500D01*
X143421814Y-105800500D01*
X144578186Y-105800500D01*
X144578194Y-105800500D01*
X144615069Y-105797598D01*
X144615071Y-105797597D01*
X144615073Y-105797597D01*
X144656691Y-105785505D01*
X144772898Y-105751744D01*
X144914365Y-105668081D01*
X144914370Y-105668075D01*
X144920531Y-105663298D01*
X144921839Y-105664984D01*
X144973509Y-105636761D01*
X145043201Y-105641735D01*
X145090941Y-105673752D01*
X145115204Y-105700000D01*
X145380685Y-105700000D01*
X145443806Y-105717268D01*
X145502102Y-105751744D01*
X145542370Y-105763443D01*
X145659926Y-105797597D01*
X145659929Y-105797597D01*
X145659931Y-105797598D01*
X145696806Y-105800500D01*
X145696814Y-105800500D01*
X146853186Y-105800500D01*
X146853194Y-105800500D01*
X146890069Y-105797598D01*
X146890071Y-105797597D01*
X146890073Y-105797597D01*
X146931691Y-105785505D01*
X147047898Y-105751744D01*
X147106194Y-105717268D01*
X147169315Y-105700000D01*
X147434795Y-105700000D01*
X147434795Y-105699998D01*
X147434600Y-105697511D01*
X147434599Y-105697505D01*
X147388783Y-105539806D01*
X147388781Y-105539801D01*
X147388078Y-105538612D01*
X147387810Y-105537558D01*
X147385684Y-105532644D01*
X147386476Y-105532300D01*
X147370895Y-105470888D01*
X147386509Y-105417714D01*
X147386146Y-105417557D01*
X147387420Y-105414612D01*
X147388079Y-105412369D01*
X147389242Y-105410401D01*
X147389244Y-105410398D01*
X147435098Y-105252569D01*
X147438000Y-105215694D01*
X147438000Y-104949729D01*
X147457685Y-104882690D01*
X147474319Y-104862048D01*
X147549548Y-104786819D01*
X147610871Y-104753334D01*
X147637229Y-104750500D01*
X148674138Y-104750500D01*
X148741177Y-104770185D01*
X148761819Y-104786819D01*
X148775000Y-104800000D01*
X151224999Y-104800000D01*
X151225826Y-104799172D01*
X151244684Y-104734951D01*
X151297488Y-104689196D01*
X151301496Y-104687451D01*
X151355495Y-104665084D01*
X151404729Y-104632186D01*
X151478416Y-104582952D01*
X152412321Y-103649046D01*
X152473642Y-103615563D01*
X152543333Y-103620547D01*
X152587679Y-103649046D01*
X152658534Y-103719901D01*
X152763181Y-103824548D01*
X152796666Y-103885871D01*
X152799500Y-103912229D01*
X152799500Y-104293355D01*
X152809913Y-104395276D01*
X152864637Y-104560422D01*
X152864642Y-104560433D01*
X152955971Y-104708499D01*
X152955974Y-104708503D01*
X153078996Y-104831525D01*
X153079000Y-104831528D01*
X153079703Y-104831962D01*
X153080083Y-104832385D01*
X153084664Y-104836007D01*
X153084045Y-104836789D01*
X153126428Y-104883910D01*
X153137649Y-104952872D01*
X153109806Y-105016954D01*
X153084544Y-105038842D01*
X153084664Y-105038993D01*
X153081315Y-105041640D01*
X153079703Y-105043038D01*
X153079000Y-105043471D01*
X153078996Y-105043474D01*
X152955974Y-105166496D01*
X152955971Y-105166500D01*
X152864642Y-105314566D01*
X152864637Y-105314577D01*
X152809913Y-105479723D01*
X152799500Y-105581644D01*
X152799500Y-105962432D01*
X152779815Y-106029471D01*
X152763160Y-106050134D01*
X151437848Y-107374810D01*
X151437560Y-107375072D01*
X151433593Y-107379039D01*
X151432655Y-107379550D01*
X151429571Y-107382367D01*
X151429415Y-107382497D01*
X151428740Y-107381687D01*
X151372265Y-107412516D01*
X151302574Y-107407523D01*
X151246646Y-107365645D01*
X151222237Y-107300178D01*
X151222564Y-107278743D01*
X151225500Y-107250009D01*
X151225499Y-106649992D01*
X151225237Y-106647432D01*
X151214999Y-106547203D01*
X151214998Y-106547200D01*
X151197410Y-106494124D01*
X151159814Y-106380666D01*
X151067712Y-106231344D01*
X150943656Y-106107288D01*
X150940342Y-106105243D01*
X150938546Y-106103248D01*
X150937989Y-106102807D01*
X150938064Y-106102711D01*
X150893618Y-106053297D01*
X150882397Y-105984334D01*
X150910240Y-105920252D01*
X150940348Y-105894165D01*
X150943342Y-105892318D01*
X151067315Y-105768345D01*
X151159356Y-105619124D01*
X151159358Y-105619119D01*
X151214505Y-105452697D01*
X151214506Y-105452690D01*
X151224999Y-105349986D01*
X151225000Y-105349973D01*
X151225000Y-105300000D01*
X148775001Y-105300000D01*
X148775001Y-105349986D01*
X148785494Y-105452697D01*
X148840641Y-105619119D01*
X148840643Y-105619124D01*
X148932684Y-105768345D01*
X149056655Y-105892316D01*
X149056659Y-105892319D01*
X149059656Y-105894168D01*
X149061279Y-105895972D01*
X149062323Y-105896798D01*
X149062181Y-105896976D01*
X149106381Y-105946116D01*
X149117602Y-106015079D01*
X149089759Y-106079161D01*
X149059661Y-106105241D01*
X149056349Y-106107283D01*
X149056343Y-106107288D01*
X149000451Y-106163181D01*
X148939128Y-106196666D01*
X148912770Y-106199500D01*
X147168469Y-106199500D01*
X147105348Y-106182232D01*
X147081883Y-106168355D01*
X147047898Y-106148256D01*
X147047897Y-106148255D01*
X147047896Y-106148255D01*
X147047893Y-106148254D01*
X146890073Y-106102402D01*
X146890067Y-106102401D01*
X146853201Y-106099500D01*
X146853194Y-106099500D01*
X145696806Y-106099500D01*
X145696798Y-106099500D01*
X145659932Y-106102401D01*
X145659926Y-106102402D01*
X145502106Y-106148254D01*
X145502103Y-106148255D01*
X145443806Y-106182732D01*
X145380685Y-106200000D01*
X145115204Y-106200000D01*
X145090940Y-106226248D01*
X145030979Y-106262114D01*
X144961145Y-106259869D01*
X144921487Y-106235468D01*
X144920531Y-106236702D01*
X144914362Y-106231917D01*
X144831194Y-106182732D01*
X144772898Y-106148256D01*
X144772897Y-106148255D01*
X144772896Y-106148255D01*
X144772893Y-106148254D01*
X144615073Y-106102402D01*
X144615067Y-106102401D01*
X144578201Y-106099500D01*
X144578194Y-106099500D01*
X143421806Y-106099500D01*
X143421798Y-106099500D01*
X143384932Y-106102401D01*
X143384926Y-106102402D01*
X143227106Y-106148254D01*
X143227103Y-106148255D01*
X143085637Y-106231917D01*
X143085629Y-106231923D01*
X142969423Y-106348129D01*
X142969417Y-106348137D01*
X142885755Y-106489603D01*
X142885754Y-106489606D01*
X142839902Y-106647426D01*
X142839901Y-106647432D01*
X142837000Y-106684298D01*
X142837000Y-107115701D01*
X142839901Y-107152567D01*
X142839902Y-107152573D01*
X142885754Y-107310393D01*
X142885755Y-107310396D01*
X142969232Y-107451550D01*
X142969418Y-107451864D01*
X142969423Y-107451870D01*
X143085629Y-107568076D01*
X143085633Y-107568079D01*
X143085635Y-107568081D01*
X143085638Y-107568082D01*
X143085641Y-107568085D01*
X143188620Y-107628986D01*
X143236304Y-107680054D01*
X143249500Y-107735718D01*
X143249500Y-109123918D01*
X143249500Y-109123920D01*
X143249499Y-109123920D01*
X143278340Y-109268907D01*
X143278343Y-109268917D01*
X143334913Y-109405490D01*
X143334914Y-109405492D01*
X143362325Y-109446515D01*
X143362326Y-109446517D01*
X143417045Y-109528413D01*
X143417047Y-109528415D01*
X143417048Y-109528416D01*
X143738182Y-109849549D01*
X143771666Y-109910871D01*
X143774500Y-109937229D01*
X143774500Y-110350001D01*
X143774501Y-110350019D01*
X143785000Y-110452796D01*
X143785001Y-110452799D01*
X143837594Y-110611511D01*
X143840186Y-110619334D01*
X143932288Y-110768656D01*
X144056344Y-110892712D01*
X144059628Y-110894737D01*
X144059653Y-110894753D01*
X144061445Y-110896746D01*
X144062011Y-110897193D01*
X144061934Y-110897289D01*
X144106379Y-110946699D01*
X144117603Y-111015661D01*
X144089761Y-111079744D01*
X144059665Y-111105826D01*
X144056660Y-111107679D01*
X144056655Y-111107683D01*
X143932684Y-111231654D01*
X143840643Y-111380875D01*
X143840641Y-111380880D01*
X143785494Y-111547302D01*
X143785493Y-111547309D01*
X143775000Y-111650013D01*
X143775000Y-111700000D01*
X146224999Y-111700000D01*
X146224999Y-111650028D01*
X146224998Y-111650013D01*
X146214505Y-111547302D01*
X146198826Y-111499986D01*
X149075001Y-111499986D01*
X149085494Y-111602697D01*
X149140641Y-111769119D01*
X149140643Y-111769124D01*
X149232684Y-111918345D01*
X149356654Y-112042315D01*
X149505875Y-112134356D01*
X149505880Y-112134358D01*
X149672302Y-112189505D01*
X149672309Y-112189506D01*
X149775019Y-112199999D01*
X149837499Y-112199998D01*
X149837500Y-112199998D01*
X149837500Y-111250000D01*
X149075001Y-111250000D01*
X149075001Y-111499986D01*
X146198826Y-111499986D01*
X146159358Y-111380880D01*
X146159356Y-111380875D01*
X146067315Y-111231654D01*
X145943344Y-111107683D01*
X145943341Y-111107681D01*
X145940339Y-111105829D01*
X145938713Y-111104021D01*
X145937677Y-111103202D01*
X145937817Y-111103024D01*
X145893617Y-111053880D01*
X145882397Y-110984917D01*
X145910243Y-110920836D01*
X145940344Y-110894754D01*
X145943656Y-110892712D01*
X146067712Y-110768656D01*
X146159814Y-110619334D01*
X146214999Y-110452797D01*
X146225500Y-110350009D01*
X146225499Y-109749992D01*
X146224851Y-109743653D01*
X146214999Y-109647203D01*
X146214998Y-109647200D01*
X146214672Y-109646215D01*
X146159814Y-109480666D01*
X146067712Y-109331344D01*
X145943656Y-109207288D01*
X145794334Y-109115186D01*
X145627797Y-109060001D01*
X145627795Y-109060000D01*
X145525016Y-109049500D01*
X145525009Y-109049500D01*
X145112229Y-109049500D01*
X145045190Y-109029815D01*
X145024548Y-109013181D01*
X144786819Y-108775451D01*
X144753334Y-108714128D01*
X144750500Y-108687770D01*
X144750500Y-107735718D01*
X144770185Y-107668679D01*
X144811380Y-107628986D01*
X144914358Y-107568085D01*
X144914357Y-107568085D01*
X144914365Y-107568081D01*
X145030581Y-107451865D01*
X145030767Y-107451549D01*
X145030977Y-107451353D01*
X145035361Y-107445702D01*
X145036272Y-107446409D01*
X145081836Y-107403866D01*
X145150577Y-107391362D01*
X145215167Y-107418006D01*
X145239355Y-107445921D01*
X145239639Y-107445702D01*
X145243679Y-107450911D01*
X145244232Y-107451548D01*
X145244419Y-107451865D01*
X145244421Y-107451867D01*
X145244423Y-107451870D01*
X145360629Y-107568076D01*
X145360633Y-107568079D01*
X145360635Y-107568081D01*
X145502102Y-107651744D01*
X145524499Y-107658251D01*
X145659926Y-107697597D01*
X145659929Y-107697597D01*
X145659931Y-107697598D01*
X145696806Y-107700500D01*
X146251082Y-107700500D01*
X146251083Y-107700500D01*
X146398918Y-107700500D01*
X148912770Y-107700500D01*
X148979809Y-107720185D01*
X149000451Y-107736819D01*
X149056344Y-107792712D01*
X149190597Y-107875519D01*
X149237321Y-107927465D01*
X149249500Y-107981057D01*
X149249500Y-108700028D01*
X149242542Y-108740982D01*
X149214631Y-108820747D01*
X149194435Y-108999996D01*
X149194435Y-109000003D01*
X149214630Y-109179249D01*
X149214631Y-109179254D01*
X149274211Y-109349523D01*
X149370182Y-109502259D01*
X149370184Y-109502262D01*
X149497738Y-109629816D01*
X149523839Y-109646216D01*
X149570130Y-109698549D01*
X149580780Y-109767602D01*
X149552406Y-109831451D01*
X149510278Y-109863590D01*
X149505881Y-109865640D01*
X149356654Y-109957684D01*
X149232684Y-110081654D01*
X149140643Y-110230875D01*
X149140641Y-110230880D01*
X149085494Y-110397302D01*
X149085493Y-110397309D01*
X149075000Y-110500013D01*
X149075000Y-110750000D01*
X149963500Y-110750000D01*
X150030539Y-110769685D01*
X150076294Y-110822489D01*
X150087500Y-110874000D01*
X150087500Y-111000000D01*
X150213500Y-111000000D01*
X150280539Y-111019685D01*
X150326294Y-111072489D01*
X150337500Y-111124000D01*
X150337500Y-112199999D01*
X150399972Y-112199999D01*
X150399986Y-112199998D01*
X150502697Y-112189505D01*
X150669119Y-112134358D01*
X150669124Y-112134356D01*
X150818342Y-112042317D01*
X150911964Y-111948695D01*
X150973287Y-111915210D01*
X151042979Y-111920194D01*
X151087327Y-111948695D01*
X151181344Y-112042712D01*
X151330666Y-112134814D01*
X151497203Y-112189999D01*
X151599991Y-112200500D01*
X152225008Y-112200499D01*
X152225016Y-112200498D01*
X152225019Y-112200498D01*
X152298487Y-112192993D01*
X152327797Y-112189999D01*
X152494334Y-112134814D01*
X152643656Y-112042712D01*
X152767712Y-111918656D01*
X152859814Y-111769334D01*
X152914999Y-111602797D01*
X152925500Y-111500009D01*
X152925499Y-110499992D01*
X152914999Y-110397203D01*
X152859814Y-110230666D01*
X152767712Y-110081344D01*
X152698819Y-110012451D01*
X152665334Y-109951128D01*
X152662500Y-109924770D01*
X152662500Y-108324351D01*
X152682185Y-108257312D01*
X152698840Y-108236649D01*
X152807883Y-108127659D01*
X153416499Y-107519334D01*
X154036833Y-106899298D01*
X154098164Y-106865827D01*
X154124493Y-106863000D01*
X154505843Y-106863000D01*
X154505848Y-106863000D01*
X154607775Y-106852587D01*
X154772925Y-106797862D01*
X154921003Y-106706526D01*
X155044026Y-106583503D01*
X155135362Y-106435425D01*
X155190087Y-106270275D01*
X155200500Y-106168348D01*
X155200500Y-105581652D01*
X155190087Y-105479725D01*
X155135362Y-105314575D01*
X155135358Y-105314569D01*
X155135357Y-105314566D01*
X155044028Y-105166500D01*
X155044025Y-105166496D01*
X154921004Y-105043475D01*
X154921003Y-105043474D01*
X154920301Y-105043041D01*
X154919921Y-105042618D01*
X154915336Y-105038993D01*
X154915955Y-105038209D01*
X154873575Y-104991098D01*
X154862349Y-104922136D01*
X154890188Y-104858052D01*
X154915455Y-104836157D01*
X154915336Y-104836007D01*
X154918687Y-104833356D01*
X154920299Y-104831959D01*
X154921003Y-104831526D01*
X155044026Y-104708503D01*
X155135362Y-104560425D01*
X155190087Y-104395275D01*
X155200500Y-104293348D01*
X155200500Y-103706652D01*
X155190087Y-103604725D01*
X155135362Y-103439575D01*
X155135358Y-103439569D01*
X155135357Y-103439566D01*
X155044028Y-103291500D01*
X155044025Y-103291496D01*
X154921003Y-103168474D01*
X154920999Y-103168471D01*
X154772933Y-103077142D01*
X154772927Y-103077139D01*
X154772925Y-103077138D01*
X154735918Y-103064875D01*
X154607776Y-103022413D01*
X154505855Y-103012000D01*
X154505848Y-103012000D01*
X154124729Y-103012000D01*
X154057690Y-102992315D01*
X154037048Y-102975681D01*
X152899319Y-101837951D01*
X152865834Y-101776628D01*
X152863000Y-101750270D01*
X152863000Y-101494157D01*
X152862999Y-101494144D01*
X152861010Y-101474675D01*
X152852587Y-101392225D01*
X152797862Y-101227075D01*
X152797858Y-101227069D01*
X152797857Y-101227066D01*
X152706528Y-101079000D01*
X152706525Y-101078996D01*
X152583503Y-100955974D01*
X152583499Y-100955971D01*
X152435433Y-100864642D01*
X152435427Y-100864639D01*
X152435425Y-100864638D01*
X152366474Y-100841790D01*
X152270276Y-100809913D01*
X152168355Y-100799500D01*
X152168348Y-100799500D01*
X151581652Y-100799500D01*
X151581644Y-100799500D01*
X151479723Y-100809913D01*
X151314577Y-100864637D01*
X151314566Y-100864642D01*
X151166500Y-100955971D01*
X151166496Y-100955974D01*
X151043474Y-101078996D01*
X151043471Y-101079000D01*
X151043038Y-101079703D01*
X151042614Y-101080083D01*
X151038993Y-101084664D01*
X151038210Y-101084045D01*
X150991090Y-101126428D01*
X150922128Y-101137649D01*
X150858046Y-101109806D01*
X150836157Y-101084544D01*
X150836007Y-101084664D01*
X150833359Y-101081315D01*
X150831962Y-101079703D01*
X150831528Y-101079000D01*
X150831525Y-101078996D01*
X150708503Y-100955974D01*
X150708499Y-100955971D01*
X150560433Y-100864642D01*
X150560427Y-100864639D01*
X150560425Y-100864638D01*
X150491474Y-100841790D01*
X150395276Y-100809913D01*
X150293355Y-100799500D01*
X150293348Y-100799500D01*
X149706652Y-100799500D01*
X149706644Y-100799500D01*
X149604723Y-100809913D01*
X149439577Y-100864637D01*
X149439566Y-100864642D01*
X149291500Y-100955971D01*
X149291496Y-100955974D01*
X149168475Y-101078995D01*
X149156876Y-101097800D01*
X149099636Y-101190599D01*
X149047691Y-101237321D01*
X148994100Y-101249500D01*
X147362230Y-101249500D01*
X147295191Y-101229815D01*
X147274549Y-101213181D01*
X146874819Y-100813451D01*
X146841334Y-100752128D01*
X146838500Y-100725770D01*
X146838500Y-100074230D01*
X146858185Y-100007191D01*
X146874819Y-99986549D01*
X146912319Y-99949049D01*
X146973642Y-99915564D01*
X147043334Y-99920548D01*
X147087681Y-99949049D01*
X147181344Y-100042712D01*
X147330666Y-100134814D01*
X147497203Y-100189999D01*
X147599991Y-100200500D01*
X148225008Y-100200499D01*
X148225016Y-100200498D01*
X148225019Y-100200498D01*
X148281302Y-100194748D01*
X148327797Y-100189999D01*
X148494334Y-100134814D01*
X148643656Y-100042712D01*
X148767712Y-99918656D01*
X148859814Y-99769334D01*
X148914999Y-99602797D01*
X148925500Y-99500009D01*
X148925499Y-98499992D01*
X148925146Y-98496541D01*
X148914999Y-98397203D01*
X148876519Y-98281080D01*
X148874118Y-98211257D01*
X148906549Y-98154395D01*
X151215185Y-95846147D01*
X151274531Y-95786811D01*
X151335857Y-95753332D01*
X151362205Y-95750500D01*
X156485241Y-95750500D01*
X156552280Y-95770185D01*
X156598035Y-95822989D01*
X156607979Y-95892147D01*
X156578954Y-95955703D01*
X156572922Y-95962181D01*
X156406505Y-96128597D01*
X156270965Y-96322169D01*
X156270964Y-96322171D01*
X156171098Y-96536335D01*
X156171094Y-96536344D01*
X156109938Y-96764586D01*
X156109936Y-96764596D01*
X156089341Y-96999999D01*
X156089341Y-97000000D01*
X156109936Y-97235403D01*
X156109938Y-97235413D01*
X156171094Y-97463655D01*
X156171096Y-97463659D01*
X156171097Y-97463663D01*
X156238898Y-97609062D01*
X156270965Y-97677830D01*
X156270967Y-97677834D01*
X156363512Y-97810001D01*
X156406505Y-97871401D01*
X156573599Y-98038495D01*
X156670384Y-98106265D01*
X156767165Y-98174032D01*
X156767167Y-98174033D01*
X156767170Y-98174035D01*
X156981337Y-98273903D01*
X157209592Y-98335063D01*
X157386034Y-98350500D01*
X157444999Y-98355659D01*
X157445000Y-98355659D01*
X157445001Y-98355659D01*
X157503966Y-98350500D01*
X157680408Y-98335063D01*
X157908663Y-98273903D01*
X158122830Y-98174035D01*
X158316401Y-98038495D01*
X158483495Y-97871401D01*
X158613425Y-97685842D01*
X158668002Y-97642217D01*
X158737500Y-97635023D01*
X158799855Y-97666546D01*
X158816575Y-97685842D01*
X158946500Y-97871395D01*
X158946505Y-97871401D01*
X159113599Y-98038495D01*
X159210384Y-98106265D01*
X159307165Y-98174032D01*
X159307167Y-98174033D01*
X159307170Y-98174035D01*
X159521337Y-98273903D01*
X159749592Y-98335063D01*
X159926034Y-98350500D01*
X159984999Y-98355659D01*
X159985000Y-98355659D01*
X159985001Y-98355659D01*
X160043966Y-98350500D01*
X160220408Y-98335063D01*
X160448663Y-98273903D01*
X160662830Y-98174035D01*
X160856401Y-98038495D01*
X160978329Y-97916566D01*
X161039648Y-97883084D01*
X161109340Y-97888068D01*
X161165274Y-97929939D01*
X161182189Y-97960917D01*
X161231202Y-98092328D01*
X161231206Y-98092335D01*
X161317452Y-98207544D01*
X161317455Y-98207547D01*
X161432664Y-98293793D01*
X161432671Y-98293797D01*
X161567517Y-98344091D01*
X161567516Y-98344091D01*
X161574444Y-98344835D01*
X161627127Y-98350500D01*
X163422872Y-98350499D01*
X163482483Y-98344091D01*
X163482484Y-98344090D01*
X163486646Y-98343643D01*
X163555405Y-98356049D01*
X163606542Y-98403660D01*
X163623900Y-98466933D01*
X163623900Y-109523802D01*
X163604215Y-109590841D01*
X163587581Y-109611483D01*
X158019481Y-115179582D01*
X158019479Y-115179585D01*
X157969361Y-115266394D01*
X157969360Y-115266395D01*
X157957175Y-115287500D01*
X157906608Y-115335716D01*
X157849788Y-115349500D01*
X157052129Y-115349500D01*
X157052123Y-115349501D01*
X156992516Y-115355908D01*
X156857671Y-115406202D01*
X156857664Y-115406206D01*
X156742455Y-115492452D01*
X156742452Y-115492455D01*
X156656206Y-115607664D01*
X156656202Y-115607671D01*
X156605908Y-115742517D01*
X156599501Y-115802116D01*
X156599501Y-115802123D01*
X156599500Y-115802135D01*
X156599500Y-118697870D01*
X156599501Y-118697876D01*
X156605908Y-118757483D01*
X156656202Y-118892328D01*
X156656206Y-118892335D01*
X156742452Y-119007544D01*
X156742455Y-119007547D01*
X156857664Y-119093793D01*
X156857671Y-119093797D01*
X156992517Y-119144091D01*
X156992516Y-119144091D01*
X156999444Y-119144835D01*
X157052127Y-119150500D01*
X159947872Y-119150499D01*
X160007483Y-119144091D01*
X160142331Y-119093796D01*
X160257546Y-119007546D01*
X160343796Y-118892331D01*
X160394091Y-118757483D01*
X160400500Y-118697873D01*
X160400499Y-117249998D01*
X161594645Y-117249998D01*
X161594645Y-117250001D01*
X161614039Y-117521160D01*
X161614040Y-117521167D01*
X161665516Y-117757800D01*
X161671825Y-117786801D01*
X161717158Y-117908343D01*
X161766830Y-118041519D01*
X161897109Y-118280107D01*
X161897110Y-118280108D01*
X161897113Y-118280113D01*
X162060029Y-118497742D01*
X162060033Y-118497746D01*
X162060038Y-118497752D01*
X162252247Y-118689961D01*
X162252253Y-118689966D01*
X162252258Y-118689971D01*
X162469887Y-118852887D01*
X162469891Y-118852889D01*
X162469892Y-118852890D01*
X162708481Y-118983169D01*
X162708480Y-118983169D01*
X162708484Y-118983170D01*
X162708487Y-118983172D01*
X162963199Y-119078175D01*
X163228840Y-119135961D01*
X163480605Y-119153967D01*
X163499999Y-119155355D01*
X163500000Y-119155355D01*
X163500001Y-119155355D01*
X163518100Y-119154060D01*
X163771160Y-119135961D01*
X164036801Y-119078175D01*
X164291513Y-118983172D01*
X164291517Y-118983169D01*
X164291519Y-118983169D01*
X164487396Y-118876212D01*
X164530113Y-118852887D01*
X164747742Y-118689971D01*
X164939971Y-118497742D01*
X165102887Y-118280113D01*
X165202601Y-118097500D01*
X165233169Y-118041519D01*
X165233169Y-118041517D01*
X165233172Y-118041513D01*
X165328175Y-117786801D01*
X165385961Y-117521160D01*
X165405355Y-117250000D01*
X165385961Y-116978840D01*
X165328175Y-116713199D01*
X165233172Y-116458487D01*
X165233170Y-116458484D01*
X165233169Y-116458480D01*
X165102890Y-116219892D01*
X165102889Y-116219891D01*
X165102887Y-116219887D01*
X164939971Y-116002258D01*
X164939966Y-116002253D01*
X164939961Y-116002247D01*
X164747752Y-115810038D01*
X164747746Y-115810033D01*
X164747742Y-115810029D01*
X164530113Y-115647113D01*
X164530108Y-115647110D01*
X164530107Y-115647109D01*
X164291518Y-115516830D01*
X164291519Y-115516830D01*
X164241920Y-115498330D01*
X164036801Y-115421825D01*
X164036794Y-115421823D01*
X164036793Y-115421823D01*
X163771167Y-115364040D01*
X163771160Y-115364039D01*
X163500001Y-115344645D01*
X163499999Y-115344645D01*
X163228839Y-115364039D01*
X163228832Y-115364040D01*
X162963206Y-115421823D01*
X162963202Y-115421824D01*
X162963199Y-115421825D01*
X162835843Y-115469326D01*
X162708480Y-115516830D01*
X162469892Y-115647109D01*
X162469891Y-115647110D01*
X162252259Y-115810028D01*
X162252247Y-115810038D01*
X162060038Y-116002247D01*
X162060028Y-116002259D01*
X161897110Y-116219891D01*
X161897109Y-116219892D01*
X161766830Y-116458480D01*
X161746563Y-116512819D01*
X161671825Y-116713199D01*
X161671824Y-116713202D01*
X161671823Y-116713206D01*
X161614040Y-116978832D01*
X161614039Y-116978839D01*
X161594645Y-117249998D01*
X160400499Y-117249998D01*
X160400499Y-115802128D01*
X160394091Y-115742517D01*
X160343796Y-115607669D01*
X160343795Y-115607668D01*
X160343793Y-115607664D01*
X160257547Y-115492455D01*
X160257544Y-115492452D01*
X160142335Y-115406206D01*
X160142328Y-115406202D01*
X160007482Y-115355908D01*
X160007483Y-115355908D01*
X159947883Y-115349501D01*
X159947881Y-115349500D01*
X159947873Y-115349500D01*
X159947865Y-115349500D01*
X159847396Y-115349500D01*
X159780357Y-115329815D01*
X159734602Y-115277011D01*
X159724658Y-115207853D01*
X159753683Y-115144297D01*
X159759715Y-115137819D01*
X162105219Y-112792315D01*
X164582906Y-110314628D01*
X164582911Y-110314624D01*
X164593114Y-110304420D01*
X164593116Y-110304420D01*
X164704920Y-110192616D01*
X164768784Y-110082000D01*
X164783977Y-110055685D01*
X164824900Y-109902957D01*
X164824900Y-109744843D01*
X164824900Y-89145343D01*
X164783977Y-88992615D01*
X164755039Y-88942495D01*
X164704920Y-88855684D01*
X164593116Y-88743880D01*
X164593115Y-88743879D01*
X164588785Y-88739549D01*
X164588774Y-88739539D01*
X164436818Y-88587583D01*
X164403333Y-88526260D01*
X164400499Y-88499902D01*
X164400499Y-86949998D01*
X164400498Y-86949981D01*
X164389999Y-86847203D01*
X164389998Y-86847200D01*
X164371811Y-86792315D01*
X164334814Y-86680666D01*
X164242712Y-86531344D01*
X164118656Y-86407288D01*
X164022919Y-86348237D01*
X163969336Y-86315187D01*
X163969331Y-86315185D01*
X163967862Y-86314698D01*
X163802797Y-86260001D01*
X163802795Y-86260000D01*
X163700010Y-86249500D01*
X162299998Y-86249500D01*
X162299981Y-86249501D01*
X162197203Y-86260000D01*
X162197200Y-86260001D01*
X162030668Y-86315185D01*
X162030659Y-86315189D01*
X161923900Y-86381039D01*
X161858804Y-86399500D01*
X159489767Y-86399500D01*
X159422728Y-86379815D01*
X159420876Y-86378602D01*
X159355501Y-86334919D01*
X159355488Y-86334912D01*
X159218917Y-86278343D01*
X159218907Y-86278340D01*
X159073920Y-86249500D01*
X159073918Y-86249500D01*
X152362230Y-86249500D01*
X152295191Y-86229815D01*
X152274549Y-86213181D01*
X149528421Y-83467052D01*
X149528420Y-83467051D01*
X149453584Y-83417048D01*
X149453583Y-83417047D01*
X149405501Y-83384919D01*
X149405488Y-83384912D01*
X149268917Y-83328343D01*
X149268907Y-83328340D01*
X149123920Y-83299500D01*
X149123918Y-83299500D01*
X147537230Y-83299500D01*
X147470191Y-83279815D01*
X147449549Y-83263181D01*
X147393657Y-83207289D01*
X147393656Y-83207288D01*
X147259402Y-83124480D01*
X147212679Y-83072533D01*
X147200500Y-83018942D01*
X147200500Y-82792229D01*
X147220185Y-82725190D01*
X147236819Y-82704548D01*
X149199548Y-80741819D01*
X149260871Y-80708334D01*
X149287229Y-80705500D01*
X149865686Y-80705500D01*
X149865694Y-80705500D01*
X149902569Y-80702598D01*
X149902571Y-80702597D01*
X149902573Y-80702597D01*
X149944191Y-80690505D01*
X150060398Y-80656744D01*
X150201865Y-80573081D01*
X150318081Y-80456865D01*
X150401744Y-80315398D01*
X150447598Y-80157569D01*
X150450500Y-80120694D01*
X150450500Y-79689306D01*
X150447598Y-79652431D01*
X150447597Y-79652426D01*
X150416124Y-79544095D01*
X150416323Y-79474225D01*
X150454265Y-79415555D01*
X150517904Y-79386712D01*
X150535200Y-79385500D01*
X151272770Y-79385500D01*
X151339809Y-79405185D01*
X151360451Y-79421819D01*
X152083143Y-80144511D01*
X152788451Y-80849818D01*
X152821936Y-80911141D01*
X152816952Y-80980833D01*
X152788452Y-81025179D01*
X152757289Y-81056342D01*
X152665187Y-81205663D01*
X152665185Y-81205668D01*
X152657184Y-81229815D01*
X152610001Y-81372203D01*
X152610001Y-81372204D01*
X152610000Y-81372204D01*
X152599500Y-81474983D01*
X152599500Y-82525001D01*
X152599501Y-82525019D01*
X152610000Y-82627796D01*
X152610001Y-82627799D01*
X152665185Y-82794331D01*
X152665187Y-82794336D01*
X152700069Y-82850888D01*
X152726719Y-82894096D01*
X152757289Y-82943657D01*
X152813181Y-82999549D01*
X152846666Y-83060872D01*
X152849500Y-83087230D01*
X152849500Y-83673918D01*
X152849500Y-83673920D01*
X152849499Y-83673920D01*
X152878340Y-83818907D01*
X152878343Y-83818917D01*
X152934914Y-83955492D01*
X152967812Y-84004727D01*
X152967813Y-84004730D01*
X153017046Y-84078414D01*
X153017052Y-84078421D01*
X154521584Y-85582952D01*
X154521589Y-85582956D01*
X154574419Y-85618255D01*
X154574421Y-85618256D01*
X154574423Y-85618257D01*
X154644505Y-85665084D01*
X154644506Y-85665084D01*
X154644507Y-85665085D01*
X154726627Y-85699100D01*
X154781087Y-85721658D01*
X154781091Y-85721658D01*
X154781092Y-85721659D01*
X154926079Y-85750500D01*
X154926082Y-85750500D01*
X157073920Y-85750500D01*
X157171462Y-85731096D01*
X157218913Y-85721658D01*
X157355495Y-85665084D01*
X157425577Y-85618257D01*
X157443032Y-85606593D01*
X157478414Y-85582954D01*
X157478418Y-85582950D01*
X158582949Y-84478418D01*
X158582950Y-84478417D01*
X158582949Y-84478417D01*
X158582952Y-84478415D01*
X158631676Y-84405494D01*
X158665084Y-84355495D01*
X158697042Y-84278342D01*
X158721659Y-84218912D01*
X158750500Y-84073917D01*
X158750500Y-83926082D01*
X158750500Y-77940638D01*
X158770185Y-77873599D01*
X158809401Y-77835100D01*
X158918656Y-77767712D01*
X159042712Y-77643656D01*
X159134814Y-77494334D01*
X159189999Y-77327797D01*
X159200500Y-77225009D01*
X159200499Y-76599992D01*
X159197201Y-76567710D01*
X159189999Y-76497203D01*
X159189998Y-76497200D01*
X159176314Y-76455905D01*
X159134814Y-76330666D01*
X159042712Y-76181344D01*
X158948695Y-76087327D01*
X158915210Y-76026004D01*
X158920194Y-75956312D01*
X158948695Y-75911964D01*
X159042317Y-75818342D01*
X159134356Y-75669124D01*
X159134358Y-75669119D01*
X159189505Y-75502697D01*
X159189506Y-75502690D01*
X159199999Y-75399986D01*
X159200000Y-75399973D01*
X159200000Y-75337500D01*
X156800001Y-75337500D01*
X156800001Y-75399986D01*
X156810494Y-75502697D01*
X156865641Y-75669119D01*
X156865643Y-75669124D01*
X156957684Y-75818345D01*
X157051304Y-75911965D01*
X157084789Y-75973288D01*
X157079805Y-76042980D01*
X157051305Y-76087327D01*
X156957287Y-76181345D01*
X156865187Y-76330663D01*
X156865185Y-76330668D01*
X156848044Y-76382396D01*
X156810001Y-76497203D01*
X156810001Y-76497204D01*
X156810000Y-76497204D01*
X156799500Y-76599983D01*
X156799500Y-77225001D01*
X156799501Y-77225019D01*
X156810000Y-77327796D01*
X156810001Y-77327799D01*
X156865185Y-77494331D01*
X156865187Y-77494336D01*
X156868569Y-77499819D01*
X156957288Y-77643656D01*
X157081344Y-77767712D01*
X157190597Y-77835099D01*
X157237321Y-77887047D01*
X157249500Y-77940638D01*
X157249500Y-81083790D01*
X157229815Y-81150829D01*
X157177011Y-81196584D01*
X157111617Y-81207010D01*
X157000004Y-81194435D01*
X156999996Y-81194435D01*
X156820750Y-81214630D01*
X156820745Y-81214631D01*
X156740983Y-81242542D01*
X156700028Y-81249500D01*
X156531058Y-81249500D01*
X156464019Y-81229815D01*
X156425519Y-81190597D01*
X156406531Y-81159812D01*
X156342712Y-81056344D01*
X156286819Y-81000451D01*
X156253334Y-80939128D01*
X156250500Y-80912770D01*
X156250500Y-80862230D01*
X156270185Y-80795191D01*
X156286819Y-80774549D01*
X156582947Y-80478421D01*
X156582952Y-80478416D01*
X156617922Y-80426079D01*
X156656246Y-80368723D01*
X156656250Y-80368716D01*
X156665084Y-80355495D01*
X156721658Y-80218913D01*
X156741194Y-80120701D01*
X156750500Y-80073920D01*
X156750500Y-78838579D01*
X156721659Y-78693592D01*
X156721658Y-78693591D01*
X156721658Y-78693587D01*
X156695244Y-78629817D01*
X156665087Y-78557011D01*
X156665080Y-78556998D01*
X156582952Y-78434085D01*
X156531293Y-78382426D01*
X156478416Y-78329549D01*
X155236818Y-77087951D01*
X155203333Y-77026628D01*
X155200499Y-77000270D01*
X155200499Y-76599998D01*
X155200498Y-76599981D01*
X155189999Y-76497203D01*
X155189998Y-76497200D01*
X155176314Y-76455905D01*
X155134814Y-76330666D01*
X155042712Y-76181344D01*
X154948695Y-76087327D01*
X154915210Y-76026004D01*
X154920194Y-75956312D01*
X154948695Y-75911964D01*
X155042317Y-75818342D01*
X155134356Y-75669124D01*
X155134358Y-75669119D01*
X155189505Y-75502697D01*
X155189506Y-75502690D01*
X155199999Y-75399986D01*
X155200000Y-75399973D01*
X155200000Y-75337500D01*
X152800001Y-75337500D01*
X152800001Y-75399986D01*
X152810494Y-75502697D01*
X152865641Y-75669119D01*
X152865643Y-75669124D01*
X152957684Y-75818345D01*
X153051304Y-75911965D01*
X153084789Y-75973288D01*
X153079805Y-76042980D01*
X153051305Y-76087327D01*
X152957287Y-76181345D01*
X152865187Y-76330663D01*
X152865185Y-76330668D01*
X152848044Y-76382396D01*
X152810001Y-76497203D01*
X152810001Y-76497204D01*
X152810000Y-76497204D01*
X152809398Y-76503105D01*
X152783000Y-76567796D01*
X152725818Y-76607946D01*
X152686040Y-76614500D01*
X150534679Y-76614500D01*
X150467640Y-76594815D01*
X150421885Y-76542011D01*
X150411941Y-76472853D01*
X150415603Y-76455905D01*
X150447099Y-76347494D01*
X150447100Y-76347488D01*
X150447295Y-76345001D01*
X150447295Y-76345000D01*
X149099000Y-76345000D01*
X149031961Y-76325315D01*
X148986206Y-76272511D01*
X148975000Y-76221000D01*
X148975000Y-76095000D01*
X148849000Y-76095000D01*
X148781961Y-76075315D01*
X148736206Y-76022511D01*
X148725000Y-75971000D01*
X148725000Y-75845000D01*
X149225000Y-75845000D01*
X150447295Y-75845000D01*
X150447295Y-75844998D01*
X150447100Y-75842513D01*
X150401281Y-75684801D01*
X150317685Y-75543447D01*
X150317678Y-75543438D01*
X150201561Y-75427321D01*
X150201552Y-75427314D01*
X150060196Y-75343717D01*
X150060193Y-75343716D01*
X149902495Y-75297900D01*
X149902489Y-75297899D01*
X149865649Y-75295000D01*
X149225000Y-75295000D01*
X149225000Y-75845000D01*
X148725000Y-75845000D01*
X148725000Y-75295000D01*
X148084350Y-75295000D01*
X148047510Y-75297899D01*
X147909094Y-75338113D01*
X147839225Y-75337913D01*
X147780555Y-75299970D01*
X147751712Y-75236332D01*
X147750500Y-75219036D01*
X147750500Y-74775013D01*
X152800000Y-74775013D01*
X152800000Y-74837500D01*
X153750000Y-74837500D01*
X154250000Y-74837500D01*
X155199999Y-74837500D01*
X155199999Y-74775028D01*
X155199998Y-74775013D01*
X156800000Y-74775013D01*
X156800000Y-74837500D01*
X157750000Y-74837500D01*
X158250000Y-74837500D01*
X159199999Y-74837500D01*
X159199999Y-74775028D01*
X159199998Y-74775013D01*
X159189505Y-74672302D01*
X159134358Y-74505880D01*
X159134356Y-74505875D01*
X159042315Y-74356654D01*
X158918345Y-74232684D01*
X158769124Y-74140643D01*
X158769119Y-74140641D01*
X158602697Y-74085494D01*
X158602690Y-74085493D01*
X158499986Y-74075000D01*
X158250000Y-74075000D01*
X158250000Y-74837500D01*
X157750000Y-74837500D01*
X157750000Y-74075000D01*
X157500029Y-74075000D01*
X157500012Y-74075001D01*
X157397302Y-74085494D01*
X157230880Y-74140641D01*
X157230875Y-74140643D01*
X157081654Y-74232684D01*
X156957684Y-74356654D01*
X156865643Y-74505875D01*
X156865641Y-74505880D01*
X156810494Y-74672302D01*
X156810493Y-74672309D01*
X156800000Y-74775013D01*
X155199998Y-74775013D01*
X155189505Y-74672302D01*
X155134358Y-74505880D01*
X155134356Y-74505875D01*
X155042315Y-74356654D01*
X154918345Y-74232684D01*
X154769124Y-74140643D01*
X154769119Y-74140641D01*
X154602697Y-74085494D01*
X154602690Y-74085493D01*
X154499986Y-74075000D01*
X154250000Y-74075000D01*
X154250000Y-74837500D01*
X153750000Y-74837500D01*
X153750000Y-74075000D01*
X153500029Y-74075000D01*
X153500012Y-74075001D01*
X153397302Y-74085494D01*
X153230880Y-74140641D01*
X153230875Y-74140643D01*
X153081654Y-74232684D01*
X152957684Y-74356654D01*
X152865643Y-74505875D01*
X152865641Y-74505880D01*
X152810494Y-74672302D01*
X152810493Y-74672309D01*
X152800000Y-74775013D01*
X147750500Y-74775013D01*
X147750500Y-73362229D01*
X147770185Y-73295190D01*
X147786819Y-73274548D01*
X148274548Y-72786819D01*
X148335871Y-72753334D01*
X148362229Y-72750500D01*
X150018942Y-72750500D01*
X150085981Y-72770185D01*
X150124479Y-72809401D01*
X150207288Y-72943656D01*
X150331344Y-73067712D01*
X150480666Y-73159814D01*
X150647203Y-73214999D01*
X150749991Y-73225500D01*
X151350008Y-73225499D01*
X151350016Y-73225498D01*
X151350019Y-73225498D01*
X151406302Y-73219748D01*
X151452797Y-73214999D01*
X151619334Y-73159814D01*
X151768656Y-73067712D01*
X151892712Y-72943656D01*
X151894752Y-72940347D01*
X151896745Y-72938555D01*
X151897193Y-72937989D01*
X151897289Y-72938065D01*
X151946694Y-72893623D01*
X152015656Y-72882395D01*
X152079740Y-72910234D01*
X152105829Y-72940339D01*
X152107681Y-72943341D01*
X152107683Y-72943344D01*
X152231654Y-73067315D01*
X152380875Y-73159356D01*
X152380880Y-73159358D01*
X152547302Y-73214505D01*
X152547309Y-73214506D01*
X152650019Y-73224999D01*
X153200000Y-73224999D01*
X153249972Y-73224999D01*
X153249986Y-73224998D01*
X153352697Y-73214505D01*
X153519119Y-73159358D01*
X153519124Y-73159356D01*
X153668345Y-73067315D01*
X153792315Y-72943345D01*
X153884356Y-72794124D01*
X153884358Y-72794119D01*
X153939505Y-72627697D01*
X153939506Y-72627690D01*
X153949999Y-72524986D01*
X153950000Y-72524973D01*
X153950000Y-72250000D01*
X153200000Y-72250000D01*
X153200000Y-73224999D01*
X152650019Y-73224999D01*
X152699999Y-73224998D01*
X152700000Y-73224998D01*
X152700000Y-71750000D01*
X153200000Y-71750000D01*
X153949999Y-71750000D01*
X153949999Y-71475028D01*
X153949998Y-71475013D01*
X153939505Y-71372302D01*
X153884358Y-71205880D01*
X153884356Y-71205875D01*
X153792315Y-71056654D01*
X153668345Y-70932684D01*
X153519124Y-70840643D01*
X153519119Y-70840641D01*
X153352697Y-70785494D01*
X153352690Y-70785493D01*
X153249986Y-70775000D01*
X153200000Y-70775000D01*
X153200000Y-71750000D01*
X152700000Y-71750000D01*
X152700000Y-70775000D01*
X152699999Y-70774999D01*
X152650029Y-70775000D01*
X152650011Y-70775001D01*
X152547302Y-70785494D01*
X152380880Y-70840641D01*
X152380875Y-70840643D01*
X152231654Y-70932684D01*
X152107683Y-71056655D01*
X152107679Y-71056660D01*
X152105826Y-71059665D01*
X152104018Y-71061290D01*
X152103202Y-71062323D01*
X152103025Y-71062183D01*
X152053874Y-71106385D01*
X151984911Y-71117601D01*
X151920831Y-71089752D01*
X151894753Y-71059653D01*
X151894737Y-71059628D01*
X151892712Y-71056344D01*
X151768656Y-70932288D01*
X151619334Y-70840186D01*
X151452797Y-70785001D01*
X151452795Y-70785000D01*
X151350010Y-70774500D01*
X150749998Y-70774500D01*
X150749980Y-70774501D01*
X150647203Y-70785000D01*
X150647200Y-70785001D01*
X150480668Y-70840185D01*
X150480663Y-70840187D01*
X150331342Y-70932289D01*
X150207289Y-71056342D01*
X150204237Y-71061290D01*
X150163215Y-71127799D01*
X150124481Y-71190597D01*
X150072533Y-71237321D01*
X150018942Y-71249500D01*
X147926076Y-71249500D01*
X147897242Y-71255234D01*
X147897243Y-71255235D01*
X147781093Y-71278339D01*
X147781083Y-71278342D01*
X147701081Y-71311479D01*
X147701082Y-71311480D01*
X147644505Y-71334915D01*
X147562372Y-71389795D01*
X147521585Y-71417047D01*
X147521581Y-71417050D01*
X146417048Y-72521583D01*
X146396478Y-72552369D01*
X146376045Y-72582951D01*
X146334919Y-72644499D01*
X146334912Y-72644511D01*
X146278343Y-72781082D01*
X146278340Y-72781092D01*
X146249500Y-72926079D01*
X146249500Y-72926082D01*
X146249500Y-78978918D01*
X146249500Y-78978920D01*
X146249499Y-78978920D01*
X146278340Y-79123907D01*
X146278343Y-79123917D01*
X146334912Y-79260488D01*
X146334920Y-79260502D01*
X146363369Y-79303078D01*
X146363370Y-79303081D01*
X146417046Y-79383414D01*
X146417052Y-79383421D01*
X147338450Y-80304818D01*
X147371935Y-80366141D01*
X147366951Y-80435832D01*
X147338450Y-80480180D01*
X146155451Y-81663181D01*
X146094128Y-81696666D01*
X146067770Y-81699500D01*
X145862230Y-81699500D01*
X145795191Y-81679815D01*
X145774549Y-81663181D01*
X144993429Y-80882061D01*
X144959944Y-80820738D01*
X144964928Y-80751046D01*
X145006800Y-80695113D01*
X145046513Y-80675304D01*
X145110398Y-80656744D01*
X145251865Y-80573081D01*
X145368081Y-80456865D01*
X145451744Y-80315398D01*
X145497598Y-80157569D01*
X145500500Y-80120694D01*
X145500500Y-79689306D01*
X145497598Y-79652431D01*
X145497255Y-79651252D01*
X145457089Y-79512999D01*
X145451744Y-79494602D01*
X145368081Y-79353135D01*
X145368078Y-79353132D01*
X145363298Y-79346969D01*
X145365750Y-79345066D01*
X145339155Y-79296421D01*
X145344104Y-79226726D01*
X145364940Y-79194304D01*
X145363298Y-79193031D01*
X145368075Y-79186870D01*
X145368081Y-79186865D01*
X145451744Y-79045398D01*
X145489542Y-78915297D01*
X145497597Y-78887573D01*
X145497598Y-78887567D01*
X145500500Y-78850694D01*
X145500500Y-78419306D01*
X145497598Y-78382431D01*
X145488037Y-78349523D01*
X145451745Y-78224606D01*
X145451744Y-78224603D01*
X145451744Y-78224602D01*
X145368081Y-78083135D01*
X145368078Y-78083132D01*
X145363298Y-78076969D01*
X145365750Y-78075066D01*
X145339155Y-78026421D01*
X145344104Y-77956726D01*
X145364940Y-77924304D01*
X145363298Y-77923031D01*
X145368075Y-77916870D01*
X145368081Y-77916865D01*
X145451744Y-77775398D01*
X145497598Y-77617569D01*
X145500500Y-77580694D01*
X145500500Y-77149306D01*
X145497598Y-77112431D01*
X145491167Y-77090297D01*
X145451745Y-76954606D01*
X145451744Y-76954603D01*
X145451744Y-76954602D01*
X145368081Y-76813135D01*
X145368078Y-76813132D01*
X145363298Y-76806969D01*
X145365750Y-76805066D01*
X145339155Y-76756421D01*
X145344104Y-76686726D01*
X145364940Y-76654304D01*
X145363298Y-76653031D01*
X145368075Y-76646870D01*
X145368081Y-76646865D01*
X145451744Y-76505398D01*
X145497598Y-76347569D01*
X145500500Y-76310694D01*
X145500500Y-75879306D01*
X145497598Y-75842431D01*
X145490600Y-75818345D01*
X145451745Y-75684606D01*
X145451744Y-75684603D01*
X145451744Y-75684602D01*
X145368081Y-75543135D01*
X145368079Y-75543133D01*
X145368076Y-75543129D01*
X145251870Y-75426923D01*
X145251862Y-75426917D01*
X145112501Y-75344500D01*
X145110398Y-75343256D01*
X145110397Y-75343255D01*
X145110396Y-75343255D01*
X145110393Y-75343254D01*
X144952573Y-75297402D01*
X144952567Y-75297401D01*
X144915701Y-75294500D01*
X144915694Y-75294500D01*
X143134306Y-75294500D01*
X143134298Y-75294500D01*
X143097432Y-75297401D01*
X143097426Y-75297402D01*
X142952267Y-75339576D01*
X142917672Y-75344500D01*
X138506080Y-75344500D01*
X138361092Y-75373340D01*
X138361086Y-75373342D01*
X138224508Y-75429914D01*
X138224496Y-75429921D01*
X138175270Y-75462811D01*
X138175271Y-75462812D01*
X138101585Y-75512047D01*
X138101580Y-75512051D01*
X137987948Y-75625682D01*
X137926625Y-75659166D01*
X137900268Y-75662000D01*
X137499998Y-75662000D01*
X137499980Y-75662001D01*
X137397203Y-75672500D01*
X137397200Y-75672501D01*
X137230668Y-75727685D01*
X137230663Y-75727687D01*
X137081342Y-75819789D01*
X136957288Y-75943843D01*
X136957285Y-75943847D01*
X136893582Y-76047126D01*
X136856938Y-76085129D01*
X136846587Y-76092045D01*
X136846581Y-76092050D01*
X135691937Y-77246693D01*
X135655876Y-77269362D01*
X135656756Y-77271188D01*
X135650478Y-77274211D01*
X135497737Y-77370184D01*
X135370184Y-77497737D01*
X135274211Y-77650476D01*
X135214631Y-77820745D01*
X135214630Y-77820750D01*
X135194435Y-77999996D01*
X135194435Y-78000003D01*
X135214630Y-78179249D01*
X135214631Y-78179254D01*
X135274211Y-78349523D01*
X135370184Y-78502262D01*
X135497738Y-78629816D01*
X135650478Y-78725789D01*
X135659915Y-78729091D01*
X135820745Y-78785368D01*
X135820750Y-78785369D01*
X135999996Y-78805565D01*
X136000000Y-78805565D01*
X136000004Y-78805565D01*
X136179249Y-78785369D01*
X136179252Y-78785368D01*
X136179255Y-78785368D01*
X136349522Y-78725789D01*
X136502262Y-78629816D01*
X136587822Y-78544255D01*
X136649141Y-78510773D01*
X136718833Y-78515757D01*
X136774767Y-78557628D01*
X136799184Y-78623092D01*
X136799500Y-78631938D01*
X136799500Y-78812500D01*
X136799501Y-78812519D01*
X136810000Y-78915296D01*
X136810001Y-78915299D01*
X136858559Y-79061836D01*
X136865186Y-79081834D01*
X136957288Y-79231156D01*
X137081344Y-79355212D01*
X137230666Y-79447314D01*
X137397203Y-79502499D01*
X137499991Y-79513000D01*
X138500008Y-79512999D01*
X138500016Y-79512998D01*
X138500019Y-79512998D01*
X138556302Y-79507248D01*
X138602797Y-79502499D01*
X138769334Y-79447314D01*
X138918656Y-79355212D01*
X138987049Y-79286819D01*
X139048372Y-79253334D01*
X139074730Y-79250500D01*
X141327770Y-79250500D01*
X141394809Y-79270185D01*
X141415451Y-79286819D01*
X142616586Y-80487954D01*
X142646058Y-80507645D01*
X142690270Y-80537186D01*
X142739505Y-80570084D01*
X142739506Y-80570084D01*
X142739507Y-80570085D01*
X142739509Y-80570086D01*
X142845139Y-80613839D01*
X142876087Y-80626658D01*
X142876095Y-80626659D01*
X142881917Y-80628426D01*
X142881707Y-80629116D01*
X142913331Y-80641208D01*
X142932009Y-80652253D01*
X142939602Y-80656744D01*
X142981224Y-80668836D01*
X143097426Y-80702597D01*
X143097429Y-80702597D01*
X143097431Y-80702598D01*
X143134306Y-80705500D01*
X143150500Y-80705500D01*
X143217539Y-80725185D01*
X143263294Y-80777989D01*
X143274500Y-80829500D01*
X143274500Y-81048918D01*
X143274500Y-81048920D01*
X143274499Y-81048920D01*
X143303340Y-81193907D01*
X143303343Y-81193917D01*
X143337605Y-81276632D01*
X143359916Y-81330495D01*
X143377673Y-81357071D01*
X143386434Y-81370183D01*
X143442049Y-81453418D01*
X143442052Y-81453421D01*
X145021584Y-83032952D01*
X145021586Y-83032954D01*
X145051058Y-83052645D01*
X145095270Y-83082186D01*
X145144505Y-83115084D01*
X145144506Y-83115084D01*
X145144507Y-83115085D01*
X145144509Y-83115086D01*
X145167191Y-83124481D01*
X145281087Y-83171658D01*
X145283918Y-83172221D01*
X145285263Y-83172924D01*
X145286919Y-83173427D01*
X145286823Y-83173740D01*
X145345830Y-83204605D01*
X145380406Y-83265320D01*
X145376668Y-83335089D01*
X145365269Y-83358935D01*
X145290189Y-83480659D01*
X145290186Y-83480666D01*
X145235001Y-83647203D01*
X145235001Y-83647204D01*
X145235000Y-83647204D01*
X145224500Y-83749983D01*
X145224500Y-84350001D01*
X145224501Y-84350008D01*
X145225674Y-84361497D01*
X145212907Y-84430188D01*
X145165027Y-84481074D01*
X145102317Y-84498100D01*
X132187370Y-84498100D01*
X132187354Y-84498099D01*
X132179758Y-84498099D01*
X132021643Y-84498099D01*
X131945279Y-84518561D01*
X131868914Y-84539023D01*
X131868909Y-84539026D01*
X131731990Y-84618075D01*
X131731982Y-84618081D01*
X130330265Y-86019798D01*
X130268942Y-86053283D01*
X130256468Y-86055337D01*
X130169550Y-86065130D01*
X129999278Y-86124710D01*
X129846537Y-86220684D01*
X129718984Y-86348237D01*
X129623011Y-86500976D01*
X129563431Y-86671245D01*
X129563430Y-86671250D01*
X129543235Y-86850496D01*
X129543235Y-86850503D01*
X129563989Y-87034707D01*
X129551934Y-87103529D01*
X129528451Y-87136271D01*
X129445683Y-87219039D01*
X129349711Y-87371776D01*
X129290131Y-87542045D01*
X129290130Y-87542050D01*
X129269935Y-87721296D01*
X129269935Y-87721303D01*
X129290130Y-87900549D01*
X129290131Y-87900554D01*
X129349711Y-88070823D01*
X129445685Y-88223563D01*
X129447945Y-88226397D01*
X129448834Y-88228575D01*
X129449389Y-88229458D01*
X129449234Y-88229555D01*
X129474355Y-88291083D01*
X129475000Y-88303712D01*
X129475000Y-89139681D01*
X129455315Y-89206720D01*
X129402511Y-89252475D01*
X129333353Y-89262419D01*
X129310046Y-89256723D01*
X129189757Y-89214632D01*
X129189749Y-89214630D01*
X129010504Y-89194435D01*
X129010496Y-89194435D01*
X128831250Y-89214630D01*
X128831245Y-89214631D01*
X128660976Y-89274211D01*
X128508237Y-89370184D01*
X128380684Y-89497737D01*
X128284711Y-89650476D01*
X128225131Y-89820745D01*
X128225130Y-89820750D01*
X128204935Y-89999996D01*
X128204935Y-90000003D01*
X128225130Y-90179246D01*
X128225132Y-90179255D01*
X128260475Y-90280260D01*
X128264641Y-90292164D01*
X128271600Y-90333119D01*
X128271600Y-100299200D01*
X128251915Y-100366239D01*
X128199111Y-100411994D01*
X128147600Y-100423200D01*
X127832565Y-100423200D01*
X127765526Y-100403515D01*
X127719771Y-100350711D01*
X127709827Y-100281553D01*
X127715524Y-100258245D01*
X127743966Y-100176962D01*
X127743969Y-100176949D01*
X127764165Y-99997703D01*
X127764165Y-99997696D01*
X127743969Y-99818450D01*
X127743968Y-99818445D01*
X127708761Y-99717830D01*
X127684389Y-99648178D01*
X127588416Y-99495438D01*
X127588414Y-99495436D01*
X127588413Y-99495434D01*
X127586150Y-99492596D01*
X127585259Y-99490415D01*
X127584711Y-99489542D01*
X127584864Y-99489445D01*
X127559744Y-99427909D01*
X127559100Y-99415287D01*
X127559100Y-95504712D01*
X127578785Y-95437673D01*
X127586155Y-95427397D01*
X127588410Y-95424567D01*
X127588416Y-95424562D01*
X127684389Y-95271822D01*
X127743968Y-95101555D01*
X127744326Y-95098377D01*
X127764165Y-94922303D01*
X127764165Y-94922296D01*
X127743969Y-94743050D01*
X127743968Y-94743045D01*
X127728092Y-94697673D01*
X127684389Y-94572778D01*
X127588416Y-94420038D01*
X127460862Y-94292484D01*
X127438352Y-94278340D01*
X127308123Y-94196511D01*
X127137854Y-94136931D01*
X127137849Y-94136930D01*
X126958604Y-94116735D01*
X126958596Y-94116735D01*
X126779350Y-94136930D01*
X126779345Y-94136931D01*
X126609076Y-94196511D01*
X126456337Y-94292484D01*
X126328784Y-94420037D01*
X126232811Y-94572776D01*
X126173231Y-94743045D01*
X126173230Y-94743050D01*
X126153035Y-94922296D01*
X126153035Y-94922303D01*
X126173230Y-95101549D01*
X126173231Y-95101554D01*
X126232811Y-95271823D01*
X126279649Y-95346364D01*
X126318169Y-95407669D01*
X126328785Y-95424563D01*
X126331045Y-95427397D01*
X126331934Y-95429575D01*
X126332489Y-95430458D01*
X126332334Y-95430555D01*
X126357455Y-95492083D01*
X126358100Y-95504712D01*
X126358100Y-99415287D01*
X126338415Y-99482326D01*
X126331050Y-99492596D01*
X126328786Y-99495434D01*
X126232811Y-99648176D01*
X126173231Y-99818445D01*
X126173230Y-99818450D01*
X126153035Y-99997696D01*
X126153035Y-99997703D01*
X126173230Y-100176949D01*
X126173233Y-100176962D01*
X126201676Y-100258245D01*
X126205238Y-100328024D01*
X126170510Y-100388651D01*
X126108516Y-100420879D01*
X126084635Y-100423200D01*
X125968940Y-100423200D01*
X125901901Y-100403515D01*
X125881259Y-100386881D01*
X125804062Y-100309684D01*
X125651323Y-100213711D01*
X125481054Y-100154131D01*
X125481049Y-100154130D01*
X125294881Y-100133155D01*
X125295107Y-100131147D01*
X125237561Y-100114250D01*
X125191806Y-100061446D01*
X125180600Y-100009935D01*
X125180600Y-95725812D01*
X125200285Y-95658773D01*
X125207655Y-95648497D01*
X125209910Y-95645667D01*
X125209916Y-95645662D01*
X125305889Y-95492922D01*
X125365468Y-95322655D01*
X125365469Y-95322649D01*
X125385665Y-95143403D01*
X125385665Y-95143396D01*
X125365469Y-94964150D01*
X125365468Y-94964145D01*
X125350824Y-94922296D01*
X125305889Y-94793878D01*
X125273948Y-94743045D01*
X125233880Y-94679277D01*
X125209916Y-94641138D01*
X125082362Y-94513584D01*
X125043813Y-94489362D01*
X124929621Y-94417610D01*
X124759349Y-94358030D01*
X124710615Y-94352539D01*
X124646201Y-94325471D01*
X124606647Y-94267876D01*
X124600500Y-94229319D01*
X124600500Y-81209797D01*
X124620185Y-81142758D01*
X124659403Y-81104258D01*
X124718656Y-81067712D01*
X124842712Y-80943656D01*
X124934814Y-80794334D01*
X124989999Y-80627797D01*
X125000500Y-80525009D01*
X125000499Y-79474992D01*
X124997671Y-79447312D01*
X124989999Y-79372203D01*
X124989998Y-79372200D01*
X124957699Y-79274729D01*
X124934814Y-79205666D01*
X124842712Y-79056344D01*
X124718656Y-78932288D01*
X124718655Y-78932287D01*
X124659402Y-78895739D01*
X124612678Y-78843791D01*
X124600500Y-78790201D01*
X124600500Y-76137230D01*
X124620185Y-76070191D01*
X124636819Y-76049549D01*
X124663857Y-76022511D01*
X124742712Y-75943656D01*
X124834814Y-75794334D01*
X124889999Y-75627797D01*
X124900500Y-75525009D01*
X124900499Y-74474992D01*
X124889999Y-74372203D01*
X124834814Y-74205666D01*
X124742712Y-74056344D01*
X124618656Y-73932288D01*
X124618655Y-73932287D01*
X124609402Y-73926580D01*
X124562678Y-73874632D01*
X124550500Y-73821042D01*
X124550500Y-72311812D01*
X124570185Y-72244773D01*
X124577555Y-72234497D01*
X124579810Y-72231667D01*
X124579816Y-72231662D01*
X124675789Y-72078922D01*
X124735368Y-71908655D01*
X124735782Y-71904984D01*
X124755565Y-71729403D01*
X124755565Y-71729396D01*
X124737078Y-71565315D01*
X124749133Y-71496493D01*
X124772616Y-71463751D01*
X124792712Y-71443656D01*
X124884814Y-71294334D01*
X124939999Y-71127797D01*
X124950500Y-71025009D01*
X124950499Y-69974992D01*
X124949121Y-69961506D01*
X124939999Y-69872203D01*
X124939998Y-69872200D01*
X124913573Y-69792455D01*
X124884814Y-69705666D01*
X124792712Y-69556344D01*
X124668656Y-69432288D01*
X124519334Y-69340186D01*
X124352797Y-69285001D01*
X124352795Y-69285000D01*
X124250010Y-69274500D01*
X123649998Y-69274500D01*
X123649980Y-69274501D01*
X123547203Y-69285000D01*
X123547200Y-69285001D01*
X123380668Y-69340185D01*
X123380663Y-69340187D01*
X123231342Y-69432289D01*
X123107285Y-69556346D01*
X123105537Y-69559182D01*
X123103829Y-69560717D01*
X123102807Y-69562011D01*
X123102585Y-69561836D01*
X123053589Y-69605905D01*
X122984626Y-69617126D01*
X122920544Y-69589282D01*
X122894463Y-69559182D01*
X122892714Y-69556346D01*
X122768657Y-69432289D01*
X122768656Y-69432288D01*
X122619334Y-69340186D01*
X122452797Y-69285001D01*
X122452795Y-69285000D01*
X122350010Y-69274500D01*
X121749998Y-69274500D01*
X121749980Y-69274501D01*
X121647203Y-69285000D01*
X121647200Y-69285001D01*
X121480668Y-69340185D01*
X121480663Y-69340187D01*
X121331342Y-69432289D01*
X121207289Y-69556342D01*
X121115187Y-69705663D01*
X121115185Y-69705668D01*
X121115007Y-69706206D01*
X121060001Y-69872203D01*
X121060001Y-69872204D01*
X121060000Y-69872204D01*
X121049500Y-69974983D01*
X121049500Y-71025001D01*
X121049501Y-71025019D01*
X121060000Y-71127796D01*
X121060001Y-71127799D01*
X121102230Y-71255235D01*
X121115186Y-71294334D01*
X121207288Y-71443656D01*
X121331344Y-71567712D01*
X121340591Y-71573416D01*
X121387318Y-71625360D01*
X121399500Y-71678957D01*
X121399500Y-73790201D01*
X121379815Y-73857240D01*
X121340598Y-73895739D01*
X121281344Y-73932287D01*
X121157289Y-74056342D01*
X121065187Y-74205663D01*
X121065186Y-74205666D01*
X121010001Y-74372203D01*
X121010001Y-74372204D01*
X121010000Y-74372204D01*
X120999500Y-74474983D01*
X120999500Y-74775500D01*
X120979815Y-74842539D01*
X120927011Y-74888294D01*
X120875500Y-74899500D01*
X118498585Y-74899500D01*
X118431546Y-74879815D01*
X118385791Y-74827011D01*
X118380879Y-74814504D01*
X118344814Y-74705666D01*
X118252712Y-74556344D01*
X118128656Y-74432288D01*
X117979334Y-74340186D01*
X117812797Y-74285001D01*
X117812795Y-74285000D01*
X117710010Y-74274500D01*
X117109998Y-74274500D01*
X117109980Y-74274501D01*
X117007203Y-74285000D01*
X117007200Y-74285001D01*
X116840668Y-74340185D01*
X116840663Y-74340187D01*
X116691342Y-74432289D01*
X116567288Y-74556343D01*
X116567283Y-74556349D01*
X116565241Y-74559661D01*
X116563247Y-74561453D01*
X116562807Y-74562011D01*
X116562711Y-74561935D01*
X116513291Y-74606383D01*
X116444328Y-74617602D01*
X116380247Y-74589755D01*
X116354168Y-74559656D01*
X116352319Y-74556659D01*
X116352316Y-74556655D01*
X116228345Y-74432684D01*
X116079124Y-74340643D01*
X116079119Y-74340641D01*
X115912697Y-74285494D01*
X115912690Y-74285493D01*
X115809986Y-74275000D01*
X115760000Y-74275000D01*
X115760000Y-76724999D01*
X115809972Y-76724999D01*
X115809986Y-76724998D01*
X115912697Y-76714505D01*
X116079119Y-76659358D01*
X116079124Y-76659356D01*
X116228345Y-76567315D01*
X116352318Y-76443342D01*
X116354165Y-76440348D01*
X116355969Y-76438724D01*
X116356798Y-76437677D01*
X116356976Y-76437818D01*
X116406110Y-76393621D01*
X116475073Y-76382396D01*
X116539156Y-76410236D01*
X116565243Y-76440341D01*
X116567288Y-76443656D01*
X116691344Y-76567712D01*
X116840666Y-76659814D01*
X117007203Y-76714999D01*
X117109991Y-76725500D01*
X117710008Y-76725499D01*
X117710016Y-76725498D01*
X117710019Y-76725498D01*
X117766302Y-76719748D01*
X117812797Y-76714999D01*
X117979334Y-76659814D01*
X118128656Y-76567712D01*
X118252712Y-76443656D01*
X118344814Y-76294334D01*
X118380879Y-76185494D01*
X118420652Y-76128051D01*
X118485167Y-76101228D01*
X118498585Y-76100500D01*
X121275500Y-76100500D01*
X121342539Y-76120185D01*
X121388294Y-76172989D01*
X121399500Y-76224500D01*
X121399500Y-78862769D01*
X121379815Y-78929808D01*
X121363182Y-78950450D01*
X121257287Y-79056345D01*
X121165187Y-79205663D01*
X121165185Y-79205668D01*
X121137349Y-79289670D01*
X121110001Y-79372203D01*
X121110001Y-79372204D01*
X121110000Y-79372204D01*
X121099500Y-79474983D01*
X121099500Y-79651252D01*
X121079815Y-79718291D01*
X121027011Y-79764046D01*
X120957853Y-79773990D01*
X120894297Y-79744965D01*
X120856523Y-79686187D01*
X120852280Y-79665135D01*
X120848969Y-79635750D01*
X120848968Y-79635745D01*
X120816898Y-79544095D01*
X120789389Y-79465478D01*
X120693416Y-79312738D01*
X120565862Y-79185184D01*
X120413123Y-79089211D01*
X120242854Y-79029631D01*
X120242849Y-79029630D01*
X120063604Y-79009435D01*
X120063596Y-79009435D01*
X119884350Y-79029630D01*
X119884345Y-79029631D01*
X119714076Y-79089211D01*
X119561337Y-79185184D01*
X119433784Y-79312737D01*
X119337810Y-79465478D01*
X119278230Y-79635750D01*
X119276591Y-79650302D01*
X119249524Y-79714716D01*
X119191928Y-79754270D01*
X119139489Y-79759637D01*
X119115500Y-79756935D01*
X119115498Y-79756935D01*
X119115496Y-79756935D01*
X118936250Y-79777130D01*
X118936245Y-79777131D01*
X118765976Y-79836711D01*
X118613237Y-79932684D01*
X118485684Y-80060237D01*
X118389711Y-80212976D01*
X118330131Y-80383245D01*
X118330130Y-80383250D01*
X118309935Y-80562496D01*
X118309935Y-80562503D01*
X118330130Y-80741749D01*
X118330131Y-80741754D01*
X118389711Y-80912023D01*
X118409589Y-80943658D01*
X118483955Y-81062011D01*
X118485685Y-81064763D01*
X118487945Y-81067597D01*
X118488834Y-81069775D01*
X118489389Y-81070658D01*
X118489234Y-81070755D01*
X118514355Y-81132283D01*
X118515000Y-81144912D01*
X118515000Y-95512503D01*
X118495315Y-95579542D01*
X118478681Y-95600184D01*
X114266198Y-99812666D01*
X114204875Y-99846151D01*
X114135183Y-99841167D01*
X114079250Y-99799295D01*
X114063956Y-99772437D01*
X114020778Y-99668195D01*
X114020771Y-99668182D01*
X113944114Y-99553458D01*
X113944111Y-99553454D01*
X113846545Y-99455888D01*
X113846541Y-99455885D01*
X113731817Y-99379228D01*
X113731804Y-99379221D01*
X113604332Y-99326421D01*
X113604322Y-99326418D01*
X113468995Y-99299500D01*
X113468993Y-99299500D01*
X113331007Y-99299500D01*
X113331005Y-99299500D01*
X113195677Y-99326418D01*
X113195667Y-99326421D01*
X113068195Y-99379221D01*
X113068182Y-99379228D01*
X112953458Y-99455885D01*
X112953454Y-99455888D01*
X112855888Y-99553454D01*
X112855885Y-99553458D01*
X112779228Y-99668182D01*
X112779221Y-99668195D01*
X112726421Y-99795667D01*
X112726418Y-99795677D01*
X112699500Y-99931004D01*
X112699500Y-99931007D01*
X112699500Y-100068993D01*
X112699500Y-100068995D01*
X112699499Y-100068995D01*
X112726418Y-100204322D01*
X112726421Y-100204332D01*
X112779221Y-100331804D01*
X112779228Y-100331817D01*
X112855885Y-100446541D01*
X112855888Y-100446545D01*
X112953454Y-100544111D01*
X112953458Y-100544114D01*
X113068182Y-100620771D01*
X113068195Y-100620778D01*
X113172437Y-100663956D01*
X113226841Y-100707797D01*
X113248906Y-100774091D01*
X113231627Y-100841790D01*
X113212666Y-100866198D01*
X110502181Y-103576684D01*
X110440858Y-103610169D01*
X110371166Y-103605185D01*
X110315233Y-103563313D01*
X110290816Y-103497849D01*
X110290500Y-103489003D01*
X110290500Y-98118995D01*
X112699499Y-98118995D01*
X112726418Y-98254322D01*
X112726421Y-98254332D01*
X112779221Y-98381804D01*
X112779228Y-98381817D01*
X112855885Y-98496541D01*
X112855888Y-98496545D01*
X112953454Y-98594111D01*
X112953458Y-98594114D01*
X113068182Y-98670771D01*
X113068195Y-98670778D01*
X113195667Y-98723578D01*
X113195672Y-98723580D01*
X113195676Y-98723580D01*
X113195677Y-98723581D01*
X113331004Y-98750500D01*
X113331007Y-98750500D01*
X113468995Y-98750500D01*
X113560041Y-98732389D01*
X113604328Y-98723580D01*
X113731811Y-98670775D01*
X113846542Y-98594114D01*
X113944114Y-98496542D01*
X114020775Y-98381811D01*
X114073580Y-98254328D01*
X114089514Y-98174223D01*
X114100500Y-98118995D01*
X114100500Y-97981004D01*
X114073581Y-97845677D01*
X114073580Y-97845676D01*
X114073580Y-97845672D01*
X114055496Y-97802012D01*
X114020778Y-97718195D01*
X114020771Y-97718182D01*
X113944114Y-97603458D01*
X113944111Y-97603454D01*
X113846545Y-97505888D01*
X113846541Y-97505885D01*
X113731817Y-97429228D01*
X113731804Y-97429221D01*
X113604332Y-97376421D01*
X113604322Y-97376418D01*
X113468995Y-97349500D01*
X113468993Y-97349500D01*
X113331007Y-97349500D01*
X113331005Y-97349500D01*
X113195677Y-97376418D01*
X113195667Y-97376421D01*
X113068195Y-97429221D01*
X113068182Y-97429228D01*
X112953458Y-97505885D01*
X112953454Y-97505888D01*
X112855888Y-97603454D01*
X112855885Y-97603458D01*
X112779228Y-97718182D01*
X112779221Y-97718195D01*
X112726421Y-97845667D01*
X112726418Y-97845677D01*
X112699500Y-97981004D01*
X112699500Y-97981007D01*
X112699500Y-98118993D01*
X112699500Y-98118995D01*
X112699499Y-98118995D01*
X110290500Y-98118995D01*
X110290500Y-91799597D01*
X110310185Y-91732558D01*
X110326819Y-91711916D01*
X112640966Y-89397769D01*
X114988036Y-87050698D01*
X115049357Y-87017215D01*
X115061810Y-87015163D01*
X115148755Y-87005368D01*
X115319022Y-86945789D01*
X115471762Y-86849816D01*
X115599316Y-86722262D01*
X115695289Y-86569522D01*
X115754868Y-86399255D01*
X115754869Y-86399249D01*
X115775065Y-86220003D01*
X115775065Y-86219996D01*
X115754869Y-86040750D01*
X115754868Y-86040745D01*
X115695288Y-85870476D01*
X115619902Y-85750500D01*
X115599316Y-85717738D01*
X115471762Y-85590184D01*
X115390622Y-85539200D01*
X115319023Y-85494211D01*
X115148754Y-85434631D01*
X115148749Y-85434630D01*
X114969504Y-85414435D01*
X114969496Y-85414435D01*
X114790250Y-85434630D01*
X114790245Y-85434631D01*
X114619976Y-85494211D01*
X114467237Y-85590184D01*
X114339684Y-85717737D01*
X114243710Y-85870478D01*
X114184130Y-86040750D01*
X114174337Y-86127667D01*
X114147270Y-86192081D01*
X114138798Y-86201464D01*
X109321286Y-91018978D01*
X109209481Y-91130782D01*
X109209479Y-91130784D01*
X109186008Y-91171438D01*
X109176087Y-91188623D01*
X109153010Y-91228594D01*
X109131592Y-91265691D01*
X109130423Y-91267715D01*
X109089499Y-91420443D01*
X109089499Y-91420445D01*
X109089499Y-91588546D01*
X109089500Y-91588559D01*
X109089500Y-110710908D01*
X109069815Y-110777947D01*
X109017914Y-110823286D01*
X109012173Y-110825963D01*
X109012169Y-110825965D01*
X108818597Y-110961505D01*
X108651505Y-111128597D01*
X108521575Y-111314158D01*
X108466998Y-111357783D01*
X108397500Y-111364977D01*
X108335145Y-111333454D01*
X108318425Y-111314158D01*
X108188494Y-111128597D01*
X108021402Y-110961506D01*
X108021395Y-110961501D01*
X107827831Y-110825965D01*
X107827826Y-110825962D01*
X107822091Y-110823288D01*
X107769653Y-110777113D01*
X107750500Y-110710908D01*
X107750500Y-106150945D01*
X107750500Y-106150943D01*
X107716658Y-106024643D01*
X107714124Y-106015185D01*
X107714122Y-106015180D01*
X107709577Y-105998215D01*
X107665318Y-105921556D01*
X107665318Y-105921555D01*
X107630524Y-105861290D01*
X107630521Y-105861286D01*
X107630520Y-105861284D01*
X107518716Y-105749480D01*
X107518715Y-105749479D01*
X107514385Y-105745149D01*
X107514374Y-105745139D01*
X103832766Y-102063531D01*
X103799281Y-102002208D01*
X103800672Y-101943757D01*
X103801863Y-101939309D01*
X103835063Y-101815408D01*
X103855659Y-101580000D01*
X103835063Y-101344592D01*
X103782025Y-101146649D01*
X103773905Y-101116344D01*
X103773904Y-101116343D01*
X103773903Y-101116337D01*
X103674035Y-100902171D01*
X103668913Y-100894855D01*
X103538494Y-100708597D01*
X103371402Y-100541506D01*
X103371396Y-100541501D01*
X103185842Y-100411575D01*
X103142217Y-100356998D01*
X103135023Y-100287500D01*
X103166546Y-100225145D01*
X103185842Y-100208425D01*
X103263380Y-100154132D01*
X103371401Y-100078495D01*
X103538495Y-99911401D01*
X103674035Y-99717830D01*
X103773903Y-99503663D01*
X103835063Y-99275408D01*
X103855659Y-99040000D01*
X103835063Y-98804592D01*
X103778666Y-98594114D01*
X103773905Y-98576344D01*
X103773904Y-98576343D01*
X103773903Y-98576337D01*
X103674035Y-98362171D01*
X103669748Y-98356049D01*
X103538496Y-98168600D01*
X103488889Y-98118993D01*
X103416567Y-98046671D01*
X103383084Y-97985351D01*
X103388068Y-97915659D01*
X103429939Y-97859725D01*
X103460915Y-97842810D01*
X103592331Y-97793796D01*
X103707546Y-97707546D01*
X103793796Y-97592331D01*
X103844091Y-97457483D01*
X103850500Y-97397873D01*
X103850499Y-95602128D01*
X103844091Y-95542517D01*
X103840566Y-95533067D01*
X103793797Y-95407671D01*
X103793793Y-95407664D01*
X103707547Y-95292455D01*
X103707544Y-95292452D01*
X103592335Y-95206206D01*
X103592328Y-95206202D01*
X103457482Y-95155908D01*
X103457483Y-95155908D01*
X103397883Y-95149501D01*
X103397881Y-95149500D01*
X103397873Y-95149500D01*
X103397864Y-95149500D01*
X101602129Y-95149500D01*
X101602123Y-95149501D01*
X101542516Y-95155908D01*
X101407671Y-95206202D01*
X101407664Y-95206206D01*
X101292455Y-95292452D01*
X101292452Y-95292455D01*
X101206206Y-95407664D01*
X101206202Y-95407671D01*
X101155908Y-95542517D01*
X101149717Y-95600106D01*
X101149501Y-95602123D01*
X101149500Y-95602135D01*
X101149500Y-97397870D01*
X101149501Y-97397876D01*
X101155908Y-97457483D01*
X101206202Y-97592328D01*
X101206206Y-97592335D01*
X101292452Y-97707544D01*
X101292455Y-97707547D01*
X101407664Y-97793793D01*
X101407671Y-97793797D01*
X101539081Y-97842810D01*
X101595015Y-97884681D01*
X101619432Y-97950145D01*
X101604580Y-98018418D01*
X101583430Y-98046673D01*
X101461503Y-98168600D01*
X101325965Y-98362169D01*
X101325964Y-98362171D01*
X101226098Y-98576335D01*
X101226094Y-98576344D01*
X101164938Y-98804586D01*
X101164936Y-98804596D01*
X101144341Y-99039999D01*
X95906958Y-99039999D01*
X95824035Y-98862171D01*
X95745843Y-98750500D01*
X95688494Y-98668597D01*
X95521402Y-98501506D01*
X95521401Y-98501505D01*
X95335405Y-98371269D01*
X95291781Y-98316692D01*
X95284588Y-98247193D01*
X95316110Y-98184839D01*
X95335405Y-98168119D01*
X95521082Y-98038105D01*
X95688105Y-97871082D01*
X95823600Y-97677578D01*
X95923429Y-97463492D01*
X95923432Y-97463486D01*
X95980636Y-97250000D01*
X95083012Y-97250000D01*
X95115925Y-97192993D01*
X95150000Y-97065826D01*
X95150000Y-96934174D01*
X95115925Y-96807007D01*
X95083012Y-96750000D01*
X95980636Y-96750000D01*
X95980635Y-96749999D01*
X95923432Y-96536513D01*
X95923429Y-96536507D01*
X95823600Y-96322422D01*
X95823599Y-96322420D01*
X95688113Y-96128926D01*
X95688108Y-96128920D01*
X95521082Y-95961894D01*
X95327578Y-95826399D01*
X95113492Y-95726570D01*
X95113486Y-95726567D01*
X94900000Y-95669364D01*
X94900000Y-96566988D01*
X94842993Y-96534075D01*
X94715826Y-96500000D01*
X94584174Y-96500000D01*
X94457007Y-96534075D01*
X94400000Y-96566988D01*
X94400000Y-95669364D01*
X94399999Y-95669364D01*
X94186513Y-95726567D01*
X94186507Y-95726570D01*
X93972422Y-95826399D01*
X93972420Y-95826400D01*
X93778926Y-95961886D01*
X93778920Y-95961891D01*
X93611891Y-96128920D01*
X93611886Y-96128926D01*
X93476400Y-96322420D01*
X93476399Y-96322422D01*
X93376570Y-96536507D01*
X93376567Y-96536513D01*
X93319364Y-96749999D01*
X93319364Y-96750000D01*
X94216988Y-96750000D01*
X94184075Y-96807007D01*
X94150000Y-96934174D01*
X94150000Y-97065826D01*
X94184075Y-97192993D01*
X94216988Y-97250000D01*
X93319364Y-97250000D01*
X93376567Y-97463486D01*
X93376570Y-97463492D01*
X93476399Y-97677578D01*
X93611894Y-97871082D01*
X93778917Y-98038105D01*
X93964595Y-98168119D01*
X94008219Y-98222696D01*
X94015412Y-98292195D01*
X93983890Y-98354549D01*
X93964595Y-98371269D01*
X93778594Y-98501508D01*
X93611505Y-98668597D01*
X93475965Y-98862169D01*
X93475964Y-98862171D01*
X93376098Y-99076335D01*
X93376094Y-99076344D01*
X93314938Y-99304586D01*
X93314936Y-99304596D01*
X93294341Y-99539999D01*
X91500500Y-99539999D01*
X91500500Y-76024986D01*
X114510001Y-76024986D01*
X114520494Y-76127697D01*
X114575641Y-76294119D01*
X114575643Y-76294124D01*
X114667684Y-76443345D01*
X114791654Y-76567315D01*
X114940875Y-76659356D01*
X114940880Y-76659358D01*
X115107302Y-76714505D01*
X115107309Y-76714506D01*
X115210019Y-76724999D01*
X115259999Y-76724998D01*
X115260000Y-76724998D01*
X115260000Y-75750000D01*
X114510001Y-75750000D01*
X114510001Y-76024986D01*
X91500500Y-76024986D01*
X91500500Y-74975013D01*
X114510000Y-74975013D01*
X114510000Y-75250000D01*
X115260000Y-75250000D01*
X115260000Y-74275000D01*
X115259999Y-74274999D01*
X115210029Y-74275000D01*
X115210011Y-74275001D01*
X115107302Y-74285494D01*
X114940880Y-74340641D01*
X114940875Y-74340643D01*
X114791654Y-74432684D01*
X114667684Y-74556654D01*
X114575643Y-74705875D01*
X114575641Y-74705880D01*
X114520494Y-74872302D01*
X114520493Y-74872309D01*
X114510000Y-74975013D01*
X91500500Y-74975013D01*
X91500500Y-70102135D01*
X102029500Y-70102135D01*
X102029500Y-71897870D01*
X102029501Y-71897876D01*
X102035908Y-71957483D01*
X102086202Y-72092328D01*
X102086206Y-72092335D01*
X102172452Y-72207544D01*
X102172455Y-72207547D01*
X102287664Y-72293793D01*
X102287671Y-72293797D01*
X102422517Y-72344091D01*
X102422516Y-72344091D01*
X102429444Y-72344835D01*
X102482127Y-72350500D01*
X104277872Y-72350499D01*
X104337483Y-72344091D01*
X104472331Y-72293796D01*
X104587546Y-72207546D01*
X104673796Y-72092331D01*
X104722810Y-71960916D01*
X104764681Y-71904984D01*
X104830145Y-71880566D01*
X104898418Y-71895417D01*
X104926673Y-71916569D01*
X105048599Y-72038495D01*
X105145384Y-72106265D01*
X105242165Y-72174032D01*
X105242167Y-72174033D01*
X105242170Y-72174035D01*
X105456337Y-72273903D01*
X105684592Y-72335063D01*
X105861034Y-72350500D01*
X105919999Y-72355659D01*
X105920000Y-72355659D01*
X105920001Y-72355659D01*
X105978966Y-72350500D01*
X106155408Y-72335063D01*
X106383663Y-72273903D01*
X106597830Y-72174035D01*
X106791401Y-72038495D01*
X106958495Y-71871401D01*
X107088730Y-71685405D01*
X107143307Y-71641781D01*
X107212805Y-71634587D01*
X107275160Y-71666110D01*
X107291879Y-71685405D01*
X107421890Y-71871078D01*
X107588917Y-72038105D01*
X107782421Y-72173600D01*
X107996507Y-72273429D01*
X107996516Y-72273433D01*
X108210000Y-72330634D01*
X108210000Y-71433012D01*
X108267007Y-71465925D01*
X108394174Y-71500000D01*
X108525826Y-71500000D01*
X108652993Y-71465925D01*
X108710000Y-71433012D01*
X108710000Y-72330633D01*
X108923483Y-72273433D01*
X108923492Y-72273429D01*
X109137578Y-72173600D01*
X109331082Y-72038105D01*
X109498105Y-71871082D01*
X109628119Y-71685405D01*
X109682696Y-71641781D01*
X109752195Y-71634588D01*
X109814549Y-71666110D01*
X109831269Y-71685405D01*
X109961505Y-71871401D01*
X110128599Y-72038495D01*
X110225384Y-72106265D01*
X110322165Y-72174032D01*
X110322167Y-72174033D01*
X110322170Y-72174035D01*
X110536337Y-72273903D01*
X110764592Y-72335063D01*
X110941034Y-72350500D01*
X110999999Y-72355659D01*
X111000000Y-72355659D01*
X111000001Y-72355659D01*
X111058966Y-72350500D01*
X111235408Y-72335063D01*
X111463663Y-72273903D01*
X111677830Y-72174035D01*
X111871401Y-72038495D01*
X112038495Y-71871401D01*
X112174035Y-71677830D01*
X112273903Y-71463663D01*
X112335063Y-71235408D01*
X112355659Y-71000000D01*
X112335063Y-70764592D01*
X112273903Y-70536337D01*
X112174035Y-70322171D01*
X112168731Y-70314595D01*
X112038494Y-70128597D01*
X111871402Y-69961506D01*
X111871395Y-69961501D01*
X111677834Y-69825967D01*
X111677830Y-69825965D01*
X111677828Y-69825964D01*
X111463663Y-69726097D01*
X111463659Y-69726096D01*
X111463655Y-69726094D01*
X111235413Y-69664938D01*
X111235403Y-69664936D01*
X111000001Y-69644341D01*
X110999999Y-69644341D01*
X110764596Y-69664936D01*
X110764586Y-69664938D01*
X110536344Y-69726094D01*
X110536335Y-69726098D01*
X110322171Y-69825964D01*
X110322169Y-69825965D01*
X110128597Y-69961505D01*
X109961508Y-70128594D01*
X109831269Y-70314595D01*
X109776692Y-70358219D01*
X109707193Y-70365412D01*
X109644839Y-70333890D01*
X109628119Y-70314594D01*
X109498113Y-70128926D01*
X109498108Y-70128920D01*
X109331082Y-69961894D01*
X109137578Y-69826399D01*
X108923492Y-69726570D01*
X108923486Y-69726567D01*
X108710000Y-69669364D01*
X108710000Y-70566988D01*
X108652993Y-70534075D01*
X108525826Y-70500000D01*
X108394174Y-70500000D01*
X108267007Y-70534075D01*
X108210000Y-70566988D01*
X108210000Y-69669364D01*
X108209999Y-69669364D01*
X107996513Y-69726567D01*
X107996507Y-69726570D01*
X107782422Y-69826399D01*
X107782420Y-69826400D01*
X107588926Y-69961886D01*
X107588920Y-69961891D01*
X107421891Y-70128920D01*
X107421890Y-70128922D01*
X107291880Y-70314595D01*
X107237303Y-70358219D01*
X107167804Y-70365412D01*
X107105450Y-70333890D01*
X107088730Y-70314594D01*
X106958494Y-70128597D01*
X106791402Y-69961506D01*
X106791395Y-69961501D01*
X106597834Y-69825967D01*
X106597830Y-69825965D01*
X106597828Y-69825964D01*
X106383663Y-69726097D01*
X106383659Y-69726096D01*
X106383655Y-69726094D01*
X106155413Y-69664938D01*
X106155403Y-69664936D01*
X105920001Y-69644341D01*
X105919999Y-69644341D01*
X105684596Y-69664936D01*
X105684586Y-69664938D01*
X105456344Y-69726094D01*
X105456335Y-69726098D01*
X105242171Y-69825964D01*
X105242169Y-69825965D01*
X105048600Y-69961503D01*
X104926673Y-70083430D01*
X104865350Y-70116914D01*
X104795658Y-70111930D01*
X104739725Y-70070058D01*
X104722810Y-70039081D01*
X104673797Y-69907671D01*
X104673793Y-69907664D01*
X104587547Y-69792455D01*
X104587544Y-69792452D01*
X104472335Y-69706206D01*
X104472328Y-69706202D01*
X104337482Y-69655908D01*
X104337483Y-69655908D01*
X104277883Y-69649501D01*
X104277881Y-69649500D01*
X104277873Y-69649500D01*
X104277864Y-69649500D01*
X102482129Y-69649500D01*
X102482123Y-69649501D01*
X102422516Y-69655908D01*
X102287671Y-69706202D01*
X102287664Y-69706206D01*
X102172455Y-69792452D01*
X102172452Y-69792455D01*
X102086206Y-69907664D01*
X102086202Y-69907671D01*
X102035908Y-70042517D01*
X102029501Y-70102116D01*
X102029500Y-70102135D01*
X91500500Y-70102135D01*
X91500500Y-65164994D01*
X136191738Y-65164994D01*
X136191738Y-65165005D01*
X136210753Y-65394484D01*
X136267282Y-65617714D01*
X136359782Y-65828594D01*
X136485728Y-66021370D01*
X136485731Y-66021373D01*
X136641692Y-66190792D01*
X136823411Y-66332229D01*
X137025931Y-66441828D01*
X137139025Y-66480653D01*
X137243725Y-66516597D01*
X137243727Y-66516597D01*
X137243729Y-66516598D01*
X137470863Y-66554500D01*
X137470864Y-66554500D01*
X137701136Y-66554500D01*
X137701137Y-66554500D01*
X137928271Y-66516598D01*
X138146069Y-66441828D01*
X138348589Y-66332229D01*
X138530308Y-66190792D01*
X138686269Y-66021373D01*
X138752191Y-65920472D01*
X138805337Y-65875115D01*
X138874569Y-65865691D01*
X138937905Y-65895193D01*
X138959809Y-65920472D01*
X139025728Y-66021370D01*
X139025731Y-66021373D01*
X139181692Y-66190792D01*
X139363411Y-66332229D01*
X139565931Y-66441828D01*
X139679025Y-66480653D01*
X139783725Y-66516597D01*
X139783727Y-66516597D01*
X139783729Y-66516598D01*
X140010863Y-66554500D01*
X140010864Y-66554500D01*
X140241136Y-66554500D01*
X140241137Y-66554500D01*
X140468271Y-66516598D01*
X140686069Y-66441828D01*
X140888589Y-66332229D01*
X141070308Y-66190792D01*
X141226269Y-66021373D01*
X141292191Y-65920472D01*
X141345337Y-65875115D01*
X141414569Y-65865691D01*
X141477905Y-65895193D01*
X141499809Y-65920472D01*
X141565728Y-66021370D01*
X141565731Y-66021373D01*
X141721692Y-66190792D01*
X141903411Y-66332229D01*
X142105931Y-66441828D01*
X142219025Y-66480653D01*
X142323725Y-66516597D01*
X142323727Y-66516597D01*
X142323729Y-66516598D01*
X142550863Y-66554500D01*
X142550864Y-66554500D01*
X142781136Y-66554500D01*
X142781137Y-66554500D01*
X143008271Y-66516598D01*
X143226069Y-66441828D01*
X143428589Y-66332229D01*
X143610308Y-66190792D01*
X143766269Y-66021373D01*
X143832191Y-65920472D01*
X143885337Y-65875115D01*
X143954569Y-65865691D01*
X144017905Y-65895193D01*
X144039809Y-65920472D01*
X144105728Y-66021370D01*
X144105731Y-66021373D01*
X144261692Y-66190792D01*
X144443411Y-66332229D01*
X144645931Y-66441828D01*
X144759025Y-66480653D01*
X144863725Y-66516597D01*
X144863727Y-66516597D01*
X144863729Y-66516598D01*
X145090863Y-66554500D01*
X145090864Y-66554500D01*
X145321136Y-66554500D01*
X145321137Y-66554500D01*
X145548271Y-66516598D01*
X145766069Y-66441828D01*
X145968589Y-66332229D01*
X146150308Y-66190792D01*
X146306269Y-66021373D01*
X146372191Y-65920472D01*
X146425337Y-65875115D01*
X146494569Y-65865691D01*
X146557905Y-65895193D01*
X146579809Y-65920472D01*
X146645728Y-66021370D01*
X146645731Y-66021373D01*
X146801692Y-66190792D01*
X146983411Y-66332229D01*
X147185931Y-66441828D01*
X147299025Y-66480653D01*
X147403725Y-66516597D01*
X147403727Y-66516597D01*
X147403729Y-66516598D01*
X147630863Y-66554500D01*
X147630864Y-66554500D01*
X147861136Y-66554500D01*
X147861137Y-66554500D01*
X148088271Y-66516598D01*
X148306069Y-66441828D01*
X148508589Y-66332229D01*
X148690308Y-66190792D01*
X148846269Y-66021373D01*
X148972217Y-65828595D01*
X149064717Y-65617716D01*
X149121246Y-65394488D01*
X149140262Y-65165000D01*
X149121246Y-64935512D01*
X149064717Y-64712284D01*
X148972217Y-64501405D01*
X148947980Y-64464308D01*
X148846271Y-64308629D01*
X148819355Y-64279390D01*
X148690308Y-64139208D01*
X148622036Y-64086070D01*
X148508591Y-63997772D01*
X148306069Y-63888172D01*
X148306061Y-63888169D01*
X148088274Y-63813402D01*
X147917920Y-63784975D01*
X147861137Y-63775500D01*
X147630863Y-63775500D01*
X147585436Y-63783080D01*
X147403725Y-63813402D01*
X147185938Y-63888169D01*
X147185930Y-63888172D01*
X146983408Y-63997772D01*
X146801694Y-64139206D01*
X146801689Y-64139211D01*
X146645727Y-64308630D01*
X146579808Y-64409528D01*
X146526662Y-64454884D01*
X146457431Y-64464308D01*
X146394095Y-64434806D01*
X146372192Y-64409528D01*
X146306272Y-64308630D01*
X146269104Y-64268256D01*
X146150308Y-64139208D01*
X146082036Y-64086070D01*
X145968591Y-63997772D01*
X145766069Y-63888172D01*
X145766061Y-63888169D01*
X145548274Y-63813402D01*
X145377920Y-63784975D01*
X145321137Y-63775500D01*
X145090863Y-63775500D01*
X145045436Y-63783080D01*
X144863725Y-63813402D01*
X144645938Y-63888169D01*
X144645930Y-63888172D01*
X144443408Y-63997772D01*
X144261694Y-64139206D01*
X144261689Y-64139211D01*
X144105727Y-64308630D01*
X144039808Y-64409528D01*
X143986662Y-64454884D01*
X143917431Y-64464308D01*
X143854095Y-64434806D01*
X143832192Y-64409528D01*
X143766272Y-64308630D01*
X143729104Y-64268256D01*
X143610308Y-64139208D01*
X143542036Y-64086070D01*
X143428591Y-63997772D01*
X143226069Y-63888172D01*
X143226061Y-63888169D01*
X143008274Y-63813402D01*
X142837920Y-63784975D01*
X142781137Y-63775500D01*
X142550863Y-63775500D01*
X142505436Y-63783080D01*
X142323725Y-63813402D01*
X142105938Y-63888169D01*
X142105930Y-63888172D01*
X141903408Y-63997772D01*
X141721694Y-64139206D01*
X141721689Y-64139211D01*
X141565727Y-64308630D01*
X141499808Y-64409528D01*
X141446662Y-64454884D01*
X141377431Y-64464308D01*
X141314095Y-64434806D01*
X141292192Y-64409528D01*
X141226272Y-64308630D01*
X141189104Y-64268256D01*
X141070308Y-64139208D01*
X141002036Y-64086070D01*
X140888591Y-63997772D01*
X140686069Y-63888172D01*
X140686061Y-63888169D01*
X140468274Y-63813402D01*
X140297920Y-63784975D01*
X140241137Y-63775500D01*
X140010863Y-63775500D01*
X139965436Y-63783080D01*
X139783725Y-63813402D01*
X139565938Y-63888169D01*
X139565930Y-63888172D01*
X139363408Y-63997772D01*
X139181694Y-64139206D01*
X139181689Y-64139211D01*
X139025727Y-64308630D01*
X138959808Y-64409528D01*
X138906662Y-64454884D01*
X138837431Y-64464308D01*
X138774095Y-64434806D01*
X138752192Y-64409528D01*
X138686272Y-64308630D01*
X138649104Y-64268256D01*
X138530308Y-64139208D01*
X138462036Y-64086070D01*
X138348591Y-63997772D01*
X138146069Y-63888172D01*
X138146061Y-63888169D01*
X137928274Y-63813402D01*
X137757920Y-63784975D01*
X137701137Y-63775500D01*
X137470863Y-63775500D01*
X137425436Y-63783080D01*
X137243725Y-63813402D01*
X137025938Y-63888169D01*
X137025930Y-63888172D01*
X136823408Y-63997772D01*
X136641694Y-64139206D01*
X136641689Y-64139211D01*
X136485728Y-64308629D01*
X136359782Y-64501405D01*
X136267282Y-64712285D01*
X136210753Y-64935515D01*
X136191738Y-65164994D01*
X91500500Y-65164994D01*
X91500500Y-63624500D01*
X91520185Y-63557461D01*
X91572989Y-63511706D01*
X91624500Y-63500500D01*
X167375500Y-63500500D01*
X167442539Y-63520185D01*
G37*
%TD.AperFunction*%
%TD*%
M02*
