%TF.GenerationSoftware,KiCad,Pcbnew,8.0.8*%
%TF.CreationDate,2025-01-27T11:39:49+01:00*%
%TF.ProjectId,PGE_PCB,5047455f-5043-4422-9e6b-696361645f70,rev?*%
%TF.SameCoordinates,Original*%
%TF.FileFunction,Paste,Bot*%
%TF.FilePolarity,Positive*%
%FSLAX46Y46*%
G04 Gerber Fmt 4.6, Leading zero omitted, Abs format (unit mm)*
G04 Created by KiCad (PCBNEW 8.0.8) date 2025-01-27 11:39:49*
%MOMM*%
%LPD*%
G01*
G04 APERTURE LIST*
G04 Aperture macros list*
%AMRoundRect*
0 Rectangle with rounded corners*
0 $1 Rounding radius*
0 $2 $3 $4 $5 $6 $7 $8 $9 X,Y pos of 4 corners*
0 Add a 4 corners polygon primitive as box body*
4,1,4,$2,$3,$4,$5,$6,$7,$8,$9,$2,$3,0*
0 Add four circle primitives for the rounded corners*
1,1,$1+$1,$2,$3*
1,1,$1+$1,$4,$5*
1,1,$1+$1,$6,$7*
1,1,$1+$1,$8,$9*
0 Add four rect primitives between the rounded corners*
20,1,$1+$1,$2,$3,$4,$5,0*
20,1,$1+$1,$4,$5,$6,$7,0*
20,1,$1+$1,$6,$7,$8,$9,0*
20,1,$1+$1,$8,$9,$2,$3,0*%
G04 Aperture macros list end*
%ADD10R,0.380000X1.000000*%
%ADD11R,0.700000X1.150000*%
%ADD12RoundRect,0.243750X-0.243750X-0.456250X0.243750X-0.456250X0.243750X0.456250X-0.243750X0.456250X0*%
%ADD13RoundRect,0.250000X0.250000X0.475000X-0.250000X0.475000X-0.250000X-0.475000X0.250000X-0.475000X0*%
%ADD14RoundRect,0.250000X0.262500X0.450000X-0.262500X0.450000X-0.262500X-0.450000X0.262500X-0.450000X0*%
%ADD15RoundRect,0.250000X0.650000X-1.000000X0.650000X1.000000X-0.650000X1.000000X-0.650000X-1.000000X0*%
%ADD16RoundRect,0.150000X0.512500X0.150000X-0.512500X0.150000X-0.512500X-0.150000X0.512500X-0.150000X0*%
%ADD17RoundRect,0.250000X-0.250000X-0.475000X0.250000X-0.475000X0.250000X0.475000X-0.250000X0.475000X0*%
%ADD18RoundRect,0.100000X0.225000X0.100000X-0.225000X0.100000X-0.225000X-0.100000X0.225000X-0.100000X0*%
%ADD19RoundRect,0.250000X0.475000X-0.250000X0.475000X0.250000X-0.475000X0.250000X-0.475000X-0.250000X0*%
%ADD20RoundRect,0.250000X-0.475000X0.250000X-0.475000X-0.250000X0.475000X-0.250000X0.475000X0.250000X0*%
%ADD21RoundRect,0.243750X0.243750X0.456250X-0.243750X0.456250X-0.243750X-0.456250X0.243750X-0.456250X0*%
%ADD22RoundRect,0.250000X0.450000X-0.262500X0.450000X0.262500X-0.450000X0.262500X-0.450000X-0.262500X0*%
%ADD23RoundRect,0.250000X-0.262500X-0.450000X0.262500X-0.450000X0.262500X0.450000X-0.262500X0.450000X0*%
%ADD24RoundRect,0.250000X-0.450000X0.262500X-0.450000X-0.262500X0.450000X-0.262500X0.450000X0.262500X0*%
%ADD25RoundRect,0.243750X-0.456250X0.243750X-0.456250X-0.243750X0.456250X-0.243750X0.456250X0.243750X0*%
%ADD26RoundRect,0.150000X0.825000X0.150000X-0.825000X0.150000X-0.825000X-0.150000X0.825000X-0.150000X0*%
%ADD27R,0.660000X0.730000*%
%ADD28R,0.630000X0.450000*%
G04 APERTURE END LIST*
D10*
%TO.C,P1*%
X101650000Y-119160000D03*
X101150000Y-119160000D03*
X100650000Y-119160000D03*
X100150000Y-119160000D03*
X99650000Y-119160000D03*
X98150000Y-119160000D03*
X97650000Y-119160000D03*
X97150000Y-119160000D03*
X96650000Y-119160000D03*
X96150000Y-119160000D03*
D11*
X102320000Y-120000000D03*
%TD*%
D12*
%TO.C,LED_START2*%
X150000000Y-102000000D03*
X151875000Y-102000000D03*
%TD*%
D13*
%TO.C,C9*%
X141250000Y-94505000D03*
X139350000Y-94505000D03*
%TD*%
D14*
%TO.C,R3*%
X151912500Y-111000000D03*
X150087500Y-111000000D03*
%TD*%
%TO.C,R5*%
X121740000Y-101684000D03*
X119915000Y-101684000D03*
%TD*%
D15*
%TO.C,D1*%
X163000000Y-92000000D03*
X163000000Y-88000000D03*
%TD*%
D16*
%TO.C,U2*%
X146275000Y-105000000D03*
X146275000Y-105950000D03*
X146275000Y-106900000D03*
X144000000Y-106900000D03*
X144000000Y-105000000D03*
%TD*%
D17*
%TO.C,C7*%
X125015000Y-107184000D03*
X126915000Y-107184000D03*
%TD*%
D18*
%TO.C,U5*%
X136900000Y-94350000D03*
X136900000Y-95000000D03*
X136900000Y-95650000D03*
X135000000Y-95650000D03*
X135000000Y-95000000D03*
X135000000Y-94350000D03*
%TD*%
D19*
%TO.C,C23*%
X146450000Y-85950000D03*
X146450000Y-84050000D03*
%TD*%
D20*
%TO.C,C5*%
X131915000Y-101734000D03*
X131915000Y-103634000D03*
%TD*%
D19*
%TO.C,C4*%
X145000000Y-111950000D03*
X145000000Y-110050000D03*
%TD*%
D13*
%TO.C,C15*%
X123900000Y-75000000D03*
X122000000Y-75000000D03*
%TD*%
D21*
%TO.C,D2*%
X123790000Y-97184000D03*
X121915000Y-97184000D03*
%TD*%
D13*
%TO.C,C24*%
X152950000Y-72000000D03*
X151050000Y-72000000D03*
%TD*%
D22*
%TO.C,R6*%
X140000000Y-105912500D03*
X140000000Y-104087500D03*
%TD*%
D17*
%TO.C,C22*%
X153600000Y-82000000D03*
X155500000Y-82000000D03*
%TD*%
D13*
%TO.C,C10*%
X141250000Y-97515000D03*
X139350000Y-97515000D03*
%TD*%
%TO.C,C17*%
X117410000Y-75500000D03*
X115510000Y-75500000D03*
%TD*%
D22*
%TO.C,R15*%
X138000000Y-78500000D03*
X138000000Y-76675000D03*
%TD*%
%TO.C,R14*%
X158000000Y-76912500D03*
X158000000Y-75087500D03*
%TD*%
D23*
%TO.C,R4*%
X146087500Y-99000000D03*
X147912500Y-99000000D03*
%TD*%
D24*
%TO.C,R13*%
X154000000Y-75087500D03*
X154000000Y-76912500D03*
%TD*%
D13*
%TO.C,C16*%
X124000000Y-80000000D03*
X122100000Y-80000000D03*
%TD*%
%TO.C,C14*%
X123950000Y-70500000D03*
X122050000Y-70500000D03*
%TD*%
D20*
%TO.C,C3*%
X150000000Y-105050000D03*
X150000000Y-106950000D03*
%TD*%
D25*
%TO.C,LED_FULL2*%
X154000000Y-104000000D03*
X154000000Y-105875000D03*
%TD*%
D20*
%TO.C,C6*%
X135915000Y-101784000D03*
X135915000Y-103684000D03*
%TD*%
D26*
%TO.C,U3*%
X148975000Y-76095000D03*
X148975000Y-77365000D03*
X148975000Y-78635000D03*
X148975000Y-79905000D03*
X144025000Y-79905000D03*
X144025000Y-78635000D03*
X144025000Y-77365000D03*
X144025000Y-76095000D03*
%TD*%
D17*
%TO.C,C8*%
X125015000Y-110684000D03*
X126915000Y-110684000D03*
%TD*%
D27*
%TO.C,U4*%
X127000000Y-103500000D03*
X127000000Y-102634000D03*
X127000000Y-101768000D03*
X126150000Y-103500000D03*
X126150000Y-102634000D03*
X126150000Y-101768000D03*
D28*
X127915000Y-101684000D03*
X127915000Y-102634000D03*
X127915000Y-103584000D03*
X125235000Y-103584000D03*
X125235000Y-102634000D03*
X125235000Y-101684000D03*
%TD*%
M02*
