%TF.GenerationSoftware,KiCad,Pcbnew,8.0.8*%
%TF.CreationDate,2025-01-27T11:39:49+01:00*%
%TF.ProjectId,PGE_PCB,5047455f-5043-4422-9e6b-696361645f70,rev?*%
%TF.SameCoordinates,Original*%
%TF.FileFunction,Paste,Top*%
%TF.FilePolarity,Positive*%
%FSLAX46Y46*%
G04 Gerber Fmt 4.6, Leading zero omitted, Abs format (unit mm)*
G04 Created by KiCad (PCBNEW 8.0.8) date 2025-01-27 11:39:49*
%MOMM*%
%LPD*%
G01*
G04 APERTURE LIST*
G04 Aperture macros list*
%AMRoundRect*
0 Rectangle with rounded corners*
0 $1 Rounding radius*
0 $2 $3 $4 $5 $6 $7 $8 $9 X,Y pos of 4 corners*
0 Add a 4 corners polygon primitive as box body*
4,1,4,$2,$3,$4,$5,$6,$7,$8,$9,$2,$3,0*
0 Add four circle primitives for the rounded corners*
1,1,$1+$1,$2,$3*
1,1,$1+$1,$4,$5*
1,1,$1+$1,$6,$7*
1,1,$1+$1,$8,$9*
0 Add four rect primitives between the rounded corners*
20,1,$1+$1,$2,$3,$4,$5,0*
20,1,$1+$1,$4,$5,$6,$7,0*
20,1,$1+$1,$6,$7,$8,$9,0*
20,1,$1+$1,$8,$9,$2,$3,0*%
G04 Aperture macros list end*
%ADD10RoundRect,0.250000X-0.262500X-0.450000X0.262500X-0.450000X0.262500X0.450000X-0.262500X0.450000X0*%
%ADD11RoundRect,0.250000X-0.475000X0.250000X-0.475000X-0.250000X0.475000X-0.250000X0.475000X0.250000X0*%
%ADD12R,1.300000X1.900000*%
%ADD13RoundRect,0.250000X-0.250000X-0.475000X0.250000X-0.475000X0.250000X0.475000X-0.250000X0.475000X0*%
%ADD14R,0.380000X1.000000*%
%ADD15R,0.700000X1.150000*%
%ADD16RoundRect,0.135000X-0.365000X0.315000X-0.365000X-0.315000X0.365000X-0.315000X0.365000X0.315000X0*%
%ADD17RoundRect,0.082500X-0.192500X0.767500X-0.192500X-0.767500X0.192500X-0.767500X0.192500X0.767500X0*%
%ADD18RoundRect,0.075000X-0.700000X-0.075000X0.700000X-0.075000X0.700000X0.075000X-0.700000X0.075000X0*%
%ADD19RoundRect,0.075000X-0.075000X-0.700000X0.075000X-0.700000X0.075000X0.700000X-0.075000X0.700000X0*%
G04 APERTURE END LIST*
D10*
%TO.C,R1*%
X110575000Y-84100000D03*
X112400000Y-84100000D03*
%TD*%
D11*
%TO.C,C1*%
X104400000Y-78150000D03*
X104400000Y-80050000D03*
%TD*%
D12*
%TO.C,Y1*%
X104150000Y-83500000D03*
X98650000Y-83500000D03*
X98650000Y-86700000D03*
X104150000Y-86700000D03*
%TD*%
D13*
%TO.C,C21*%
X123650000Y-105000000D03*
X125550000Y-105000000D03*
%TD*%
D10*
%TO.C,R2*%
X110575000Y-87100000D03*
X112400000Y-87100000D03*
%TD*%
D13*
%TO.C,C18*%
X128200000Y-105500000D03*
X130100000Y-105500000D03*
%TD*%
%TO.C,C19*%
X128650000Y-110500000D03*
X130550000Y-110500000D03*
%TD*%
D11*
%TO.C,C2*%
X110650000Y-91000000D03*
X110650000Y-92900000D03*
%TD*%
D13*
%TO.C,C20*%
X123650000Y-110000000D03*
X125550000Y-110000000D03*
%TD*%
D14*
%TO.C,P1*%
X96150000Y-119160000D03*
X96650000Y-119160000D03*
X97150000Y-119160000D03*
X97650000Y-119160000D03*
X98150000Y-119160000D03*
X98650000Y-119160000D03*
X99150000Y-119160000D03*
X99650000Y-119160000D03*
X100150000Y-119160000D03*
X100650000Y-119160000D03*
X101150000Y-119160000D03*
X101650000Y-119160000D03*
D15*
X95480000Y-120000000D03*
%TD*%
D16*
%TO.C,SW1*%
X114950000Y-96975000D03*
X114950000Y-101075000D03*
X113350000Y-96975000D03*
X113350000Y-101075000D03*
D17*
X115575000Y-99025000D03*
%TD*%
D18*
%TO.C,U1*%
X121150000Y-87000000D03*
X121150000Y-87500000D03*
X121150000Y-88000000D03*
X121150000Y-88500000D03*
X121150000Y-89000000D03*
X121150000Y-89500000D03*
X121150000Y-90000000D03*
X121150000Y-90500000D03*
X121150000Y-91000000D03*
X121150000Y-91500000D03*
X121150000Y-92000000D03*
X121150000Y-92500000D03*
X121150000Y-93000000D03*
X121150000Y-93500000D03*
X121150000Y-94000000D03*
X121150000Y-94500000D03*
D19*
X123075000Y-96425000D03*
X123575000Y-96425000D03*
X124075000Y-96425000D03*
X124575000Y-96425000D03*
X125075000Y-96425000D03*
X125575000Y-96425000D03*
X126075000Y-96425000D03*
X126575000Y-96425000D03*
X127075000Y-96425000D03*
X127575000Y-96425000D03*
X128075000Y-96425000D03*
X128575000Y-96425000D03*
X129075000Y-96425000D03*
X129575000Y-96425000D03*
X130075000Y-96425000D03*
X130575000Y-96425000D03*
D18*
X132500000Y-94500000D03*
X132500000Y-94000000D03*
X132500000Y-93500000D03*
X132500000Y-93000000D03*
X132500000Y-92500000D03*
X132500000Y-92000000D03*
X132500000Y-91500000D03*
X132500000Y-91000000D03*
X132500000Y-90500000D03*
X132500000Y-90000000D03*
X132500000Y-89500000D03*
X132500000Y-89000000D03*
X132500000Y-88500000D03*
X132500000Y-88000000D03*
X132500000Y-87500000D03*
X132500000Y-87000000D03*
D19*
X130575000Y-85075000D03*
X130075000Y-85075000D03*
X129575000Y-85075000D03*
X129075000Y-85075000D03*
X128575000Y-85075000D03*
X128075000Y-85075000D03*
X127575000Y-85075000D03*
X127075000Y-85075000D03*
X126575000Y-85075000D03*
X126075000Y-85075000D03*
X125575000Y-85075000D03*
X125075000Y-85075000D03*
X124575000Y-85075000D03*
X124075000Y-85075000D03*
X123575000Y-85075000D03*
X123075000Y-85075000D03*
%TD*%
M02*
